NewsreaderDisplay-Light.ufo
<glyph name="exclam" format="2">
	<unicode hex="0021"/>
	<advance width="487.5733333333"/>
	<outline>
		<contour>
			<point x="327.2" y="1385.9866666667" type="line" smooth="yes"/>
			<point x="327.2" y="1426.9066666667"/>
			<point x="285.7733333333" y="1447.4933333333"/>
			<point x="244.9733333333" y="1447.4933333333" type="curve" smooth="yes"/>
			<point x="203.5466666667" y="1447.4933333333"/>
			<point x="161.7466666667" y="1426.9066666667"/>
			<point x="161.7466666667" y="1385.9866666667" type="curve" smooth="yes"/>
			<point x="161.7466666667" y="1357.48" type="line" smooth="yes"/>
			<point x="161.7466666667" y="1315.28"/>
			<point x="211.1733333333" y="825.64"/>
			<point x="229.48" y="421.0133333333" type="curve"/>
			<point x="256.84" y="421.0133333333" type="line"/>
			<point x="275.1466666667" y="825.64"/>
			<point x="327.2" y="1317.5333333333"/>
			<point x="327.2" y="1357.48" type="curve" smooth="yes"/>
		</contour>
		<contour>
			<point x="244.9733333333" y="193.8266666667" type="curve" smooth="yes"/>
			<point x="184.28" y="193.8266666667"/>
			<point x="139.0666666667" y="147.24"/>
			<point x="139.0666666667" y="88.6666666667" type="curve" smooth="yes"/>
			<point x="139.0666666667" y="30.0933333333"/>
			<point x="184.28" y="-15.8666666667"/>
			<point x="244.9733333333" y="-15.8666666667" type="curve" smooth="yes"/>
			<point x="305.6666666667" y="-15.8666666667"/>
			<point x="350.88" y="30.0933333333"/>
			<point x="350.88" y="88.6666666667" type="curve" smooth="yes"/>
			<point x="350.88" y="147.24"/>
			<point x="305.6666666667" y="193.8266666667"/>
		</contour>
	</outline>
</glyph>
<glyph name="ampersand" format="2">
	<unicode hex="0026"/>
	<advance width="1463.6266666667"/>
	<outline>
		<contour>
			<point x="570.84" y="806.9466666667" type="line"/>
			<point x="817.7066666667" y="935.9733333333"/>
			<point x="911.3466666667" y="1048.12"/>
			<point x="911.3466666667" y="1189.3733333333" type="curve" smooth="yes"/>
			<point x="911.3466666667" y="1328.4933333333"/>
			<point x="806.7333333333" y="1450"/>
			<point x="604.1466666667" y="1450" type="curve" smooth="yes"/>
			<point x="392.9733333333" y="1450"/>
			<point x="269.9866666667" y="1320.6533333333"/>
			<point x="269.9866666667" y="1150.4266666667" type="curve" smooth="yes"/>
			<point x="269.9866666667" y="1047.0533333333"/>
			<point x="305.6133333333" y="954.9333333333"/>
			<point x="457.9066666667" y="784.3866666667" type="curve" smooth="yes"/>
			<point x="1159.1866666667" y="0" type="line"/>
			<point x="1459.7466666667" y="0" type="line"/>
			<point x="1459.7466666667" y="16.3466666667" type="line"/>
			<point x="1258.6" y="52.7066666667" type="line"/>
			<point x="537.0933333333" y="854.7066666667" type="line" smooth="yes"/>
			<point x="401.4533333333" y="1005.3466666667"/>
			<point x="363.2133333333" y="1089.4666666667"/>
			<point x="363.2133333333" y="1196.9733333333" type="curve" smooth="yes"/>
			<point x="363.2133333333" y="1330.2533333333"/>
			<point x="462.8666666667" y="1417.28"/>
			<point x="600.0266666667" y="1417.28" type="curve" smooth="yes"/>
			<point x="738.9466666667" y="1417.28"/>
			<point x="816.9733333333" y="1327.88"/>
			<point x="816.9733333333" y="1185.88" type="curve" smooth="yes"/>
			<point x="816.9733333333" y="1051.8533333333"/>
			<point x="743.44" y="940.4666666667"/>
			<point x="549.4933333333" y="826.5733333333" type="curve"/>
			<point x="486.7333333333" y="797.5066666667" type="line"/>
			<point x="223.0533333333" y="671.0133333333"/>
			<point x="115.76" y="537.16"/>
			<point x="115.76" y="338.24" type="curve" smooth="yes"/>
			<point x="115.76" y="129.7466666667"/>
			<point x="264.7733333333" y="-20"/>
			<point x="524.1066666667" y="-20" type="curve" smooth="yes"/>
			<point x="719.96" y="-20"/>
			<point x="874.9333333333" y="61"/>
			<point x="999.5466666667" y="231.52" type="curve"/>
			<point x="1016.16" y="254.1333333333" type="line"/>
			<point x="1105.7733333333" y="383.64"/>
			<point x="1184.0133333333" y="567.4"/>
			<point x="1246.64" y="824.4133333333" type="curve"/>
			<point x="1414.76" y="853.7733333333" type="line"/>
			<point x="1414.76" y="874" type="line"/>
			<point x="993.3333333333" y="874" type="line"/>
			<point x="993.3333333333" y="853.7733333333" type="line"/>
			<point x="1165.5866666667" y="824.4133333333" type="line"/>
			<point x="1137.5733333333" y="574.2666666667"/>
			<point x="1074.0666666667" y="401.8666666667"/>
			<point x="995.1866666667" y="285.4666666667" type="curve"/>
			<point x="978.3333333333" y="262.4933333333" type="line"/>
			<point x="874.5466666667" y="123.28"/>
			<point x="737.2533333333" y="61.3866666667"/>
			<point x="584.1066666667" y="61.3866666667" type="curve" smooth="yes"/>
			<point x="373.5866666667" y="61.3866666667"/>
			<point x="231.5733333333" y="181.88"/>
			<point x="231.5733333333" y="377.76" type="curve" smooth="yes"/>
			<point x="231.5733333333" y="543.5733333333"/>
			<point x="298.84" y="661.4533333333"/>
			<point x="500.2" y="776.7466666667" type="curve"/>
		</contour>
	</outline>
</glyph>
<glyph name="quotesingle" format="2">
	<unicode hex="0027"/>
	<advance width="322.2533333333"/>
	<outline>
		<contour>
			<point x="148.08" y="978" type="line"/>
			<point x="169.9333333333" y="978" type="line"/>
			<point x="229.3333333333" y="1389.24" type="line"/>
			<point x="229.3333333333" y="1430" type="line"/>
			<point x="95.4133333333" y="1430" type="line"/>
			<point x="95.4133333333" y="1389.24" type="line"/>
		</contour>
	</outline>
</glyph>
<glyph name="parenleft" format="2">
	<unicode hex="0028"/>
	<advance width="519.92"/>
	<outline>
		<contour>
			<point x="190.3866666667" y="612.8666666667" type="curve" smooth="yes"/>
			<point x="190.3866666667" y="878.1866666667"/>
			<point x="258.28" y="1116.4666666667"/>
			<point x="462.4133333333" y="1448.5733333333" type="curve"/>
			<point x="440.1733333333" y="1462.6933333333" type="line"/>
			<point x="180.7866666667" y="1099.92"/>
			<point x="84.1333333333" y="908.2666666667"/>
			<point x="84.1333333333" y="612.8666666667" type="curve" smooth="yes"/>
			<point x="84.1333333333" y="317.4666666667"/>
			<point x="180.7866666667" y="125.44"/>
			<point x="440.1733333333" y="-237.3333333333" type="curve"/>
			<point x="462.4133333333" y="-223.2133333333" type="line"/>
			<point x="258.28" y="108.8933333333"/>
			<point x="190.3866666667" y="347.5466666667"/>
		</contour>
	</outline>
</glyph>
<glyph name="parenright" format="2">
	<unicode hex="0029"/>
	<advance width="519.92"/>
	<outline>
		<contour>
			<point x="329.5333333333" y="612.8666666667" type="curve" smooth="yes"/>
			<point x="329.5333333333" y="347.5466666667"/>
			<point x="261.64" y="109.2666666667"/>
			<point x="57.5066666667" y="-222.84" type="curve"/>
			<point x="79.7466666667" y="-236.96" type="line"/>
			<point x="339.1333333333" y="125.8133333333"/>
			<point x="435.7866666667" y="317.4666666667"/>
			<point x="435.7866666667" y="612.8666666667" type="curve" smooth="yes"/>
			<point x="435.7866666667" y="908.2666666667"/>
			<point x="339.1333333333" y="1100.2933333333"/>
			<point x="79.7466666667" y="1463.0666666667" type="curve"/>
			<point x="57.5066666667" y="1448.9466666667" type="line"/>
			<point x="261.64" y="1116.84"/>
			<point x="329.5333333333" y="878.1866666667"/>
		</contour>
	</outline>
</glyph>
<glyph name="asterisk" format="2">
	<unicode hex="002A"/>
	<advance width="758.44"/>
	<outline>
		<contour>
			<point x="508.4533333333" y="894.9466666667" type="line"/>
			<point x="436.9333333333" y="1128.9333333333" type="line"/>
			<point x="679.8133333333" y="1174.16" type="line"/>
			<point x="678.44" y="1194.1466666667" type="line"/>
			<point x="431.8133333333" y="1199.6266666667" type="line"/>
			<point x="469.5866666667" y="1444.12" type="line"/>
			<point x="448.9733333333" y="1449.8666666667" type="line"/>
			<point x="363.4933333333" y="1215.9866666667" type="line"/>
			<point x="142.76" y="1324.88" type="line"/>
			<point x="131.8933333333" y="1307.52" type="line"/>
			<point x="325.7733333333" y="1156.7866666667" type="line"/>
			<point x="157.0133333333" y="979.68" type="line"/>
			<point x="170.2533333333" y="965.0666666667" type="line"/>
			<point x="371.36" y="1102.7066666667" type="line"/>
			<point x="489.84" y="887.2" type="line"/>
		</contour>
	</outline>
</glyph>
<glyph name="plus" format="2">
  <advance width="1150.0"/>
  <unicode hex="002B"/>
  <outline>
    <contour>
      <point x="548.8933333333333" y="923.0" type="line"/>
      <point x="548.8933333333333" y="101.0" type="line"/>
      <point x="601.1066666666667" y="101.0" type="line"/>
      <point x="601.1066666666667" y="923.0" type="line"/>
    </contour>
    <contour>
      <point x="986.0" y="538.1066666666667" type="line"/>
      <point x="164.0" y="538.1066666666667" type="line"/>
      <point x="164.0" y="485.8933333333333" type="line"/>
      <point x="986.0" y="485.8933333333333" type="line"/>
    </contour>
  </outline>
</glyph>
<glyph name="comma" format="2">
	<unicode hex="002C"/>
	<advance width="382.8933333333"/>
	<outline>
		<contour>
			<point x="58.2" y="-277.8266666667" type="curve"/>
			<point x="78.1866666667" y="-295.9333333333" type="line"/>
			<point x="229.32" y="-173.84"/>
			<point x="293.6666666667" y="-59.4"/>
			<point x="293.6666666667" y="58.68" type="curve" smooth="yes"/>
			<point x="293.6666666667" y="147.0133333333"/>
			<point x="247.8266666667" y="189.3466666667"/>
			<point x="185.5066666667" y="189.3466666667" type="curve" smooth="yes"/>
			<point x="122.1866666667" y="189.3466666667"/>
			<point x="84.48" y="150.5066666667"/>
			<point x="84.48" y="92.56" type="curve" smooth="yes"/>
			<point x="84.48" y="54.68"/>
			<point x="206.8" y="48.6133333333"/>
			<point x="206.8" y="-31.5866666667" type="curve" smooth="yes"/>
			<point x="206.8" y="-119.32"/>
			<point x="153.4266666667" y="-191.0666666667"/>
		</contour>
	</outline>
</glyph>
<glyph name="hyphen" format="2">
  <advance width="592.96"/>
  <unicode hex="002D"/>
  <outline>
    <contour>
      <point x="108.08" y="558.08" type="line"/>
      <point x="108.08" y="469.28000000000003" type="line"/>
      <point x="484.88" y="469.28000000000003" type="line"/>
      <point x="484.88" y="558.08" type="line"/>
    </contour>
  </outline>
</glyph>
<glyph name="period" format="2">
	<unicode hex="002E"/>
	<advance width="409.6"/>
	<outline>
		<contour>
			<point x="204.8" y="193.8266666667" type="curve" smooth="yes"/>
			<point x="144.1066666667" y="193.8266666667"/>
			<point x="98.8933333333" y="147.24"/>
			<point x="98.8933333333" y="88.6666666667" type="curve" smooth="yes"/>
			<point x="98.8933333333" y="30.0933333333"/>
			<point x="144.1066666667" y="-15.8666666667"/>
			<point x="204.8" y="-15.8666666667" type="curve" smooth="yes"/>
			<point x="265.4933333333" y="-15.8666666667"/>
			<point x="310.7066666667" y="30.0933333333"/>
			<point x="310.7066666667" y="88.6666666667" type="curve" smooth="yes"/>
			<point x="310.7066666667" y="147.24"/>
			<point x="265.4933333333" y="193.8266666667"/>
		</contour>
	</outline>
</glyph>
<glyph name="slash" format="2">
	<unicode hex="002F"/>
	<advance width="779.36"/>
	<outline>
		<contour>
			<point x="58.2533333333" y="0" type="line"/>
			<point x="126.48" y="0" type="line"/>
			<point x="723.48" y="1430" type="line"/>
			<point x="655.2533333333" y="1430" type="line"/>
		</contour>
	</outline>
</glyph>
<glyph name="zero" format="2">
	<unicode hex="0030"/>
	<advance width="1200"/>
	<outline>
		<contour>
			<point x="603.3733333333" y="14.0933333333" type="curve" smooth="yes"/>
			<point x="367.8451282051" y="14.0933333333"/>
			<point x="224.8533333333" y="285.48"/>
			<point x="224.8533333333" y="747" type="curve" smooth="yes"/>
			<point x="224.8533333333" y="1168.1466666667"/>
			<point x="364.5123595506" y="1415.9066666667"/>
			<point x="596.6266666667" y="1415.9066666667" type="curve" smooth="yes"/>
			<point x="832.1548717949" y="1415.9066666667"/>
			<point x="975.1466666667" y="1144.52"/>
			<point x="975.1466666667" y="683" type="curve" smooth="yes"/>
			<point x="975.1466666667" y="261.8533333333"/>
			<point x="835.4876404494" y="14.0933333333"/>
		</contour>
		<contour>
			<point x="601.12" y="1450" type="curve" smooth="yes"/>
			<point x="298.7876106195" y="1450"/>
			<point x="95.5466666667" y="1151.6266666667"/>
			<point x="95.5466666667" y="713" type="curve" smooth="yes"/>
			<point x="95.5466666667" y="275"/>
			<point x="298.522647585" y="-20"/>
			<point x="598.88" y="-20" type="curve" smooth="yes"/>
			<point x="901.2123893805" y="-20"/>
			<point x="1105.08" y="278.3733333333"/>
			<point x="1105.08" y="717" type="curve" smooth="yes"/>
			<point x="1105.08" y="1155"/>
			<point x="901.477352415" y="1450"/>
		</contour>
	</outline>
</glyph>
<glyph name="one" format="2">
  <advance width="1200.0"/>
  <unicode hex="0031"/>
  <outline>
    <contour>
      <point x="619.7066666666667" y="55.813333333333325" type="line"/>
      <point x="308.84" y="17.973333333333333" type="line"/>
      <point x="308.84" y="0.0" type="line"/>
      <point x="1035.0" y="0.0" type="line"/>
      <point x="1035.0" y="17.973333333333333" type="line"/>
      <point x="742.3866666666668" y="55.813333333333325" type="line"/>
      <point x="742.3866666666668" y="1449.3733333333332" type="line"/>
      <point x="720.1600000000001" y="1449.3733333333332" type="line"/>
      <point x="214.5066666666667" y="1174.1866666666667" type="line"/>
      <point x="221.0" y="1154.4666666666665" type="line"/>
      <point x="666.9866666666667" y="1315.5333333333335" type="line"/>
      <point x="619.7066666666667" y="1350.8" type="line"/>
    </contour>
  </outline>
</glyph>
<glyph name="colon" format="2">
	<unicode hex="003A"/>
	<advance width="465.0666666667"/>
	<outline>
		<contour>
			<point x="232.5333333333" y="193.8266666667" type="curve" smooth="yes"/>
			<point x="171.84" y="193.8266666667"/>
			<point x="126.6266666667" y="147.24"/>
			<point x="126.6266666667" y="88.6666666667" type="curve" smooth="yes"/>
			<point x="126.6266666667" y="30.0933333333"/>
			<point x="171.84" y="-15.8666666667"/>
			<point x="232.5333333333" y="-15.8666666667" type="curve" smooth="yes"/>
			<point x="293.2266666667" y="-15.8666666667"/>
			<point x="338.44" y="30.0933333333"/>
			<point x="338.44" y="88.6666666667" type="curve" smooth="yes"/>
			<point x="338.44" y="147.24"/>
			<point x="293.2266666667" y="193.8266666667"/>
		</contour>
		<contour>
			<point x="232.5333333333" y="1039.8666666667" type="curve" smooth="yes"/>
			<point x="171.84" y="1039.8666666667"/>
			<point x="126.6266666667" y="993.28"/>
			<point x="126.6266666667" y="934.7066666667" type="curve" smooth="yes"/>
			<point x="126.6266666667" y="876.1333333333"/>
			<point x="171.84" y="830.1733333333"/>
			<point x="232.5333333333" y="830.1733333333" type="curve" smooth="yes"/>
			<point x="293.2266666667" y="830.1733333333"/>
			<point x="338.44" y="876.1333333333"/>
			<point x="338.44" y="934.7066666667" type="curve" smooth="yes"/>
			<point x="338.44" y="993.28"/>
			<point x="293.2266666667" y="1039.8666666667"/>
		</contour>
	</outline>
</glyph>
<glyph name="semicolon" format="2">
	<unicode hex="003B"/>
	<advance width="495.2266666667"/>
	<outline>
		<contour>
			<point x="123" y="-277.8266666667" type="curve"/>
			<point x="142.9866666667" y="-295.9333333333" type="line"/>
			<point x="294.12" y="-173.84"/>
			<point x="358.4666666667" y="-59.4"/>
			<point x="358.4666666667" y="58.68" type="curve" smooth="yes"/>
			<point x="358.4666666667" y="147.0133333333"/>
			<point x="312.6266666667" y="189.3466666667"/>
			<point x="250.3066666667" y="189.3466666667" type="curve" smooth="yes"/>
			<point x="186.9866666667" y="189.3466666667"/>
			<point x="149.28" y="150.5066666667"/>
			<point x="149.28" y="92.56" type="curve" smooth="yes"/>
			<point x="149.28" y="54.68"/>
			<point x="271.6" y="48.6133333333"/>
			<point x="271.6" y="-31.5866666667" type="curve" smooth="yes"/>
			<point x="271.6" y="-119.32"/>
			<point x="218.2266666667" y="-191.0666666667"/>
		</contour>
		<contour>
			<point x="247.68" y="1039.8666666667" type="curve" smooth="yes"/>
			<point x="186.9866666667" y="1039.8666666667"/>
			<point x="141.7733333333" y="993.28"/>
			<point x="141.7733333333" y="934.7066666667" type="curve" smooth="yes"/>
			<point x="141.7733333333" y="876.1333333333"/>
			<point x="186.9866666667" y="830.1733333333"/>
			<point x="247.68" y="830.1733333333" type="curve" smooth="yes"/>
			<point x="308.3733333333" y="830.1733333333"/>
			<point x="353.5866666667" y="876.1333333333"/>
			<point x="353.5866666667" y="934.7066666667" type="curve" smooth="yes"/>
			<point x="353.5866666667" y="993.28"/>
			<point x="308.3733333333" y="1039.8666666667"/>
		</contour>
	</outline>
</glyph>
<glyph name="less" format="2">
	<unicode hex="003C"/>
	<advance width="1150"/>
	<outline>
		<contour>
			<point x="183.8266666667" y="503.3733333333" type="line"/>
			<point x="979.7466666667" y="849.7866666667" type="line"/>
			<point x="979.7466666667" y="909" type="line"/>
			<point x="143.7466666667" y="539.36" type="line"/>
			<point x="143.7466666667" y="484.64" type="line"/>
			<point x="979.7466666667" y="115" type="line"/>
			<point x="979.7466666667" y="174.2133333333" type="line"/>
			<point x="183.8266666667" y="526.6266666667" type="line"/>
		</contour>
	</outline>
</glyph>
<glyph name="greater" format="2">
	<unicode hex="003E"/>
	<advance width="1150"/>
	<outline>
		<contour>
			<point x="966.1733333333" y="503.3733333333" type="line"/>
			<point x="966.1733333333" y="526.6266666667" type="line"/>
			<point x="170.2533333333" y="174.2133333333" type="line"/>
			<point x="170.2533333333" y="115" type="line"/>
			<point x="1006.2533333333" y="484.64" type="line"/>
			<point x="1006.2533333333" y="539.36" type="line"/>
			<point x="170.2533333333" y="909" type="line"/>
			<point x="170.2533333333" y="849.7866666667" type="line"/>
		</contour>
	</outline>
</glyph>
<glyph name="question" format="2">
	<unicode hex="003F"/>
	<advance width="915.1333333333"/>
	<outline>
		<contour>
			<point x="318.0933333333" y="1450" type="curve" smooth="yes"/>
			<point x="135" y="1450"/>
			<point x="56.6266666667" y="1394.0133333333"/>
			<point x="56.6266666667" y="1336.5466666667" type="curve" smooth="yes"/>
			<point x="56.6266666667" y="1296.96"/>
			<point x="89.5866666667" y="1269.3733333333"/>
			<point x="123.8133333333" y="1269.3733333333" type="curve" smooth="yes"/>
			<point x="138.6666666667" y="1269.3733333333"/>
			<point x="220.8533333333" y="1379.16"/>
			<point x="404.3333333333" y="1379.16" type="curve" smooth="yes"/>
			<point x="614.5333333333" y="1379.16"/>
			<point x="751.2266666667" y="1275.6266666667"/>
			<point x="751.2266666667" y="1067.2933333333" type="curve" smooth="yes"/>
			<point x="751.2266666667" y="890.6266666667"/>
			<point x="645.32" y="774.6"/>
			<point x="319.36" y="792.8666666667" type="curve"/>
			<point x="372.9333333333" y="421.0133333333" type="line"/>
			<point x="397.4133333333" y="421.0133333333" type="line"/>
			<point x="397.4133333333" y="770.16" type="line"/>
			<point x="368.92" y="686.76" type="line"/>
			<point x="719.7733333333" y="674.0133333333"/>
			<point x="832.1333333333" y="809.4266666667"/>
			<point x="832.1333333333" y="1012.5066666667" type="curve" smooth="yes"/>
			<point x="832.1333333333" y="1282.4133333333"/>
			<point x="565.3333333333" y="1450"/>
		</contour>
		<contour>
			<point x="390.4266666667" y="193.8266666667" type="curve" smooth="yes"/>
			<point x="329.7333333333" y="193.8266666667"/>
			<point x="284.52" y="147.24"/>
			<point x="284.52" y="88.6666666667" type="curve" smooth="yes"/>
			<point x="284.52" y="30.0933333333"/>
			<point x="329.7333333333" y="-15.8666666667"/>
			<point x="390.4266666667" y="-15.8666666667" type="curve" smooth="yes"/>
			<point x="451.12" y="-15.8666666667"/>
			<point x="496.3333333333" y="30.0933333333"/>
			<point x="496.3333333333" y="88.6666666667" type="curve" smooth="yes"/>
			<point x="496.3333333333" y="147.24"/>
			<point x="451.12" y="193.8266666667"/>
		</contour>
	</outline>
</glyph>
<glyph name="at" format="2">
  <advance width="1774"/>
  <unicode hex="0040"/>
  <outline>
    <contour>
      <point x="1262.8666666666666" y="245.50666666666666" type="curve" smooth="yes"/>
      <point x="1536.2" y="245.50666666666666"/>
      <point x="1722.92" y="501.26666666666665"/>
      <point x="1722.92" y="818.88" type="curve" smooth="yes"/>
      <point x="1722.92" y="1176.4933333333333"/>
      <point x="1426.04" y="1451.4933333333333"/>
      <point x="994.3333333333334" y="1451.4933333333333" type="curve" smooth="yes"/>
      <point x="480.50666666666666" y="1451.4933333333333"/>
      <point x="81.62666666666667" y="1049.1200000000001"/>
      <point x="81.62666666666667" y="532.7466666666667" type="curve" smooth="yes"/>
      <point x="81.62666666666667" y="45.61333333333333"/>
      <point x="438.88" y="-218.0"/>
      <point x="906.4666666666667" y="-218.0" type="curve" smooth="yes"/>
      <point x="1121.1733333333332" y="-218.0"/>
      <point x="1362.32" y="-144.37333333333333"/>
      <point x="1529.0533333333333" y="-24.0" type="curve"/>
      <point x="1518.6933333333334" y="-3.2666666666666657" type="line"/>
      <point x="1332.96" y="-127.89333333333333"/>
      <point x="1098.56" y="-179.4"/>
      <point x="932.2133333333334" y="-179.4" type="curve" smooth="yes"/>
      <point x="481.2" y="-179.4"/>
      <point x="168.42666666666668" y="80.46666666666667"/>
      <point x="168.42666666666668" y="540.24" type="curve" smooth="yes"/>
      <point x="168.42666666666668" y="1054.76"/>
      <point x="504.08000000000004" y="1416.6399999999999"/>
      <point x="991.84" y="1416.6399999999999" type="curve" smooth="yes"/>
      <point x="1372.44" y="1416.6399999999999"/>
      <point x="1653.8666666666666" y="1144.64"/>
      <point x="1653.8666666666666" y="790.8666666666667" type="curve" smooth="yes"/>
      <point x="1653.8666666666666" y="467.3733333333333"/>
      <point x="1474.1200000000001" y="271.73333333333335"/>
      <point x="1283.8133333333335" y="271.73333333333335" type="curve" smooth="yes"/>
      <point x="1203.4" y="271.73333333333335"/>
      <point x="1149.12" y="315.6266666666667"/>
      <point x="1149.12" y="419.92" type="curve" smooth="yes"/>
      <point x="1149.12" y="466.3066666666667"/>
      <point x="1159.3733333333332" y="525.3199999999999"/>
      <point x="1183.5066666666667" y="598.3333333333333" type="curve" smooth="yes"/>
      <point x="1326.1333333333332" y="1039.0" type="line"/>
      <point x="1214.8133333333333" y="1039.0" type="line"/>
      <point x="1188.8133333333333" y="960.2666666666667" type="line"/>
      <point x="1078.8" y="624.7466666666667" type="line" smooth="yes"/>
      <point x="911.4533333333333" y="378.64"/>
      <point x="818.9200000000001" y="319.1333333333333"/>
      <point x="741.8933333333333" y="319.1333333333333" type="curve" smooth="yes"/>
      <point x="675.48" y="319.1333333333333"/>
      <point x="647.5866666666667" y="363.15999999999997"/>
      <point x="647.5866666666667" y="448.18666666666667" type="curve" smooth="yes"/>
      <point x="647.5866666666667" y="653.6133333333333"/>
      <point x="848.28" y="1016.8133333333334"/>
      <point x="1050.3600000000001" y="1016.8133333333334" type="curve" smooth="yes"/>
      <point x="1108.3600000000001" y="1016.8133333333334"/>
      <point x="1155.5066666666667" y="996.08"/>
      <point x="1199.52" y="927.7199999999999" type="curve"/>
      <point x="1210.2666666666667" y="940.7066666666667" type="line"/>
      <point x="1167.3866666666668" y="1021.1466666666666"/>
      <point x="1107.92" y="1056.12"/>
      <point x="1031.4266666666667" y="1056.12" type="curve" smooth="yes"/>
      <point x="791.6800000000001" y="1056.12"/>
      <point x="527.0266666666666" y="692.3733333333333"/>
      <point x="527.0266666666666" y="432.74666666666667" type="curve" smooth="yes"/>
      <point x="527.0266666666666" y="320.52"/>
      <point x="571.64" y="245.50666666666666"/>
      <point x="695.7733333333333" y="245.50666666666666" type="curve" smooth="yes"/>
      <point x="792.5066666666667" y="245.50666666666666"/>
      <point x="910.1333333333333" y="326.5333333333333"/>
      <point x="1090.76" y="609.6" type="curve"/>
      <point x="1077.9066666666665" y="610.3466666666667" type="line"/>
      <point x="1059.16" y="533.2533333333333" type="line" smooth="yes"/>
      <point x="1051.5333333333333" y="501.25333333333333"/>
      <point x="1047.16" y="470.25333333333333"/>
      <point x="1047.16" y="442.62666666666667" type="curve" smooth="yes"/>
      <point x="1047.16" y="319.52000000000004"/>
      <point x="1123.64" y="245.50666666666666"/>
    </contour>
  </outline>
</glyph>
<glyph name="A" format="2">
	<unicode hex="0041"/>
	<advance width="1433.32"/>
	<outline>
		<contour>
			<point x="375.3333333333" y="576.9333333333" type="line"/>
			<point x="1020.92" y="576.9333333333" type="line"/>
			<point x="1020.92" y="618.1333333333" type="line"/>
			<point x="375.3333333333" y="618.1333333333" type="line"/>
		</contour>
		<contour>
			<point x="1290" y="51.9466666667" type="line"/>
			<point x="713.1066666667" y="1450" type="line"/>
			<point x="684.5066666667" y="1450" type="line"/>
			<point x="155.3066666667" y="54.9333333333" type="line"/>
			<point x="-17.12" y="18.3466666667" type="line"/>
			<point x="-17.12" y="0" type="line"/>
			<point x="386.8666666667" y="0" type="line"/>
			<point x="386.8666666667" y="18.3466666667" type="line"/>
			<point x="201.2533333333" y="53.8133333333" type="line"/>
			<point x="667.56" y="1294.12" type="line"/>
			<point x="650.08" y="1294.12" type="line"/>
			<point x="1158.2266666667" y="51.2" type="line"/>
			<point x="974.9733333333" y="18.3466666667" type="line"/>
			<point x="974.9733333333" y="0" type="line"/>
			<point x="1462.92" y="0" type="line"/>
			<point x="1462.92" y="18.3466666667" type="line"/>
		</contour>
	</outline>
	<anchor name="UCtop" x="695.4933333333" y="1430"/>
	<anchor name="right" x="1355.4533333333" y="0"/>
	<anchor name="bottom" x="715.12" y="0"/>
</glyph>
<glyph name="B" format="2">
  <advance width="1236.2933333333333"/>
  <unicode hex="0042"/>
  <anchor x="613.4" y="1430.0" name="UCtop"/>
  <anchor x="625.9333333333334" y="0.0" name="bottom"/>
  <outline>
    <contour>
      <point x="267.50666666666666" y="1391.7866666666666" type="line"/>
      <point x="516.4933333333333" y="1391.7866666666666" type="line" smooth="yes"/>
      <point x="816.3733333333333" y="1391.7866666666666"/>
      <point x="925.5066666666667" y="1274.9066666666665"/>
      <point x="925.5066666666667" y="1087.0" type="curve" smooth="yes"/>
      <point x="925.5066666666667" y="891.64"/>
      <point x="815.6266666666667" y="780.1066666666667"/>
      <point x="574.3066666666667" y="780.1066666666667" type="curve" smooth="yes"/>
      <point x="267.50666666666666" y="780.1066666666667" type="line"/>
      <point x="275.7066666666667" y="741.8933333333333" type="line"/>
      <point x="600.84" y="741.8933333333333" type="line" smooth="yes"/>
      <point x="898.3466666666666" y="741.8933333333333"/>
      <point x="1019.0" y="604.52"/>
      <point x="1019.0" y="392.8533333333333" type="curve" smooth="yes"/>
      <point x="1019.0" y="163.38666666666666"/>
      <point x="884.9066666666666" y="38.21333333333333"/>
      <point x="563.1866666666666" y="38.21333333333333" type="curve" smooth="yes"/>
      <point x="275.4533333333333" y="38.21333333333333" type="line"/>
      <point x="320.76" y="0.0" type="line"/>
      <point x="611.8933333333333" y="0.0" type="line" smooth="yes"/>
      <point x="1006.6800000000001" y="0.0"/>
      <point x="1150.6533333333332" y="174.35999999999999"/>
      <point x="1150.6533333333332" y="395.48" type="curve" smooth="yes"/>
      <point x="1150.6533333333332" y="597.9866666666667"/>
      <point x="1003.84" y="749.9733333333334"/>
      <point x="708.6933333333333" y="774.8533333333334" type="curve"/>
      <point x="696.12" y="763.8666666666667" type="line"/>
      <point x="934.8000000000001" y="800.28"/>
      <point x="1049.9333333333334" y="927.4266666666666"/>
      <point x="1049.9333333333334" y="1097.1066666666666" type="curve" smooth="yes"/>
      <point x="1049.9333333333334" y="1286.7333333333331"/>
      <point x="926.0666666666666" y="1430.0"/>
      <point x="602.9066666666666" y="1430.0" type="curve" smooth="yes"/>
      <point x="320.38666666666666" y="1430.0" type="line"/>
    </contour>
    <contour>
      <point x="62.986666666666665" y="0.0" type="line"/>
      <point x="372.7866666666667" y="0.0" type="line"/>
      <point x="372.7866666666667" y="1430.0" type="line"/>
      <point x="63.61333333333333" y="1430.0" type="line"/>
      <point x="63.61333333333333" y="1411.6533333333334" type="line"/>
      <point x="245.12" y="1378.8" type="line"/>
      <point x="245.12" y="51.57333333333334" type="line"/>
      <point x="62.986666666666665" y="18.346666666666664" type="line"/>
    </contour>
  </outline>
</glyph>
<glyph name="C" format="2">
	<unicode hex="0043"/>
	<advance width="1410.7333333333"/>
	<outline>
		<contour>
			<point x="871.7333333333" y="9.1066666667" type="curve" smooth="yes"/>
			<point x="524.4933333333" y="9.1066666667"/>
			<point x="231.92" y="254.1733333333"/>
			<point x="231.92" y="743.6133333333" type="curve" smooth="yes"/>
			<point x="231.92" y="1204.1466666667"/>
			<point x="479.7066666667" y="1412.7733333333"/>
			<point x="808.4" y="1412.7733333333" type="curve" smooth="yes"/>
			<point x="942.0666666667" y="1412.7733333333"/>
			<point x="1068.24" y="1375.1466666667"/>
			<point x="1206.5333333333" y="1283.7466666667" type="curve"/>
			<point x="1137.08" y="1349.56" type="line"/>
			<point x="1300.7466666667" y="1008.92" type="line"/>
			<point x="1321.36" y="1012.5466666667" type="line"/>
			<point x="1232.6133333333" y="1480.8666666667" type="line"/>
			<point x="1224.2533333333" y="1480.8666666667" type="line"/>
			<point x="1152.2266666667" y="1384.84" type="line"/>
			<point x="1208.9866666667" y="1387.44" type="line"/>
			<point x="1092.6" y="1429.7333333333"/>
			<point x="978.56" y="1450"/>
			<point x="858.16" y="1450" type="curve" smooth="yes"/>
			<point x="399.8666666667" y="1450"/>
			<point x="96.1333333333" y="1161.1333333333"/>
			<point x="96.1333333333" y="720.2266666667" type="curve" smooth="yes"/>
			<point x="96.1333333333" y="237.7733333333"/>
			<point x="436.9866666667" y="-20"/>
			<point x="874.7333333333" y="-20" type="curve" smooth="yes"/>
			<point x="1016.8666666667" y="-20"/>
			<point x="1152.44" y="3.5333333333"/>
			<point x="1270.7466666667" y="47.9066666667" type="curve"/>
			<point x="1341.8533333333" y="362.8" type="line"/>
			<point x="1321.8666666667" y="362.8" type="line"/>
			<point x="1166.92" y="66.4" type="line"/>
			<point x="1210.3066666667" y="116.7866666667" type="line"/>
			<point x="1107.8133333333" y="43.3466666667"/>
			<point x="985.8933333333" y="9.1066666667"/>
		</contour>
	</outline>
	<anchor name="UCtop" x="801.1333333333" y="1430"/>
	<anchor name="bottom" x="797.3733333333" y="0"/>
	<anchor name="right" x="1262.7866666667" y="0"/>
</glyph>
<glyph name="D" format="2">
	<unicode hex="0044"/>
	<advance width="1510.0266666667"/>
	<outline>
		<contour>
			<point x="1277.8533333333" y="730.1333333333" type="curve" smooth="yes"/>
			<point x="1277.8533333333" y="239.5015506173"/>
			<point x="1007.4933333333" y="41.2"/>
			<point x="569.7466666667" y="41.2" type="curve" smooth="yes"/>
			<point x="279.8533333333" y="41.2" type="line"/>
			<point x="292.3866666667" y="0" type="line"/>
			<point x="602.8666666667" y="0" type="line" smooth="yes"/>
			<point x="1063.5066666667" y="0"/>
			<point x="1411.8933333333" y="249.8666666667"/>
			<point x="1411.8933333333" y="739.2266666667" type="curve" smooth="yes"/>
			<point x="1411.8933333333" y="1180.12"/>
			<point x="1122.7866666667" y="1430"/>
			<point x="592" y="1430" type="curve" smooth="yes"/>
			<point x="292.3866666667" y="1430" type="line"/>
			<point x="279.8533333333" y="1388.8" type="line"/>
			<point x="536.2533333333" y="1388.8" type="line" smooth="yes"/>
			<point x="1011.7466666667" y="1388.8"/>
			<point x="1277.8533333333" y="1168.4088888889"/>
		</contour>
		<contour>
			<point x="62.9866666667" y="0" type="line"/>
			<point x="372.7866666667" y="0" type="line"/>
			<point x="372.7866666667" y="1430" type="line"/>
			<point x="62.9866666667" y="1430" type="line"/>
			<point x="62.9866666667" y="1411.6533333333" type="line"/>
			<point x="245.12" y="1378.8" type="line"/>
			<point x="245.12" y="51.5733333333" type="line"/>
			<point x="62.9866666667" y="18.3466666667" type="line"/>
		</contour>
	</outline>
	<anchor name="UCtop" x="768.4666666667" y="1430"/>
	<anchor name="bottom" x="768.4666666667" y="0"/>
</glyph>
<glyph name="E" format="2">
	<unicode hex="0045"/>
	<advance width="1282.72"/>
	<outline>
		<contour>
			<point x="894.6666666667" y="1035.8666666667" type="line"/>
			<point x="880.1866666667" y="1035.8666666667" type="line"/>
			<point x="786.7333333333" y="777.8533333333" type="line"/>
			<point x="306.48" y="759.88" type="line"/>
			<point x="306.48" y="735.6266666667" type="line"/>
			<point x="786.7333333333" y="720.4" type="line"/>
			<point x="880.1866666667" y="460.0133333333" type="line"/>
			<point x="894.6666666667" y="460.0133333333" type="line"/>
			<point x="860.04" y="747.2533333333" type="line"/>
		</contour>
		<contour>
			<point x="1172.08" y="1061.6933333333" type="line"/>
			<point x="1096.3066666667" y="1477.1066666667" type="line"/>
			<point x="1090.8133333333" y="1477.1066666667" type="line"/>
			<point x="1004.8133333333" y="1430" type="line"/>
			<point x="269.1466666667" y="1430" type="line"/>
			<point x="269.1466666667" y="1388.8" type="line"/>
			<point x="1079.6533333333" y="1388.8" type="line"/>
			<point x="989.9466666667" y="1407.16" type="line"/>
			<point x="1153.9733333333" y="1055.5733333333" type="line"/>
		</contour>
		<contour>
			<point x="1021.7333333333" y="23.72" type="line"/>
			<point x="1106.1733333333" y="41.2" type="line"/>
			<point x="269.1466666667" y="41.2" type="line"/>
			<point x="269.1466666667" y="0" type="line"/>
			<point x="1032.4533333333" y="0" type="line"/>
			<point x="1123.48" y="-50.8666666667" type="line"/>
			<point x="1130.2266666667" y="-50.8666666667" type="line"/>
			<point x="1234.9733333333" y="379.96" type="line"/>
			<point x="1218.12" y="385.08" type="line"/>
		</contour>
		<contour>
			<point x="62.9866666667" y="0" type="line"/>
			<point x="372.7866666667" y="0" type="line"/>
			<point x="372.7866666667" y="1430" type="line"/>
			<point x="62.9866666667" y="1430" type="line"/>
			<point x="62.9866666667" y="1411.6533333333" type="line"/>
			<point x="245.12" y="1378.8" type="line"/>
			<point x="245.12" y="51.5733333333" type="line"/>
			<point x="62.9866666667" y="18.3466666667" type="line"/>
		</contour>
	</outline>
	<anchor name="UCtop" x="652.28" y="1430"/>
	<anchor name="right" x="1101.5333333333" y="0"/>
	<anchor name="bottom" x="671.08" y="0"/>
</glyph>
<glyph name="F" format="2">
	<unicode hex="0046"/>
	<advance width="1149.68"/>
	<outline>
		<contour>
			<point x="881.84" y="1006.36" type="line"/>
			<point x="867.36" y="1006.36" type="line"/>
			<point x="773.9066666667" y="748.3466666667" type="line"/>
			<point x="302.7466666667" y="730.3733333333" type="line"/>
			<point x="302.7466666667" y="706.12" type="line"/>
			<point x="773.9066666667" y="690.8933333333" type="line"/>
			<point x="867.36" y="430.5066666667" type="line"/>
			<point x="881.84" y="430.5066666667" type="line"/>
			<point x="847.2133333333" y="717.7466666667" type="line"/>
		</contour>
		<contour>
			<point x="1024.84" y="1477.1066666667" type="line"/>
			<point x="940.3333333333" y="1430" type="line"/>
			<point x="269.1466666667" y="1430" type="line"/>
			<point x="269.1466666667" y="1388.8" type="line"/>
			<point x="1014.4266666667" y="1388.8" type="line"/>
			<point x="924.3466666667" y="1407.5333333333" type="line"/>
			<point x="1102.56" y="1055.5733333333" type="line"/>
			<point x="1120.6666666667" y="1061.32" type="line"/>
			<point x="1030.3333333333" y="1477.1066666667" type="line"/>
		</contour>
		<contour>
			<point x="372.7866666667" y="1430" type="line"/>
			<point x="63.6133333333" y="1430" type="line"/>
			<point x="63.6133333333" y="1411.6533333333" type="line"/>
			<point x="245.12" y="1378.8" type="line"/>
			<point x="245.12" y="51.5733333333" type="line"/>
			<point x="62.9866666667" y="18.3466666667" type="line"/>
			<point x="62.9866666667" y="0" type="line"/>
			<point x="554.2933333333" y="0" type="line"/>
			<point x="554.2933333333" y="18.3466666667" type="line"/>
			<point x="372.7866666667" y="51.5733333333" type="line"/>
		</contour>
	</outline>
	<anchor name="UCtop" x="582.3866666667" y="1430"/>
	<anchor name="bottom" x="309.2666666667" y="0"/>
</glyph>
<glyph name="G" format="2">
	<unicode hex="0047"/>
	<advance width="1515.4533333333"/>
	<outline>
		<contour>
			<point x="1300.3066666667" y="97.1066666667" type="line"/>
			<point x="1300.3066666667" y="588.92" type="line"/>
			<point x="1446.5866666667" y="620.28" type="line"/>
			<point x="1446.5866666667" y="639.3733333333" type="line"/>
			<point x="963.7466666667" y="639.3733333333" type="line"/>
			<point x="963.7466666667" y="620.28" type="line"/>
			<point x="1179.6133333333" y="586.68" type="line"/>
			<point x="1179.6133333333" y="36.9066666667" type="line"/>
			<point x="1217.1466666667" y="99.1466666667" type="line"/>
			<point x="1134.08" y="38.24"/>
			<point x="1002.8666666667" y="9.7333333333"/>
			<point x="879.2" y="9.1066666667" type="curve" smooth="yes"/>
			<point x="527.8533333333" y="8.48"/>
			<point x="231.92" y="254.1733333333"/>
			<point x="231.92" y="743.6133333333" type="curve" smooth="yes"/>
			<point x="231.92" y="1204.1466666667"/>
			<point x="480.3066666667" y="1412.7733333333"/>
			<point x="807.72" y="1412.7733333333" type="curve" smooth="yes"/>
			<point x="963.04" y="1412.7733333333"/>
			<point x="1106.0133333333" y="1356.8533333333"/>
			<point x="1246.1733333333" y="1251.64" type="curve"/>
			<point x="1124.4533333333" y="1368.9733333333" type="line"/>
			<point x="1301.9333333333" y="1008.92" type="line"/>
			<point x="1322.5466666667" y="1012.5466666667" type="line"/>
			<point x="1233.8" y="1480.8666666667" type="line"/>
			<point x="1225.44" y="1480.8666666667" type="line"/>
			<point x="1150.8" y="1379.24" type="line"/>
			<point x="1235.9333333333" y="1379.6" type="line"/>
			<point x="1124.7733333333" y="1424.5066666667"/>
			<point x="996.92" y="1450"/>
			<point x="857.48" y="1450" type="curve" smooth="yes"/>
			<point x="400.0933333333" y="1450"/>
			<point x="96.1333333333" y="1161.1333333333"/>
			<point x="96.1333333333" y="720.2266666667" type="curve" smooth="yes"/>
			<point x="96.1333333333" y="237.7733333333"/>
			<point x="440.72" y="-20"/>
			<point x="882.2" y="-20" type="curve" smooth="yes"/>
			<point x="1050.4933333333" y="-20"/>
			<point x="1268.8133333333" y="19.4133333333"/>
			<point x="1425.1866666667" y="84.2666666667" type="curve"/>
			<point x="1425.1866666667" y="97.1066666667" type="line"/>
		</contour>
	</outline>
	<anchor name="UCtop" x="801.36" y="1430"/>
	<anchor name="bottom" x="801.36" y="0"/>
</glyph>
<glyph name="H" format="2">
  <advance width="1573.8"/>
  <unicode hex="0048"/>
  <anchor x="787.0266666666666" y="1430.0" name="UCtop"/>
  <anchor x="787.0266666666666" y="0.0" name="bottom"/>
  <outline>
    <contour>
      <point x="372.7866666666667" y="51.57333333333334" type="line"/>
      <point x="372.7866666666667" y="1378.8" type="line"/>
      <point x="554.2933333333333" y="1411.6533333333334" type="line"/>
      <point x="554.2933333333333" y="1430.0" type="line"/>
      <point x="62.986666666666665" y="1430.0" type="line"/>
      <point x="62.986666666666665" y="1411.6533333333334" type="line"/>
      <point x="245.12" y="1378.8" type="line"/>
      <point x="245.12" y="51.57333333333334" type="line"/>
      <point x="62.986666666666665" y="18.346666666666664" type="line"/>
      <point x="62.986666666666665" y="0.0" type="line"/>
      <point x="554.2933333333333" y="0.0" type="line"/>
      <point x="554.2933333333333" y="18.346666666666664" type="line"/>
    </contour>
    <contour>
      <point x="1329.3066666666666" y="51.57333333333334" type="line"/>
      <point x="1329.3066666666666" y="1378.8" type="line"/>
      <point x="1510.8133333333333" y="1411.6533333333334" type="line"/>
      <point x="1510.8133333333333" y="1430.0" type="line"/>
      <point x="1019.5066666666667" y="1430.0" type="line"/>
      <point x="1019.5066666666667" y="1411.6533333333334" type="line"/>
      <point x="1201.6399999999999" y="1378.8" type="line"/>
      <point x="1201.6399999999999" y="51.57333333333334" type="line"/>
      <point x="1019.5066666666667" y="18.346666666666664" type="line"/>
      <point x="1019.5066666666667" y="0.0" type="line"/>
      <point x="1510.8133333333333" y="0.0" type="line"/>
      <point x="1510.8133333333333" y="18.346666666666664" type="line"/>
    </contour>
    <contour>
      <point x="287.1333333333333" y="721.28" type="line"/>
      <point x="1285.5466666666669" y="721.28" type="line"/>
      <point x="1285.5466666666669" y="762.48" type="line"/>
      <point x="287.1333333333333" y="762.48" type="line"/>
    </contour>
  </outline>
</glyph>
<glyph name="I" format="2">
  <advance width="617"/>
  <unicode hex="0049"/>
  <anchor x="309.26666666666665" y="1430.0" name="UCtop"/>
  <anchor x="447.18666666666667" y="0.0" name="right"/>
  <anchor x="309.26666666666665" y="0.0" name="bottom"/>
  <outline>
    <contour>
      <point x="554.2933333333333" y="18.346666666666664" type="line"/>
      <point x="372.7866666666667" y="51.57333333333334" type="line"/>
      <point x="372.7866666666667" y="1378.8" type="line"/>
      <point x="554.92" y="1411.6533333333334" type="line"/>
      <point x="554.92" y="1430.0" type="line"/>
      <point x="63.61333333333333" y="1430.0" type="line"/>
      <point x="63.61333333333333" y="1411.6533333333334" type="line"/>
      <point x="245.12" y="1378.8" type="line"/>
      <point x="245.12" y="51.57333333333334" type="line"/>
      <point x="62.986666666666665" y="18.346666666666664" type="line"/>
      <point x="62.986666666666665" y="0.0" type="line"/>
      <point x="554.2933333333333" y="0.0" type="line"/>
    </contour>
  </outline>
</glyph>
<glyph name="J" format="2">
	<unicode hex="004A"/>
	<advance width="710.8933333333"/>
	<outline>
		<contour>
			<point x="488.2533333333" y="458.44" type="curve" smooth="yes"/>
			<point x="488.2533333333" y="1378.8" type="line"/>
			<point x="670.3866666667" y="1411.6533333333" type="line"/>
			<point x="670.3866666667" y="1430" type="line"/>
			<point x="179.08" y="1430" type="line"/>
			<point x="179.08" y="1411.6533333333" type="line"/>
			<point x="360.5866666667" y="1378.8" type="line"/>
			<point x="360.5866666667" y="253.68" type="line" smooth="yes"/>
			<point x="360.5866666667" y="112.2133333333"/>
			<point x="293.9866666667" y="57.5333333333"/>
			<point x="207.32" y="57.5333333333" type="curve" smooth="yes"/>
			<point x="145.1333333333" y="57.5333333333"/>
			<point x="93.7866666667" y="107.4533333333"/>
			<point x="63.2933333333" y="107.4533333333" type="curve" smooth="yes"/>
			<point x="39.4533333333" y="107.4533333333"/>
			<point x="13.9866666667" y="82.4933333333"/>
			<point x="13.9866666667" y="50.16" type="curve" smooth="yes"/>
			<point x="13.9866666667" y="8.72"/>
			<point x="43.3466666667" y="-17.4933333333"/>
			<point x="99.5466666667" y="-17.4933333333" type="curve" smooth="yes"/>
			<point x="291.28" y="-17.4933333333"/>
			<point x="488.2533333333" y="147.6666666667"/>
		</contour>
	</outline>
	<anchor name="UCtop" x="424.7333333333" y="1430"/>
	<anchor name="bottom" x="342" y="0"/>
</glyph>
<glyph name="K" format="2">
	<unicode hex="004B"/>
	<advance width="1427.2666666667"/>
	<outline>
		<contour>
			<point x="1278.44" y="50.08" type="line"/>
			<point x="562.1866666667" y="804.5066666667" type="line"/>
			<point x="502.6533333333" y="743.3066666667" type="line"/>
			<point x="1163.5333333333" y="1380.1733333333" type="line"/>
			<point x="1343.4266666667" y="1410.4" type="line"/>
			<point x="1343.4266666667" y="1430" type="line"/>
			<point x="916.3733333333" y="1430" type="line"/>
			<point x="916.3733333333" y="1410.4" type="line"/>
			<point x="1101.9866666667" y="1379.4266666667" type="line"/>
			<point x="477.12" y="771.96" type="line"/>
			<point x="332.24" y="771.96" type="line"/>
			<point x="332.24" y="730.76" type="line"/>
			<point x="468.9733333333" y="730.76" type="line"/>
			<point x="1113.1066666667" y="50.4533333333" type="line"/>
			<point x="930.2266666667" y="18.3466666667" type="line"/>
			<point x="930.2266666667" y="0" type="line"/>
			<point x="1448" y="0" type="line"/>
			<point x="1448" y="18.3466666667" type="line"/>
		</contour>
		<contour>
			<point x="372.7866666667" y="1378.8" type="line"/>
			<point x="554.2933333333" y="1411.6533333333" type="line"/>
			<point x="554.2933333333" y="1430" type="line"/>
			<point x="63.6133333333" y="1430" type="line"/>
			<point x="63.6133333333" y="1411.6533333333" type="line"/>
			<point x="245.12" y="1378.8" type="line"/>
			<point x="245.12" y="51.5733333333" type="line"/>
			<point x="62.9866666667" y="18.3466666667" type="line"/>
			<point x="62.9866666667" y="0" type="line"/>
			<point x="554.2933333333" y="0" type="line"/>
			<point x="554.2933333333" y="18.3466666667" type="line"/>
			<point x="372.7866666667" y="51.5733333333" type="line"/>
		</contour>
	</outline>
	<anchor name="bottom" x="727.28" y="0"/>
	<anchor name="UCtop" x="716.6933333333" y="1430"/>
</glyph>
<glyph name="L" format="2">
  <advance width="1191"/>
  <unicode hex="004C"/>
  <anchor x="309.26666666666665" y="1430.0" name="UCtop"/>
  <anchor x="610.6" y="0.0" name="bottom"/>
  <anchor x="920.4666666666667" y="773.0" name="mid"/>
  <anchor x="559.1466666666666" y="1430.0" name="right"/>
  <outline>
    <contour>
      <point x="1062.1333333333332" y="-50.86666666666667" type="line"/>
      <point x="1166.8799999999999" y="379.96" type="line"/>
      <point x="1150.0266666666666" y="385.08" type="line"/>
      <point x="953.64" y="23.72" type="line"/>
      <point x="1038.08" y="41.2" type="line"/>
      <point x="269.1466666666667" y="41.2" type="line"/>
      <point x="269.1466666666667" y="0.0" type="line"/>
      <point x="964.36" y="0.0" type="line"/>
      <point x="1055.3866666666668" y="-50.86666666666667" type="line"/>
    </contour>
    <contour>
      <point x="372.7866666666667" y="1378.8" type="line"/>
      <point x="554.92" y="1411.6533333333334" type="line"/>
      <point x="554.92" y="1430.0" type="line"/>
      <point x="62.986666666666665" y="1430.0" type="line"/>
      <point x="62.986666666666665" y="1411.6533333333334" type="line"/>
      <point x="245.12" y="1378.8" type="line"/>
      <point x="245.12" y="51.57333333333334" type="line"/>
      <point x="62.986666666666665" y="18.346666666666664" type="line"/>
      <point x="62.986666666666665" y="0.0" type="line"/>
      <point x="372.7866666666667" y="0.0" type="line"/>
    </contour>
  </outline>
</glyph>
<glyph name="M" format="2">
	<unicode hex="004D"/>
	<advance width="1958.3866666667"/>
	<outline>
		<contour>
			<point x="1750.1333333333" y="51.5733333333" type="line"/>
			<point x="1650.2666666667" y="1376.2933333333" type="line"/>
			<point x="1850.7733333333" y="1409.7733333333" type="line"/>
			<point x="1850.7733333333" y="1430" type="line"/>
			<point x="1522.9866666667" y="1430" type="line"/>
			<point x="966.3466666667" y="123.7466666667" type="line"/>
			<point x="995.5733333333" y="123.7466666667" type="line"/>
			<point x="429.0533333333" y="1430" type="line"/>
			<point x="117.2533333333" y="1430" type="line"/>
			<point x="117.2533333333" y="1411.0266666667" type="line"/>
			<point x="301.5066666667" y="1366.08" type="line"/>
			<point x="211.6133333333" y="51.5733333333" type="line"/>
			<point x="30.1066666667" y="18.3466666667" type="line"/>
			<point x="30.1066666667" y="0" type="line"/>
			<point x="443.5333333333" y="0" type="line"/>
			<point x="443.5333333333" y="18.3466666667" type="line"/>
			<point x="254.56" y="51.5733333333" type="line"/>
			<point x="342.08" y="1359.1733333333" type="line"/>
			<point x="328.08" y="1356.8" type="line"/>
			<point x="924.68" y="-20" type="line"/>
			<point x="949.28" y="-20" type="line"/>
			<point x="1541.2266666667" y="1367.6133333333" type="line"/>
			<point x="1527.2266666667" y="1369.6133333333" type="line"/>
			<point x="1620.9733333333" y="51.5733333333" type="line"/>
			<point x="1438.84" y="18.3466666667" type="line"/>
			<point x="1438.84" y="0" type="line"/>
			<point x="1931.64" y="0" type="line"/>
			<point x="1931.64" y="18.3466666667" type="line"/>
		</contour>
	</outline>
	<anchor name="UCtop" x="973.9066666667" y="1430"/>
	<anchor name="bottom" x="943.16" y="0"/>
</glyph>
<glyph name="N" format="2">
	<unicode hex="004E"/>
	<advance width="1544.2133333333"/>
	<outline>
		<contour>
			<point x="249.24" y="51.5733333333" type="line"/>
			<point x="67.1066666667" y="18.3466666667" type="line"/>
			<point x="67.1066666667" y="0" type="line"/>
			<point x="481.6533333333" y="0" type="line"/>
			<point x="481.6533333333" y="18.3466666667" type="line"/>
			<point x="292.68" y="51.5733333333" type="line"/>
			<point x="292.68" y="1376.92" type="line"/>
			<point x="273.4533333333" y="1363.9866666667" type="line"/>
			<point x="1282.7466666667" y="-20" type="line"/>
			<point x="1308.2133333333" y="-20" type="line"/>
			<point x="1308.2133333333" y="1378.4266666667" type="line"/>
			<point x="1490.3466666667" y="1411.6533333333" type="line"/>
			<point x="1490.3466666667" y="1430" type="line"/>
			<point x="1075.8" y="1430" type="line"/>
			<point x="1075.8" y="1411.6533333333" type="line"/>
			<point x="1264.7733333333" y="1378.4266666667" type="line"/>
			<point x="1264.7733333333" y="53.7066666667" type="line"/>
			<point x="1293.96" y="170.0933333333" type="line"/>
			<point x="378.5333333333" y="1430" type="line"/>
			<point x="52.12" y="1430" type="line"/>
			<point x="52.12" y="1411.6533333333" type="line"/>
			<point x="249.24" y="1372.8266666667" type="line"/>
		</contour>
	</outline>
	<anchor name="UCtop" x="802.1066666667" y="1430"/>
	<anchor name="bottom" x="802.1066666667" y="0"/>
</glyph>
<glyph name="O" format="2">
	<unicode hex="004F"/>
	<advance width="1577.0666666667"/>
	<outline>
		<contour>
			<point x="780.8266666667" y="1450" type="curve" smooth="yes"/>
			<point x="384.6133333333" y="1450"/>
			<point x="96.5066666667" y="1141.6483401176"/>
			<point x="96.5066666667" y="714" type="curve" smooth="yes"/>
			<point x="96.5066666667" y="287.2327619048"/>
			<point x="394.3866666667" y="-20"/>
			<point x="796.9866666667" y="-20" type="curve" smooth="yes"/>
			<point x="1192.4533333333" y="-20"/>
			<point x="1480.56" y="288.3520793866"/>
			<point x="1480.56" y="716.7466666667" type="curve" smooth="yes"/>
			<point x="1480.56" y="1142.7676580264"/>
			<point x="1182.68" y="1450"/>
		</contour>
		<contour>
			<point x="796.72" y="16.72" type="curve" smooth="yes"/>
			<point x="465.6266666667" y="16.72"/>
			<point x="229.4266666667" y="284.8508148148"/>
			<point x="229.4266666667" y="734.4666666667" type="curve" smooth="yes"/>
			<point x="229.4266666667" y="1137.2376661593"/>
			<point x="434.48" y="1413.6533333333"/>
			<point x="780.3466666667" y="1413.6533333333" type="curve" smooth="yes"/>
			<point x="1110.6933333333" y="1413.6533333333"/>
			<point x="1347.2666666667" y="1145.1495145631"/>
			<point x="1347.2666666667" y="695.5333333333" type="curve" smooth="yes"/>
			<point x="1347.2666666667" y="293.1354471545"/>
			<point x="1142.2133333333" y="16.72"/>
		</contour>
	</outline>
	<anchor name="UCtop" x="788.72" y="1430"/>
	<anchor name="bottom" x="788.72" y="0"/>
	<anchor name="horn" x="1139.52" y="1430"/>
	<anchor name="right" x="957.68" y="0"/>
</glyph>
<glyph name="P" format="2">
	<unicode hex="0050"/>
	<advance width="1200.2"/>
	<outline>
		<contour>
			<point x="1021.28" y="1043.2666666667" type="curve" smooth="yes"/>
			<point x="1021.28" y="824.64"/>
			<point x="884.5733333333" y="698.1066666667"/>
			<point x="577.2933333333" y="698.1066666667" type="curve" smooth="yes"/>
			<point x="291.5466666667" y="698.1066666667" type="line"/>
			<point x="291.5466666667" y="656.9066666667" type="line"/>
			<point x="640.96" y="656.9066666667" type="line" smooth="yes"/>
			<point x="1007.9733333333" y="656.9066666667"/>
			<point x="1151.0666666667" y="830.88"/>
			<point x="1151.0666666667" y="1048.12" type="curve" smooth="yes"/>
			<point x="1151.0666666667" y="1262.7466666667"/>
			<point x="1009.96" y="1430"/>
			<point x="640.3333333333" y="1430" type="curve" smooth="yes"/>
			<point x="298.44" y="1430" type="line"/>
			<point x="291.5466666667" y="1388.8" type="line"/>
			<point x="528.76" y="1388.8" type="line" smooth="yes"/>
			<point x="895.7733333333" y="1388.8"/>
			<point x="1021.28" y="1260.4"/>
		</contour>
		<contour>
			<point x="372.7866666667" y="1430" type="line"/>
			<point x="63.6133333333" y="1430" type="line"/>
			<point x="63.6133333333" y="1411.6533333333" type="line"/>
			<point x="245.12" y="1378.8" type="line"/>
			<point x="245.12" y="51.5733333333" type="line"/>
			<point x="62.9866666667" y="18.3466666667" type="line"/>
			<point x="62.9866666667" y="0" type="line"/>
			<point x="554.2933333333" y="0" type="line"/>
			<point x="554.2933333333" y="18.3466666667" type="line"/>
			<point x="372.7866666667" y="51.5733333333" type="line"/>
		</contour>
	</outline>
	<anchor name="UCtop" x="645.8266666667" y="1430"/>
	<anchor name="bottom" x="309.2666666667" y="0"/>
</glyph>
<glyph name="Q" format="2">
	<unicode hex="0051"/>
	<advance width="1577.0666666667"/>
	<outline>
		<contour>
			<point x="1090.9866666667" y="-337.0666666667" type="line" smooth="yes"/>
			<point x="1221.8666666667" y="-420.0533333333"/>
			<point x="1297.48" y="-465"/>
			<point x="1430.64" y="-465" type="curve" smooth="yes"/>
			<point x="1498.3333333333" y="-465"/>
			<point x="1577.1733333333" y="-453.3866666667"/>
			<point x="1672.7733333333" y="-425.1866666667" type="curve"/>
			<point x="1672.7733333333" y="-401.2266666667" type="line"/>
			<point x="1521.96" y="-422.72"/>
			<point x="1430.52" y="-400.6933333333"/>
			<point x="1222.64" y="-283.6266666667" type="curve" smooth="yes"/>
			<point x="694.3066666667" y="16.64" type="line"/>
			<point x="699.5733333333" y="-3.88" type="line"/>
			<point x="1148.8666666667" y="-75.44"/>
			<point x="1480.56" y="262.2933333333"/>
			<point x="1480.56" y="716.7466666667" type="curve" smooth="yes"/>
			<point x="1480.56" y="1142.6133333333"/>
			<point x="1182.68" y="1450"/>
			<point x="780.8266666667" y="1450" type="curve" smooth="yes"/>
			<point x="384.6133333333" y="1450"/>
			<point x="96.5066666667" y="1141.4933333333"/>
			<point x="96.5066666667" y="714" type="curve" smooth="yes"/>
			<point x="96.5066666667" y="418.6133333333"/>
			<point x="231.7866666667" y="204.4533333333"/>
			<point x="450.16" y="66.1066666667" type="curve" smooth="yes"/>
		</contour>
		<contour>
			<point x="796.72" y="16.0933333333" type="curve" smooth="yes"/>
			<point x="465.6266666667" y="16.0933333333"/>
			<point x="229.4266666667" y="284.36"/>
			<point x="229.4266666667" y="734.4666666667" type="curve" smooth="yes"/>
			<point x="229.4266666667" y="1137.0933333333"/>
			<point x="433.8533333333" y="1414.9066666667"/>
			<point x="779.72" y="1414.9066666667" type="curve" smooth="yes"/>
			<point x="1110.0666666667" y="1414.9066666667"/>
			<point x="1346.64" y="1145.64"/>
			<point x="1346.64" y="695.5333333333" type="curve" smooth="yes"/>
			<point x="1346.64" y="293.28"/>
			<point x="1142.84" y="16.0933333333"/>
		</contour>
	</outline>
	<anchor name="UCtop" x="788.72" y="1430"/>
	<anchor name="bottom" x="788.72" y="-444"/>
</glyph>
<glyph name="R" format="2">
	<unicode hex="0052"/>
	<advance width="1293.9866666667"/>
	<outline>
		<contour>
			<point x="583.3866666667" y="758.6" type="curve" smooth="yes"/>
			<point x="285.6" y="758.6" type="line"/>
			<point x="285.6" y="720.3866666667" type="line"/>
			<point x="620.2266666667" y="720.3866666667" type="line" smooth="yes"/>
			<point x="716.12" y="720.3866666667"/>
			<point x="758.2533333333" y="686.3866666667"/>
			<point x="836.2666666667" y="519.4666666667" type="curve" smooth="yes"/>
			<point x="991.08" y="190.56" type="line" smooth="yes"/>
			<point x="1080.72" y="-0.8666666667"/>
			<point x="1114.3866666667" y="-16.36"/>
			<point x="1336.6133333333" y="0" type="curve"/>
			<point x="1336.6133333333" y="24.3466666667" type="line"/>
			<point x="1223.3600631778" y="23.3466672209"/>
			<point x="1197.6376386223" y="42.8409550841"/>
			<point x="1122.9066666667" y="199.8266666667" type="curve" smooth="yes"/>
			<point x="970.92" y="519.8266666667" type="line" smooth="yes"/>
			<point x="892.0266666667" y="686.88"/>
			<point x="830.2933333333" y="740.5066666667"/>
			<point x="652.3066666667" y="741.2533333333" type="curve"/>
			<point x="652.3066666667" y="737.6266666667" type="line"/>
			<point x="913.9866666667" y="758.64"/>
			<point x="1055.72" y="902.6133333333"/>
			<point x="1055.72" y="1083.6266666667" type="curve" smooth="yes"/>
			<point x="1055.72" y="1280.24"/>
			<point x="924.2266666667" y="1430"/>
			<point x="554.68" y="1430" type="curve" smooth="yes"/>
			<point x="285.6" y="1430" type="line"/>
			<point x="285.6" y="1391.7866666667" type="line"/>
			<point x="471.8933333333" y="1391.7866666667" type="line" smooth="yes"/>
			<point x="806.52" y="1391.7866666667"/>
			<point x="922.1733333333" y="1274.4"/>
			<point x="922.1733333333" y="1081.6266666667" type="curve" smooth="yes"/>
			<point x="922.1733333333" y="868.1066666667"/>
			<point x="786.0133333333" y="758.6"/>
		</contour>
		<contour>
			<point x="372.7866666667" y="1430" type="line"/>
			<point x="63.6133333333" y="1430" type="line"/>
			<point x="63.6133333333" y="1411.6533333333" type="line"/>
			<point x="245.12" y="1378.8" type="line"/>
			<point x="245.12" y="51.5733333333" type="line"/>
			<point x="62.9866666667" y="18.3466666667" type="line"/>
			<point x="62.9866666667" y="0" type="line"/>
			<point x="554.2933333333" y="0" type="line"/>
			<point x="554.2933333333" y="18.3466666667" type="line"/>
			<point x="372.7866666667" y="51.5733333333" type="line"/>
		</contour>
	</outline>
	<anchor name="UCtop" x="606.2533333333" y="1430"/>
	<anchor name="bottom" x="738.7866666667" y="0"/>
</glyph>
<glyph name="S" format="2">
	<unicode hex="0053"/>
	<advance width="1069.36"/>
	<outline>
		<contour>
			<point x="838.16" y="1374.9066666667" type="line"/>
			<point x="735.68" y="1429.0133333333"/>
			<point x="648.84" y="1450.3733333333"/>
			<point x="540.3866666667" y="1450.3733333333" type="curve" smooth="yes"/>
			<point x="290.96" y="1450.3733333333"/>
			<point x="136.0133333333" y="1311.7733333333"/>
			<point x="136.0133333333" y="1103.6" type="curve" smooth="yes"/>
			<point x="136.0133333333" y="914.4266666667"/>
			<point x="241.7466666667" y="809.48"/>
			<point x="497.3066666667" y="714.04" type="curve" smooth="yes"/>
			<point x="752.8666666667" y="618.6"/>
			<point x="881.88" y="533.0266666667"/>
			<point x="881.88" y="345.9066666667" type="curve" smooth="yes"/>
			<point x="881.88" y="132.7466666667"/>
			<point x="715.8133333333" y="11.2266666667"/>
			<point x="484.4533333333" y="11.2266666667" type="curve" smooth="yes"/>
			<point x="373.1733333333" y="11.2266666667"/>
			<point x="279.3866666667" y="42.7066666667"/>
			<point x="192.2" y="96.4266666667" type="curve"/>
			<point x="296.32" y="13.1066666667" type="line"/>
			<point x="104.9866666667" y="397.3066666667" type="line"/>
			<point x="82.2533333333" y="397.3066666667" type="line"/>
			<point x="161.36" y="40.4933333333" type="line"/>
			<point x="265.2133333333" y="-2.12"/>
			<point x="359.3333333333" y="-20.3733333333"/>
			<point x="487.1866666667" y="-20.3733333333" type="curve" smooth="yes"/>
			<point x="763.1733333333" y="-20.3733333333"/>
			<point x="972.8666666667" y="148.4666666667"/>
			<point x="972.8666666667" y="401.44" type="curve" smooth="yes"/>
			<point x="972.8666666667" y="620.12"/>
			<point x="847.08" y="732.1866666667"/>
			<point x="592.9066666667" y="822.6266666667" type="curve" smooth="yes"/>
			<point x="338.7333333333" y="913.0666666667"/>
			<point x="222.2666666667" y="992.4"/>
			<point x="222.2666666667" y="1160.3466666667" type="curve" smooth="yes"/>
			<point x="222.2666666667" y="1313.0133333333"/>
			<point x="320.44" y="1415.2933333333"/>
			<point x="503.5866666667" y="1415.2933333333" type="curve" smooth="yes"/>
			<point x="620.2133333333" y="1415.2933333333"/>
			<point x="722.32" y="1369.8133333333"/>
			<point x="829.0133333333" y="1259.5866666667" type="curve"/>
			<point x="759.9733333333" y="1348.0133333333" type="line"/>
			<point x="905.5066666667" y="1025.52" type="line"/>
			<point x="924.4933333333" y="1028.2666666667" type="line"/>
			<point x="858.6" y="1480.8666666667" type="line"/>
			<point x="849.12" y="1480.8666666667" type="line"/>
			<point x="780.72" y="1385.7333333333" type="line"/>
		</contour>
	</outline>
	<anchor name="UCtop" x="518.16" y="1430"/>
	<anchor name="bottom" x="538.84" y="0"/>
</glyph>
<glyph name="T" format="2">
	<unicode hex="0054"/>
	<advance width="1364.2933333333"/>
	<outline>
		<contour>
			<point x="618" y="1410.0266666667" type="line"/>
			<point x="618" y="51.5733333333" type="line"/>
			<point x="435.8666666667" y="18.3466666667" type="line"/>
			<point x="435.8666666667" y="0" type="line"/>
			<point x="927.1733333333" y="0" type="line"/>
			<point x="927.1733333333" y="18.3466666667" type="line"/>
			<point x="745.6666666667" y="51.5733333333" type="line"/>
			<point x="745.6666666667" y="1410.0266666667" type="line"/>
		</contour>
		<contour>
			<point x="1225.84" y="1388.8" type="line"/>
			<point x="1156.7066666667" y="1407.8" type="line"/>
			<point x="1300.1866666667" y="1025.6" type="line"/>
			<point x="1322.2933333333" y="1030.0933333333" type="line"/>
			<point x="1267.44" y="1499.8666666667" type="line"/>
			<point x="1256.96" y="1499.8666666667" type="line"/>
			<point x="1155.7066666667" y="1419.0133333333" type="line"/>
			<point x="1200.5866666667" y="1430" type="line"/>
			<point x="163.7066666667" y="1430" type="line"/>
			<point x="208.5866666667" y="1419.0133333333" type="line"/>
			<point x="107.3333333333" y="1499.8666666667" type="line"/>
			<point x="96.8533333333" y="1499.8666666667" type="line"/>
			<point x="42" y="1030.0933333333" type="line"/>
			<point x="64.1066666667" y="1025.6" type="line"/>
			<point x="207.5866666667" y="1407.8" type="line"/>
			<point x="138.4533333333" y="1388.8" type="line"/>
		</contour>
	</outline>
	<anchor name="UCtop" x="682.1466666667" y="1430"/>
	<anchor name="bottom" x="682.1466666667" y="0"/>
</glyph>
<glyph name="U" format="2">
	<unicode hex="0055"/>
	<advance width="1533.5066666667"/>
	<outline>
		<contour>
			<point x="1272.1866666667" y="553.1066666667" type="line" smooth="yes"/>
			<point x="1272.1866666667" y="216.04"/>
			<point x="1111.5466666667" y="53.5066666667"/>
			<point x="805.36" y="53.5066666667" type="curve" smooth="yes"/>
			<point x="497.5733333333" y="53.5066666667"/>
			<point x="342.8" y="236.4666666667"/>
			<point x="342.8" y="574.4133333333" type="curve" smooth="yes"/>
			<point x="342.8" y="1378.8" type="line"/>
			<point x="524.3066666667" y="1411.6533333333" type="line"/>
			<point x="524.3066666667" y="1430" type="line"/>
			<point x="33" y="1430" type="line"/>
			<point x="33" y="1411.6533333333" type="line"/>
			<point x="215.1333333333" y="1378.8" type="line"/>
			<point x="215.1333333333" y="578.7466666667" type="line" smooth="yes"/>
			<point x="215.1333333333" y="176.7259900166"/>
			<point x="414.7333333333" y="-20.6266666667"/>
			<point x="771.9333333333" y="-20.6266666667" type="curve" smooth="yes"/>
			<point x="1113.1333333333" y="-20.6266666667"/>
			<point x="1315.6266666667" y="166.3182978723"/>
			<point x="1315.6266666667" y="546.76" type="curve" smooth="yes"/>
			<point x="1315.6266666667" y="1378.4266666667" type="line"/>
			<point x="1497.1333333333" y="1411.6533333333" type="line"/>
			<point x="1497.1333333333" y="1430" type="line"/>
			<point x="1081.3333333333" y="1430" type="line"/>
			<point x="1081.3333333333" y="1411.6533333333" type="line"/>
			<point x="1272.1866666667" y="1378.4266666667" type="line"/>
		</contour>
	</outline>
	<anchor name="UCtop" x="807.5466666667" y="1430"/>
	<anchor name="right" x="954.0533333333" y="0"/>
	<anchor name="bottom" x="807.5466666667" y="0"/>
	<anchor name="horn" x="1381.52" y="1428"/>
</glyph>
<glyph name="V" format="2">
	<unicode hex="0056"/>
	<advance width="1404.2266666667"/>
	<outline>
		<contour>
			<point x="143.7066666667" y="1375.5466666667" type="line"/>
			<point x="707.7066666667" y="-20.6266666667" type="line"/>
			<point x="735.68" y="-20.6266666667" type="line"/>
			<point x="1246.5466666667" y="1372.56" type="line"/>
			<point x="1419.6" y="1409.1466666667" type="line"/>
			<point x="1419.6" y="1430" type="line"/>
			<point x="1013.7333333333" y="1430" type="line"/>
			<point x="1013.7333333333" y="1409.1466666667" type="line"/>
			<point x="1199.9733333333" y="1373.68" type="line"/>
			<point x="752" y="135.2533333333" type="line"/>
			<point x="768.2266666667" y="135.2533333333" type="line"/>
			<point x="275.48" y="1376.2933333333" type="line"/>
			<point x="458.7333333333" y="1409.1466666667" type="line"/>
			<point x="458.7333333333" y="1430" type="line"/>
			<point x="-29.84" y="1430" type="line"/>
			<point x="-29.84" y="1409.1466666667" type="line"/>
		</contour>
	</outline>
	<anchor name="UCtop" x="748.72" y="1430"/>
	<anchor name="bottom" x="726.08" y="0"/>
</glyph>
<glyph name="W" format="2">
	<unicode hex="0057"/>
	<advance width="1999.04"/>
	<outline>
		<contour>
			<point x="1025.6533333333" y="1322" type="line"/>
			<point x="983.12" y="1302.2133333333" type="line"/>
			<point x="1458.6" y="-20" type="line"/>
			<point x="1486.5733333333" y="-20" type="line"/>
			<point x="1841.6" y="1373.1866666667" type="line"/>
			<point x="2014.6533333333" y="1409.7733333333" type="line"/>
			<point x="2014.6533333333" y="1430" type="line"/>
			<point x="1608.16" y="1430" type="line"/>
			<point x="1608.16" y="1409.7733333333" type="line"/>
			<point x="1794.4" y="1374.3066666667" type="line"/>
			<point x="1494.6533333333" y="145.9066666667" type="line"/>
			<point x="1521.24" y="145.9066666667" type="line"/>
			<point x="1057.9866666667" y="1450.6266666667" type="line"/>
			<point x="1026.5333333333" y="1450.6266666667" type="line"/>
			<point x="564.72" y="143.4" type="line"/>
			<point x="595.4133333333" y="143.4" type="line"/>
			<point x="283.9733333333" y="1376.92" type="line"/>
			<point x="466.6" y="1409.7733333333" type="line"/>
			<point x="466.6" y="1430" type="line"/>
			<point x="-18.3466666667" y="1430" type="line"/>
			<point x="-18.3466666667" y="1409.7733333333" type="line"/>
			<point x="155.2" y="1376.1733333333" type="line"/>
			<point x="519.1733333333" y="-20" type="line"/>
			<point x="547.1466666667" y="-20" type="line"/>
		</contour>
	</outline>
	<anchor name="UCtop" x="1029.8666666667" y="1430"/>
	<anchor name="bottom" x="1023.6" y="0"/>
</glyph>
<glyph name="X" format="2">
  <advance width="1434.8133333333333"/>
  <unicode hex="0058"/>
  <anchor x="749.08" y="1430.0" name="UCtop"/>
  <anchor x="707.88" y="0.0" name="bottom"/>
  <outline>
    <contour>
      <point x="713.0" y="714.56" type="line"/>
      <point x="740.0533333333334" y="734.72" type="line"/>
      <point x="1224.5733333333333" y="1372.56" type="line"/>
      <point x="1390.7333333333331" y="1411.6533333333334" type="line"/>
      <point x="1390.7333333333331" y="1430.0" type="line"/>
      <point x="987.8933333333333" y="1430.0" type="line"/>
      <point x="987.8933333333333" y="1411.6533333333334" type="line"/>
      <point x="1173.5066666666667" y="1373.68" type="line"/>
      <point x="716.84" y="770.8266666666667" type="line"/>
      <point x="690.5333333333333" y="751.4133333333333" type="line"/>
      <point x="161.02666666666664" y="57.440000000000005" type="line"/>
      <point x="-5.133333333333334" y="18.346666666666664" type="line"/>
      <point x="-5.133333333333334" y="0.0" type="line"/>
      <point x="398.3333333333333" y="0.0" type="line"/>
      <point x="398.3333333333333" y="18.346666666666664" type="line"/>
      <point x="212.09333333333333" y="56.32" type="line"/>
    </contour>
    <contour>
      <point x="1137.0" y="53.70666666666667" type="line"/>
      <point x="953.7466666666667" y="18.346666666666664" type="line"/>
      <point x="953.7466666666667" y="0.0" type="line"/>
      <point x="1442.9199999999998" y="0.0" type="line"/>
      <point x="1442.9199999999998" y="18.346666666666664" type="line"/>
      <point x="1276.2666666666667" y="54.45333333333333" type="line"/>
      <point x="759.7866666666666" y="786.7733333333333" type="line"/>
      <point x="749.2933333333334" y="800.3866666666667" type="line"/>
      <point x="342.5466666666666" y="1376.2933333333333" type="line"/>
      <point x="525.8" y="1411.6533333333334" type="line"/>
      <point x="525.8" y="1430.0" type="line"/>
      <point x="36.626666666666665" y="1430.0" type="line"/>
      <point x="36.626666666666665" y="1411.6533333333334" type="line"/>
      <point x="203.28" y="1375.5466666666666" type="line"/>
      <point x="671.2933333333333" y="712.1733333333333" type="line"/>
      <point x="683.9066666666666" y="695.32" type="line"/>
    </contour>
  </outline>
</glyph>
<glyph name="Y" format="2">
	<unicode hex="0059"/>
	<advance width="1386.8666666667"/>
	<outline>
		<contour>
			<point x="154.8133333333" y="1378.0533333333" type="line"/>
			<point x="649.8533333333" y="635.0666666667" type="line"/>
			<point x="649.8533333333" y="51.5733333333" type="line"/>
			<point x="467.72" y="18.3466666667" type="line"/>
			<point x="467.72" y="0" type="line"/>
			<point x="959.0266666667" y="0" type="line"/>
			<point x="959.0266666667" y="18.3466666667" type="line"/>
			<point x="777.52" y="51.5733333333" type="line"/>
			<point x="777.52" y="635.5733333333" type="line"/>
			<point x="1210.1733333333" y="1375.0666666667" type="line"/>
			<point x="1383.2266666667" y="1411.6533333333" type="line"/>
			<point x="1383.2266666667" y="1430" type="line"/>
			<point x="980.1066666667" y="1430" type="line"/>
			<point x="980.1066666667" y="1411.6533333333" type="line"/>
			<point x="1166.3466666667" y="1376.1866666667" type="line"/>
			<point x="751.0533333333" y="659.3066666667" type="line"/>
			<point x="775.2666666667" y="659.9333333333" type="line"/>
			<point x="300.8533333333" y="1378.8" type="line"/>
			<point x="484.9733333333" y="1411.6533333333" type="line"/>
			<point x="484.9733333333" y="1430" type="line"/>
			<point x="-18.7333333333" y="1430" type="line"/>
			<point x="-18.7333333333" y="1411.6533333333" type="line"/>
		</contour>
	</outline>
	<anchor name="UCtop" x="725.48" y="1430"/>
	<anchor name="bottom" x="714" y="0"/>
</glyph>
<glyph name="Z" format="2">
	<unicode hex="005A"/>
	<advance width="1255.76"/>
	<outline>
		<contour>
			<point x="1130.4666666667" y="1430" type="line"/>
			<point x="250.4933333333" y="1430" type="line"/>
			<point x="151.8666666667" y="1488.6133333333" type="line"/>
			<point x="143.2533333333" y="1488.6133333333" type="line"/>
			<point x="63.6266666667" y="1045.5333333333" type="line"/>
			<point x="82.8666666667" y="1041.7866666667" type="line"/>
			<point x="253.3733333333" y="1388.8" type="line"/>
			<point x="1071" y="1388.8" type="line"/>
			<point x="990.8" y="1406.3733333333" type="line"/>
			<point x="109.1466666667" y="14.1333333333" type="line"/>
			<point x="109.1466666667" y="0" type="line"/>
			<point x="1029.7866666667" y="0" type="line"/>
			<point x="1123.5466666667" y="-45.1066666667" type="line"/>
			<point x="1134.9066666667" y="-45.1066666667" type="line"/>
			<point x="1209.9066666667" y="370.4266666667" type="line"/>
			<point x="1189.1733333333" y="374.8" type="line"/>
			<point x="1019.8" y="41.2" type="line"/>
			<point x="223.48" y="41.2" type="line"/>
			<point x="246.4266666667" y="23.4933333333" type="line"/>
			<point x="1130.4666666667" y="1415.4933333333" type="line"/>
		</contour>
	</outline>
	<anchor name="UCtop" x="650.8133333333" y="1430"/>
	<anchor name="bottom" x="626.4266666667" y="0"/>
</glyph>
<glyph name="bracketleft" format="2">
	<unicode hex="005B"/>
	<advance width="542.8933333333"/>
	<outline>
		<contour>
			<point x="193.5066666667" y="-217.3333333333" type="line"/>
			<point x="517.3866666667" y="-217.3333333333" type="line"/>
			<point x="517.3866666667" y="-193.9733333333" type="line"/>
			<point x="289.76" y="-172.48" type="line"/>
			<point x="289.76" y="1419.7733333333" type="line"/>
			<point x="517.3866666667" y="1441.2666666667" type="line"/>
			<point x="517.3866666667" y="1464.6266666667" type="line"/>
			<point x="193.5066666667" y="1464.6266666667" type="line"/>
		</contour>
	</outline>
</glyph>
<glyph name="backslash" format="2">
  <advance width="778.3599999999999"/>
  <unicode hex="005C"/>
  <outline>
    <contour>
      <point x="720.1066666666666" y="0.0" type="line"/>
      <point x="123.10666666666665" y="1430.0" type="line"/>
      <point x="55.879999999999995" y="1430.0" type="line"/>
      <point x="652.88" y="0.0" type="line"/>
    </contour>
  </outline>
</glyph>
<glyph name="bracketright" format="2">
	<unicode hex="005D"/>
	<advance width="542.8933333333"/>
	<outline>
		<contour>
			<point x="349.3866666667" y="1463.3733333333" type="line"/>
			<point x="25.5066666667" y="1463.3733333333" type="line"/>
			<point x="25.5066666667" y="1440.0133333333" type="line"/>
			<point x="253.1333333333" y="1418.52" type="line"/>
			<point x="253.1333333333" y="-172.48" type="line"/>
			<point x="25.5066666667" y="-193.9733333333" type="line"/>
			<point x="25.5066666667" y="-217.3333333333" type="line"/>
			<point x="349.3866666667" y="-217.3333333333" type="line"/>
		</contour>
	</outline>
</glyph>
<glyph name="asciicircum" format="2">
	<unicode hex="005E"/>
	<advance width="1150"/>
	<outline>
		<contour>
			<point x="564.12" y="1386.4266666667" type="line"/>
			<point x="901.8933333333" y="662" type="line"/>
			<point x="958.8533333333" y="662" type="line"/>
			<point x="596.8533333333" y="1430" type="line"/>
			<point x="551.1466666667" y="1430" type="line"/>
			<point x="191.1466666667" y="662" type="line"/>
			<point x="248.1066666667" y="662" type="line"/>
			<point x="582.2533333333" y="1386.4266666667" type="line"/>
		</contour>
	</outline>
</glyph>
<glyph name="a" format="2">
	<unicode hex="0061"/>
	<advance width="997.9466666667"/>
	<outline>
		<contour>
			<point x="720.6666666667" y="662.8666666667" type="line"/>
			<point x="159.8533333333" y="487.3733333333"/>
			<point x="88.0133333333" y="409.8666666667"/>
			<point x="88.0133333333" y="242.3866666667" type="curve" smooth="yes"/>
			<point x="88.0133333333" y="71.88"/>
			<point x="201.36" y="-20"/>
			<point x="375.5066666667" y="-20" type="curve" smooth="yes"/>
			<point x="520.5466666667" y="-20"/>
			<point x="643.8533333333" y="73.3733333333"/>
			<point x="679.1066666667" y="244.36" type="curve"/>
			<point x="672.9733333333" y="240.6" type="line"/>
			<point x="665.44" y="41.9466666667"/>
			<point x="711.72" y="-18.7466666667"/>
			<point x="821.9466666667" y="-18.7466666667" type="curve" smooth="yes"/>
			<point x="890.6666666667" y="-18.7466666667"/>
			<point x="945.88" y="8.6533333333"/>
			<point x="1014.8" y="80.5333333333" type="curve"/>
			<point x="1014.8" y="99.3866666667" type="line"/>
			<point x="962.4133333333" y="67.64"/>
			<point x="931.5733333333" y="59.28"/>
			<point x="886.5733333333" y="59.28" type="curve" smooth="yes"/>
			<point x="834.44" y="59.28"/>
			<point x="791.04" y="84.9066666667"/>
			<point x="791.04" y="169.7066666667" type="curve" smooth="yes"/>
			<point x="791.04" y="757.6933333333" type="line" smooth="yes"/>
			<point x="791.04" y="929.2266666667"/>
			<point x="720.08" y="1042.12"/>
			<point x="492.5733333333" y="1042.12" type="curve" smooth="yes"/>
			<point x="339.2666666667" y="1042.12"/>
			<point x="89.7466666667" y="930.1466666667"/>
			<point x="89.7466666667" y="831.3066666667" type="curve" smooth="yes"/>
			<point x="89.7466666667" y="800.5866666667"/>
			<point x="111.9733333333" y="785.0933333333"/>
			<point x="149.9466666667" y="785.0933333333" type="curve" smooth="yes"/>
			<point x="178.1733333333" y="785.0933333333"/>
			<point x="209.4" y="795.5866666667"/>
			<point x="223.8933333333" y="812.8266666667" type="curve" smooth="yes"/>
			<point x="241.7466666667" y="834.1733333333"/>
			<point x="256.12" y="901.6133333333"/>
			<point x="265" y="973.1066666667" type="curve"/>
			<point x="204.48" y="935.6133333333" type="line"/>
			<point x="282.84" y="970.28"/>
			<point x="362.1066666667" y="987.1733333333"/>
			<point x="443.1466666667" y="987.1733333333" type="curve" smooth="yes"/>
			<point x="605.84" y="987.1733333333"/>
			<point x="674.0933333333" y="898.2533333333"/>
			<point x="674.0933333333" y="744.3333333333" type="curve" smooth="yes"/>
			<point x="674.0933333333" y="301" type="line" smooth="yes"/>
			<point x="674.0933333333" y="151.8133333333"/>
			<point x="555.9866666667" y="60.2533333333"/>
			<point x="413.4133333333" y="60.2533333333" type="curve" smooth="yes"/>
			<point x="292.3466666667" y="60.2533333333"/>
			<point x="210.7066666667" y="136.4266666667"/>
			<point x="210.7066666667" y="261.4533333333" type="curve" smooth="yes"/>
			<point x="210.7066666667" y="398.0666666667"/>
			<point x="264.8" y="488.4533333333"/>
			<point x="724.7733333333" y="632.1466666667" type="curve"/>
		</contour>
	</outline>
	<anchor name="top" x="446.0533333333" y="1024"/>
	<anchor name="right" x="1014.8" y="0"/>
	<anchor name="bottom" x="466.7333333333" y="0"/>
</glyph>
<glyph name="b" format="2">
  <advance width="1122"/>
  <unicode hex="0062"/>
  <anchor x="600.3199999999999" y="1430.0" name="UCtop"/>
  <anchor x="566.5866666666666" y="0.0" name="bottom"/>
  <outline>
    <contour>
      <point x="178.06666666666666" y="105.49333333333334" type="line"/>
      <point x="263.16" y="18.16"/>
      <point x="387.4" y="-20.0"/>
      <point x="520.6933333333334" y="-20.0" type="curve" smooth="yes"/>
      <point x="810.36" y="-20.0"/>
      <point x="1044.1333333333332" y="195.0"/>
      <point x="1044.1333333333332" y="563.88" type="curve" smooth="yes"/>
      <point x="1044.1333333333332" y="859.1466666666666"/>
      <point x="886.88" y="1044.0"/>
      <point x="626.1333333333333" y="1044.0" type="curve" smooth="yes"/>
      <point x="527.4133333333333" y="1044.0"/>
      <point x="415.3066666666667" y="998.6533333333333"/>
      <point x="199.45333333333335" y="826.2" type="curve"/>
      <point x="212.57333333333332" y="817.48" type="line"/>
      <point x="373.64000000000004" y="922.5066666666667"/>
      <point x="461.12" y="950.24"/>
      <point x="568.48" y="950.24" type="curve" smooth="yes"/>
      <point x="787.0" y="950.24"/>
      <point x="920.2" y="791.8133333333333"/>
      <point x="920.2" y="505.81333333333333" type="curve" smooth="yes"/>
      <point x="920.2" y="210.93333333333334"/>
      <point x="776.24" y="13.586666666666666"/>
      <point x="538.2533333333333" y="13.586666666666666" type="curve" smooth="yes"/>
      <point x="362.15999999999997" y="13.586666666666666"/>
      <point x="268.2" y="128.89333333333335"/>
      <point x="268.2" y="250.49333333333334" type="curve" smooth="yes"/>
      <point x="268.2" y="1355.3466666666666" type="line"/>
      <point x="273.05333333333334" y="1484.0" type="line"/>
      <point x="263.93333333333334" y="1484.0" type="line"/>
      <point x="-28.560000000000002" y="1426.2933333333333" type="line"/>
      <point x="-28.560000000000002" y="1411.2933333333333" type="line"/>
      <point x="49.44" y="1382.287147766323"/>
      <point x="125.25333333333334" y="1357.5487285223367"/>
      <point x="151.25333333333333" y="1347.88" type="curve"/>
      <point x="151.25333333333333" y="194.29333333333335" type="line"/>
      <point x="115.01333333333332" y="-34.89333333333334" type="line"/>
      <point x="125.50666666666667" y="-37.50666666666667" type="line"/>
      <point x="259.70666666666665" y="115.32000000000001" type="line"/>
    </contour>
  </outline>
</glyph>
<glyph name="c" format="2">
	<unicode hex="0063"/>
	<advance width="937.36"/>
	<outline>
		<contour>
			<point x="588.9733333333" y="1044" type="curve" smooth="yes"/>
			<point x="277.9466666667" y="1044"/>
			<point x="78.1333333333" y="811.7466666667"/>
			<point x="78.1333333333" y="483.9733333333" type="curve" smooth="yes"/>
			<point x="78.1333333333" y="154.8666666667"/>
			<point x="257.6" y="-20"/>
			<point x="517.3733333333" y="-20" type="curve" smooth="yes"/>
			<point x="665.48" y="-20"/>
			<point x="762.68" y="41.1066666667"/>
			<point x="902.9866666667" y="231.3333333333" type="curve"/>
			<point x="891.12" y="241.08" type="line"/>
			<point x="781.6266666667" y="117.4933333333"/>
			<point x="685.0266666667" y="76"/>
			<point x="565.8666666667" y="76" type="curve" smooth="yes"/>
			<point x="327.4666666667" y="76"/>
			<point x="194.1866666667" y="241.2"/>
			<point x="194.1866666667" y="553.64" type="curve" smooth="yes"/>
			<point x="194.1866666667" y="844.1866666667"/>
			<point x="318.12" y="1001.0266666667"/>
			<point x="521.1466666667" y="1001.0266666667" type="curve" smooth="yes"/>
			<point x="667.5733333333" y="1001.0266666667"/>
			<point x="764.5466666667" y="834.9733333333"/>
			<point x="791.5466666667" y="834.9733333333" type="curve" smooth="yes"/>
			<point x="833.24" y="834.9733333333"/>
			<point x="862.2133333333" y="866.08"/>
			<point x="862.2133333333" y="907.7733333333" type="curve" smooth="yes"/>
			<point x="862.2133333333" y="977.6266666667"/>
			<point x="772.8266666667" y="1044"/>
		</contour>
	</outline>
	<anchor name="top" x="518.9733333333" y="1024"/>
	<anchor name="right" x="804.6" y="0"/>
	<anchor name="bottom" x="529.6266666667" y="0"/>
</glyph>
<glyph name="e" format="2">
  <advance width="974"/>
  <unicode hex="0065"/>
  <anchor x="516.4666666666667" y="1024.0" name="top"/>
  <anchor x="926.84" y="0.0" name="right"/>
  <anchor x="529.0" y="0.0" name="bottom"/>
  <outline>
    <contour>
      <point x="546.48" y="1044.0" type="curve" smooth="yes"/>
      <point x="249.12" y="1044.0"/>
      <point x="78.13333333333334" y="792.88"/>
      <point x="78.13333333333334" y="499.64" type="curve" smooth="yes"/>
      <point x="78.13333333333334" y="154.86666666666665"/>
      <point x="261.4666666666667" y="-20.0"/>
      <point x="531.24" y="-20.0" type="curve" smooth="yes"/>
      <point x="685.3466666666667" y="-20.0"/>
      <point x="790.9333333333333" y="42.986666666666665"/>
      <point x="926.84" y="231.33333333333331" type="curve"/>
      <point x="913.9733333333334" y="241.07999999999998" type="line"/>
      <point x="806.8666666666666" y="117.49333333333333"/>
      <point x="709.4" y="76.0"/>
      <point x="581.2266666666667" y="76.0" type="curve" smooth="yes"/>
      <point x="333.82666666666665" y="76.0"/>
      <point x="194.18666666666667" y="238.69333333333336"/>
      <point x="194.18666666666667" y="575.5733333333334" type="curve" smooth="yes"/>
      <point x="194.18666666666667" y="838.9733333333334"/>
      <point x="297.4533333333333" y="1005.0266666666668"/>
      <point x="522.7466666666667" y="1005.0266666666668" type="curve" smooth="yes"/>
      <point x="670.3199999999999" y="1005.0266666666668"/>
      <point x="754.6266666666667" y="900.76"/>
      <point x="776.2533333333333" y="693.28" type="curve"/>
      <point x="816.0266666666666" y="717.6133333333333" type="line"/>
      <point x="182.56" y="717.6133333333333" type="line"/>
      <point x="182.56" y="680.92" type="line"/>
      <point x="896.5733333333334" y="680.92" type="line"/>
      <point x="884.2133333333334" y="898.2133333333334"/>
      <point x="760.24" y="1044.0"/>
    </contour>
  </outline>
</glyph>
<glyph name="f" format="2">
	<unicode hex="0066"/>
	<advance width="692.5733333333"/>
	<outline>
		<contour>
			<point x="278.6933333333" y="948.5866666667" type="line"/>
			<point x="679.3466666667" y="948.5866666667" type="line"/>
			<point x="691.5866666667" y="1024" type="line"/>
			<point x="267.36" y="1024" type="line"/>
			<point x="244.68" y="1028.3733333333" type="line"/>
			<point x="19.0933333333" y="988.2933333333" type="line"/>
			<point x="19.0933333333" y="967.5733333333" type="line"/>
			<point x="233.3066666667" y="940.8533333333" type="line"/>
		</contour>
		<contour>
			<point x="337.7466666667" y="38.8266666667" type="line"/>
			<point x="337.7466666667" y="1140.2533333333" type="line" smooth="yes"/>
			<point x="337.7466666667" y="1330.2266666667"/>
			<point x="417.96" y="1436.56"/>
			<point x="562.0533333333" y="1436.56" type="curve" smooth="yes"/>
			<point x="689.68" y="1436.56"/>
			<point x="779.8533333333" y="1317.1333333333"/>
			<point x="794.9466666667" y="1317.1333333333" type="curve" smooth="yes"/>
			<point x="835.5466666667" y="1317.1333333333"/>
			<point x="859.8933333333" y="1350.8533333333"/>
			<point x="859.8933333333" y="1385.0666666667" type="curve" smooth="yes"/>
			<point x="859.8933333333" y="1445.6666666667"/>
			<point x="783.76" y="1484"/>
			<point x="661.4533333333" y="1484" type="curve" smooth="yes"/>
			<point x="418.9066666667" y="1484"/>
			<point x="218.56" y="1325.84"/>
			<point x="218.56" y="1031.92" type="curve" smooth="yes"/>
			<point x="218.56" y="38.8266666667" type="line"/>
			<point x="71.8" y="16.3466666667" type="line"/>
			<point x="71.8" y="0" type="line"/>
			<point x="502" y="0" type="line"/>
			<point x="502" y="16.3466666667" type="line"/>
		</contour>
	</outline>
	<anchor name="UCtop" x="552.88" y="1430"/>
	<anchor name="bottom" x="278.4666666667" y="0"/>
</glyph>
<glyph name="g" format="2">
  <advance width="956.2133333333334"/>
  <unicode hex="0067"/>
  <anchor x="438.67999999999995" y="1024.0" name="top"/>
  <anchor x="466.2" y="-445.0" name="bottom"/>
  <outline>
    <contour>
      <point x="421.06666666666666" y="-465.0" type="curve" smooth="yes"/>
      <point x="758.3866666666667" y="-465.0"/>
      <point x="956.08" y="-327.32"/>
      <point x="956.08" y="-145.56" type="curve" smooth="yes"/>
      <point x="956.08" y="-8.120000000000005"/>
      <point x="848.64" y="74.37333333333333"/>
      <point x="544.2533333333333" y="106.38666666666667" type="curve" smooth="yes"/>
      <point x="262.26666666666665" y="136.53333333333333"/>
      <point x="215.89333333333332" y="176.81333333333333"/>
      <point x="215.89333333333332" y="254.81333333333336" type="curve" smooth="yes"/>
      <point x="215.89333333333332" y="306.21333333333337"/>
      <point x="251.90666666666667" y="355.96000000000004"/>
      <point x="366.70666666666665" y="375.49333333333334" type="curve"/>
      <point x="355.84" y="391.97333333333336" type="line"/>
      <point x="202.87337279374321" y="353.33244677434374"/>
      <point x="122.14666666666666" y="290.76846153846157"/>
      <point x="122.14666666666666" y="199.02666666666667" type="curve" smooth="yes"/>
      <point x="122.14666666666666" y="98.05333333333333"/>
      <point x="189.29333333333332" y="26.06666666666667"/>
      <point x="466.62666666666667" y="-2.9466666666666645" type="curve" smooth="yes"/>
      <point x="765.6133333333333" y="-31.21333333333333"/>
      <point x="862.2133333333334" y="-87.74666666666667"/>
      <point x="862.2133333333334" y="-193.96" type="curve" smooth="yes"/>
      <point x="862.2133333333334" y="-337.46409017713364"/>
      <point x="702.8237037037037" y="-432.9066666666667"/>
      <point x="435.76" y="-432.9066666666667" type="curve" smooth="yes"/>
      <point x="220.411974522293" y="-432.9066666666667"/>
      <point x="102.35999999999999" y="-352.7187993680884"/>
      <point x="102.35999999999999" y="-217.53333333333333" type="curve" smooth="yes"/>
      <point x="102.35999999999999" y="-104.61333333333333"/>
      <point x="190.90666666666664" y="-22.493333333333332"/>
      <point x="431.56" y="18.14666666666667" type="curve"/>
      <point x="458.50666666666666" y="43.66666666666667" type="line"/>
      <point x="381.48" y="31.133333333333333" type="line"/>
      <point x="124.18666666666667" y="-21.46666666666667"/>
      <point x="1.9866666666666664" y="-115.09333333333333"/>
      <point x="1.9866666666666664" y="-238.65333333333334" type="curve" smooth="yes"/>
      <point x="1.9866666666666664" y="-372.6666666666667"/>
      <point x="145.54666666666668" y="-465.0"/>
    </contour>
    <contour>
      <point x="440.96" y="364.0" type="curve" smooth="yes"/>
      <point x="647.6666666666667" y="364.0"/>
      <point x="800.0133333333333" y="508.88"/>
      <point x="800.0133333333333" y="712.4" type="curve" smooth="yes"/>
      <point x="800.0133333333333" y="907.52"/>
      <point x="640.7733333333334" y="1044.0"/>
      <point x="433.44" y="1044.0" type="curve" smooth="yes"/>
      <point x="230.09333333333333" y="1044.0"/>
      <point x="76.25333333333333" y="898.7466666666667"/>
      <point x="76.25333333333333" y="694.8533333333334" type="curve" smooth="yes"/>
      <point x="76.25333333333333" y="500.1066666666667"/>
      <point x="236.98666666666665" y="364.0"/>
    </contour>
    <contour>
      <point x="457.03999999999996" y="388.6" type="curve" smooth="yes"/>
      <point x="307.9733333333333" y="384.49333333333334"/>
      <point x="203.68" y="506.37333333333333"/>
      <point x="197.33333333333331" y="696.4133333333333" type="curve" smooth="yes"/>
      <point x="190.61333333333334" y="897.24"/>
      <point x="287.82666666666665" y="1014.92"/>
      <point x="417.36" y="1019.4" type="curve" smooth="yes"/>
      <point x="568.2933333333333" y="1023.5066666666667"/>
      <point x="671.4666666666666" y="904.24"/>
      <point x="678.56" y="712.3333333333334" type="curve" smooth="yes"/>
      <point x="686.0266666666666" y="511.1333333333334"/>
      <point x="589.4266666666667" y="394.5733333333333"/>
    </contour>
    <contour>
      <point x="531.9866666666667" y="1015.0266666666668" type="line"/>
      <point x="790.9333333333333" y="1000.4133333333333"/>
      <point x="816.1199999999999" y="930.3866666666667"/>
      <point x="872.8666666666667" y="930.3866666666667" type="curve" smooth="yes"/>
      <point x="917.36" y="930.3866666666667"/>
      <point x="953.0666666666667" y="964.48"/>
      <point x="953.0666666666667" y="1021.6666666666667" type="curve" smooth="yes"/>
      <point x="953.0666666666667" y="1047.76"/>
      <point x="942.08" y="1059.3733333333332"/>
      <point x="922.9599999999999" y="1059.3733333333332" type="curve" smooth="yes"/>
      <point x="869.1600000000001" y="1059.3733333333332"/>
      <point x="801.3733333333333" y="1010.2533333333333"/>
      <point x="498.5066666666667" y="1039.1333333333334" type="curve"/>
    </contour>
  </outline>
</glyph>
<glyph name="h" format="2">
  <advance width="1135"/>
  <unicode hex="0068"/>
  <anchor x="569.5466666666667" y="1430.0" name="UCtop"/>
  <anchor x="565.3066666666667" y="0.0" name="bottom"/>
  <anchor x="318.4266666666667" y="1200.1733333333334" name="center"/>
  <outline>
    <contour>
      <point x="699.0533333333333" y="16.346666666666668" type="line"/>
      <point x="699.0533333333333" y="0.0" type="line"/>
      <point x="1106.1333333333332" y="0.0" type="line"/>
      <point x="1106.1333333333332" y="16.346666666666668" type="line"/>
      <point x="961.2533333333333" y="38.82666666666667" type="line"/>
      <point x="961.2533333333333" y="715.7466666666667" type="line" smooth="yes"/>
      <point x="961.2533333333333" y="950.8933333333333"/>
      <point x="882.1333333333333" y="1044.0"/>
      <point x="676.7333333333333" y="1044.0" type="curve" smooth="yes"/>
      <point x="558.36" y="1044.0"/>
      <point x="468.96000000000004" y="1014.5066666666667"/>
      <point x="269.9866666666667" y="877.68" type="curve"/>
      <point x="274.84" y="860.44" type="line"/>
      <point x="357.52000000000004" y="911.12"/>
      <point x="486.46666666666664" y="952.1333333333333"/>
      <point x="605.88" y="952.1333333333333" type="curve" smooth="yes"/>
      <point x="778.1866666666667" y="952.1333333333333"/>
      <point x="844.3066666666666" y="885.3866666666667"/>
      <point x="844.3066666666666" y="686.84" type="curve" smooth="yes"/>
      <point x="844.3066666666666" y="38.82666666666667" type="line"/>
    </contour>
    <contour>
      <point x="437.4533333333333" y="0.0" type="line"/>
      <point x="437.4533333333333" y="16.346666666666668" type="line"/>
      <point x="293.2" y="38.82666666666667" type="line"/>
      <point x="293.2" y="1183.9866666666667" type="line"/>
      <point x="293.2" y="1484.0" type="line"/>
      <point x="286.6933333333333" y="1484.0" type="line"/>
      <point x="-6.173333333333334" y="1425.1733333333334" type="line"/>
      <point x="-6.173333333333334" y="1409.0533333333333" type="line"/>
      <point x="71.82666666666667" y="1384.7470250669364"/>
      <point x="150.25333333333333" y="1361.955436088799"/>
      <point x="176.25333333333333" y="1353.8533333333335" type="curve"/>
      <point x="176.25333333333333" y="38.82666666666667" type="line"/>
      <point x="29.493333333333336" y="16.346666666666668" type="line"/>
      <point x="29.493333333333336" y="0.0" type="line"/>
    </contour>
  </outline>
</glyph>
<glyph name="i" format="2">
	<unicode hex="0069"/>
	<advance width="490.96"/>
	<outline>
		<contour>
			<point x="242.9333333333" y="1284.72" type="curve" smooth="yes"/>
			<point x="303.7466666667" y="1284.72"/>
			<point x="339.2133333333" y="1332.6666666667"/>
			<point x="339.2133333333" y="1383.6133333333" type="curve" smooth="yes"/>
			<point x="339.2133333333" y="1434.1866666667"/>
			<point x="303.7466666667" y="1479.1466666667"/>
			<point x="242.9333333333" y="1479.1466666667" type="curve" smooth="yes"/>
			<point x="182.12" y="1479.1466666667"/>
			<point x="145.16" y="1434.1866666667"/>
			<point x="145.16" y="1383.6133333333" type="curve" smooth="yes"/>
			<point x="145.16" y="1332.6666666667"/>
			<point x="182.12" y="1284.72"/>
		</contour>
		<contour>
			<point x="312.7066666667" y="1055" type="line"/>
			<point x="306.2" y="1055" type="line"/>
			<point x="39.6" y="1003.48" type="line"/>
			<point x="39.6" y="987.36" type="line"/>
			<point x="100.6" y="965.1020922167"/>
			<point x="173.76" y="940.4807754847"/>
			<point x="195.76" y="932.4533333333" type="curve"/>
			<point x="195.76" y="38.8266666667" type="line"/>
			<point x="49" y="16.3466666667" type="line"/>
			<point x="49" y="0" type="line"/>
			<point x="456.96" y="0" type="line"/>
			<point x="456.96" y="16.3466666667" type="line"/>
			<point x="312.7066666667" y="38.8266666667" type="line"/>
			<point x="312.7066666667" y="937.7066666667" type="line"/>
		</contour>
	</outline>
	<anchor name="top" x="252.3066666667" y="1430"/>
	<anchor name="bottom" x="254.5466666667" y="0"/>
	<anchor name="right" x="385.9066666667" y="0"/>
</glyph>
<glyph name="j" format="2">
	<unicode hex="006A"/>
	<advance width="448.9733333333"/>
	<outline>
		<contour>
			<point x="232.32" y="1284.72" type="curve" smooth="yes"/>
			<point x="293.1333333333" y="1284.72"/>
			<point x="328.6" y="1332.6666666667"/>
			<point x="328.6" y="1383.6133333333" type="curve" smooth="yes"/>
			<point x="328.6" y="1434.1866666667"/>
			<point x="293.1333333333" y="1479.1466666667"/>
			<point x="232.32" y="1479.1466666667" type="curve" smooth="yes"/>
			<point x="171.5066666667" y="1479.1466666667"/>
			<point x="134.5466666667" y="1434.1866666667"/>
			<point x="134.5466666667" y="1383.6133333333" type="curve" smooth="yes"/>
			<point x="134.5466666667" y="1332.6666666667"/>
			<point x="171.5066666667" y="1284.72"/>
		</contour>
		<contour>
			<point x="185.52" y="932.4533333333" type="curve"/>
			<point x="185.52" y="-63.8266666667" type="line" smooth="yes"/>
			<point x="185.52" y="-226.4"/>
			<point x="176.5066666667" y="-254.6533333333"/>
			<point x="7.7733333333" y="-451.0133333333" type="curve"/>
			<point x="23.1333333333" y="-465" type="line"/>
			<point x="294.2266666667" y="-209.2133333333"/>
			<point x="302.4666666667" y="-173.2133333333"/>
			<point x="302.4666666667" y="-29.3733333333" type="curve" smooth="yes"/>
			<point x="302.4666666667" y="937.7066666667" type="line"/>
			<point x="302.4666666667" y="1055" type="line"/>
			<point x="295.96" y="1055" type="line"/>
			<point x="29.36" y="1003.48" type="line"/>
			<point x="29.36" y="987.36" type="line"/>
			<point x="90.36" y="965.1020922167"/>
			<point x="163.52" y="940.4807754847"/>
		</contour>
	</outline>
	<anchor name="top" x="238.7066666667" y="1430"/>
	<anchor name="bottom" x="201.16" y="-445"/>
</glyph>
<glyph name="k" format="2">
	<unicode hex="006B"/>
	<advance width="1088.7466666667"/>
	<outline>
		<contour>
			<point x="366.7466666667" y="577.7066666667" type="line"/>
			<point x="897.2666666667" y="981.8133333333" type="line"/>
			<point x="1041.76" y="1005.4133333333" type="line"/>
			<point x="1041.76" y="1024" type="line"/>
			<point x="687.2133333333" y="1024" type="line"/>
			<point x="687.2133333333" y="1005.4133333333" type="line"/>
			<point x="836.72" y="982.56" type="line"/>
			<point x="308.0666666667" y="572.6" type="line"/>
			<point x="255.0666666667" y="572.6" type="line"/>
			<point x="255.0666666667" y="537.2533333333" type="line"/>
			<point x="304.5866666667" y="537.2533333333" type="line"/>
			<point x="836.3066666667" y="36.4533333333" type="line"/>
			<point x="701.8133333333" y="16.3466666667" type="line"/>
			<point x="701.8133333333" y="0" type="line"/>
			<point x="1109.12" y="0" type="line"/>
			<point x="1109.12" y="16.3466666667" type="line"/>
			<point x="990.48" y="37.2" type="line"/>
			<point x="388.0666666667" y="609.4266666667" type="line"/>
		</contour>
		<contour>
			<point x="293.2" y="38.8266666667" type="line"/>
			<point x="293.2" y="1355.72" type="line"/>
			<point x="293.2" y="1484" type="line"/>
			<point x="286.6933333333" y="1484" type="line"/>
			<point x="-6.1733333333" y="1425.1733333333" type="line"/>
			<point x="-6.1733333333" y="1409.0533333333" type="line"/>
			<point x="71.8266666667" y="1384.7470250669"/>
			<point x="150.2533333333" y="1361.9554360888"/>
			<point x="176.2533333333" y="1353.8533333333" type="curve"/>
			<point x="176.2533333333" y="38.8266666667" type="line"/>
			<point x="29.4933333333" y="16.3466666667" type="line"/>
			<point x="29.4933333333" y="0" type="line"/>
			<point x="437.4533333333" y="0" type="line"/>
			<point x="437.4533333333" y="16.3466666667" type="line"/>
		</contour>
	</outline>
	<anchor name="bottom" x="549.5466666667" y="0"/>
	<anchor name="UCtop" x="550.9333333333" y="1430"/>
</glyph>
<glyph name="l" format="2">
	<unicode hex="006C"/>
	<advance width="475.4533333333"/>
	<outline>
		<contour>
			<point x="296.8266666667" y="38.8266666667" type="line"/>
			<point x="296.8266666667" y="1351.9866666667" type="line"/>
			<point x="296.8266666667" y="1484" type="line"/>
			<point x="290.32" y="1484" type="line"/>
			<point x="-2.5466666667" y="1425.1733333333" type="line"/>
			<point x="-2.5466666667" y="1409.0533333333" type="line"/>
			<point x="75.4533333333" y="1384.7470250669"/>
			<point x="153.88" y="1361.9554360888"/>
			<point x="179.88" y="1353.8533333333" type="curve"/>
			<point x="179.88" y="38.8266666667" type="line"/>
			<point x="33.12" y="16.3466666667" type="line"/>
			<point x="33.12" y="0" type="line"/>
			<point x="441.08" y="0" type="line"/>
			<point x="441.08" y="16.3466666667" type="line"/>
		</contour>
	</outline>
	<anchor name="UCtop" x="234.9333333333" y="1430"/>
	<anchor name="right" x="296.8266666667" y="1430"/>
	<anchor name="bottom" x="238.6666666667" y="0"/>
	<anchor name="mid" x="565.32" y="582"/>
</glyph>
<glyph name="m" format="2">
	<unicode hex="006D"/>
	<advance width="1719.0133333333"/>
	<outline>
		<contour>
			<point x="309.08" y="886.9466666667" type="line"/>
			<point x="309.08" y="1055" type="line"/>
			<point x="302.5733333333" y="1055" type="line"/>
			<point x="35.9733333333" y="1003.48" type="line"/>
			<point x="35.9733333333" y="987.36" type="line"/>
			<point x="126.9733333333" y="954.1555801922"/>
			<point x="170.1333333333" y="940.4807754847"/>
			<point x="192.1333333333" y="932.4533333333" type="curve"/>
			<point x="192.1333333333" y="38.8266666667" type="line"/>
			<point x="45.3733333333" y="16.3466666667" type="line"/>
			<point x="45.3733333333" y="0" type="line"/>
			<point x="453.3333333333" y="0" type="line"/>
			<point x="453.3333333333" y="16.3466666667" type="line"/>
			<point x="309.08" y="38.8266666667" type="line"/>
		</contour>
		<contour>
			<point x="927.1066666667" y="758.56" type="line" smooth="yes"/>
			<point x="927.1066666667" y="954.3866666667"/>
			<point x="856.3733333333" y="1044"/>
			<point x="662.9733333333" y="1044" type="curve" smooth="yes"/>
			<point x="553.48" y="1044"/>
			<point x="470.3333333333" y="1014.6266666667"/>
			<point x="285.8666666667" y="887.4266666667" type="curve"/>
			<point x="290.3466666667" y="868.5733333333" type="line"/>
			<point x="365.8933333333" y="915.12"/>
			<point x="484.3333333333" y="952.1333333333"/>
			<point x="591.8666666667" y="952.1333333333" type="curve" smooth="yes"/>
			<point x="752.8" y="952.1333333333"/>
			<point x="810.16" y="886.6266666667"/>
			<point x="810.16" y="729.16" type="curve" smooth="yes"/>
			<point x="810.16" y="38.8266666667" type="line"/>
			<point x="664.9066666667" y="16.3466666667" type="line"/>
			<point x="664.9066666667" y="0" type="line"/>
			<point x="1071.9866666667" y="0" type="line"/>
			<point x="1071.9866666667" y="16.3466666667" type="line"/>
			<point x="927.1066666667" y="38.8266666667" type="line"/>
		</contour>
		<contour>
			<point x="1545.1333333333" y="738.5066666667" type="line" smooth="yes"/>
			<point x="1545.1333333333" y="961.9066666667"/>
			<point x="1469.3866666667" y="1044"/>
			<point x="1274.7333333333" y="1044" type="curve" smooth="yes"/>
			<point x="1162.1066666667" y="1044"/>
			<point x="1077.08" y="1014"/>
			<point x="888.2266666667" y="884.2933333333" type="curve"/>
			<point x="895.84" y="866.0666666667" type="line"/>
			<point x="972.64" y="914.4933333333"/>
			<point x="1094.84" y="952.1333333333"/>
			<point x="1204.88" y="952.1333333333" type="curve" smooth="yes"/>
			<point x="1366.44" y="952.1333333333"/>
			<point x="1428.1866666667" y="896.0266666667"/>
			<point x="1428.1866666667" y="710.36" type="curve" smooth="yes"/>
			<point x="1428.1866666667" y="38.8266666667" type="line"/>
			<point x="1282.9333333333" y="16.3466666667" type="line"/>
			<point x="1282.9333333333" y="0" type="line"/>
			<point x="1690.0133333333" y="0" type="line"/>
			<point x="1690.0133333333" y="16.3466666667" type="line"/>
			<point x="1545.1333333333" y="38.8266666667" type="line"/>
		</contour>
	</outline>
	<anchor name="top" x="868.9466666667" y="1024"/>
	<anchor name="bottom" x="868.9466666667" y="0"/>
</glyph>
<glyph name="n" format="2">
	<unicode hex="006E"/>
	<advance width="1150.64"/>
	<outline>
		<contour>
			<point x="309.08" y="876.92" type="line"/>
			<point x="309.08" y="1055" type="line"/>
			<point x="302.5733333333" y="1055" type="line"/>
			<point x="35.9733333333" y="1003.48" type="line"/>
			<point x="35.9733333333" y="987.36" type="line"/>
			<point x="126.9733333333" y="954.1555801922"/>
			<point x="170.1333333333" y="940.4807754847"/>
			<point x="192.1333333333" y="932.4533333333" type="curve"/>
			<point x="192.1333333333" y="38.8266666667" type="line"/>
			<point x="45.3733333333" y="16.3466666667" type="line"/>
			<point x="45.3733333333" y="0" type="line"/>
			<point x="453.3333333333" y="0" type="line"/>
			<point x="453.3333333333" y="16.3466666667" type="line"/>
			<point x="309.08" y="38.8266666667" type="line"/>
		</contour>
		<contour>
			<point x="714.9333333333" y="16.3466666667" type="line"/>
			<point x="714.9333333333" y="0" type="line"/>
			<point x="1122.0133333333" y="0" type="line"/>
			<point x="1122.0133333333" y="16.3466666667" type="line"/>
			<point x="977.1333333333" y="38.8266666667" type="line"/>
			<point x="977.1333333333" y="715.7466666667" type="line" smooth="yes"/>
			<point x="977.1333333333" y="950.8933333333"/>
			<point x="898.0133333333" y="1044"/>
			<point x="692.6133333333" y="1044" type="curve" smooth="yes"/>
			<point x="574.24" y="1044"/>
			<point x="484.84" y="1014.5066666667"/>
			<point x="285.8666666667" y="877.68" type="curve"/>
			<point x="290.72" y="860.44" type="line"/>
			<point x="373.4" y="911.12"/>
			<point x="502.3466666667" y="952.1333333333"/>
			<point x="621.76" y="952.1333333333" type="curve" smooth="yes"/>
			<point x="794.0666666667" y="952.1333333333"/>
			<point x="860.1866666667" y="885.3866666667"/>
			<point x="860.1866666667" y="686.84" type="curve" smooth="yes"/>
			<point x="860.1866666667" y="38.8266666667" type="line"/>
		</contour>
	</outline>
	<anchor name="top" x="585.5733333333" y="1024"/>
	<anchor name="bottom" x="585.5733333333" y="0"/>
</glyph>
<glyph name="o" format="2">
  <advance width="1122"/>
  <unicode hex="006F"/>
  <anchor x="560.8533333333334" y="1024.0" name="top"/>
  <anchor x="560.8533333333334" y="0.0" name="bottom"/>
  <anchor x="754.0" y="1023.2533333333333" name="horn"/>
  <anchor x="727.4533333333334" y="0.0" name="right"/>
  <outline>
    <contour>
      <point x="559.7333333333333" y="11.466666666666665" type="curve" smooth="yes"/>
      <point x="342.9293094629156" y="11.466666666666665"/>
      <point x="204.56" y="201.39999999999998"/>
      <point x="204.56" y="506.73333333333335" type="curve" smooth="yes"/>
      <point x="204.56" y="817.9599999999999"/>
      <point x="343.0445012787724" y="1012.5333333333334"/>
      <point x="561.9733333333334" y="1012.5333333333334" type="curve" smooth="yes"/>
      <point x="778.777357203751" y="1012.5333333333334"/>
      <point x="917.1466666666666" y="822.6"/>
      <point x="917.1466666666666" y="517.2666666666667" type="curve" smooth="yes"/>
      <point x="917.1466666666666" y="206.04"/>
      <point x="778.6621653878942" y="11.466666666666665"/>
    </contour>
    <contour>
      <point x="557.7333333333333" y="-20.0" type="curve" smooth="yes"/>
      <point x="829.1066666666667" y="-20.0"/>
      <point x="1045.5733333333333" y="190.48"/>
      <point x="1045.5733333333333" y="517.2666666666667" type="curve" smooth="yes"/>
      <point x="1045.5733333333333" y="837.7866666666666"/>
      <point x="827.5600000000001" y="1044.0"/>
      <point x="563.9733333333334" y="1044.0" type="curve" smooth="yes"/>
      <point x="290.36" y="1044.0"/>
      <point x="76.13333333333334" y="833.1466666666666"/>
      <point x="76.13333333333334" y="506.73333333333335" type="curve" smooth="yes"/>
      <point x="76.13333333333334" y="186.58666666666667"/>
      <point x="296.38666666666666" y="-20.0"/>
    </contour>
  </outline>
</glyph>
<glyph name="p" format="2">
	<unicode hex="0070"/>
	<advance width="1154.28"/>
	<outline>
		<contour>
			<point x="952.4666666667" y="505.8133333333" type="curve" smooth="yes"/>
			<point x="952.4666666667" y="210.9333333333"/>
			<point x="808.5066666667" y="13.5866666667"/>
			<point x="570.52" y="13.5866666667" type="curve" smooth="yes"/>
			<point x="394.4266666667" y="13.5866666667"/>
			<point x="300.4666666667" y="128.8933333333"/>
			<point x="300.4666666667" y="250.4933333333" type="curve" smooth="yes"/>
			<point x="300.4666666667" y="888.8666666667" type="line"/>
			<point x="300.4666666667" y="1055" type="line"/>
			<point x="293.96" y="1055" type="line"/>
			<point x="27.36" y="1003.48" type="line"/>
			<point x="27.36" y="987.36" type="line"/>
			<point x="101.36" y="960.3586036728"/>
			<point x="157.52" y="941.9403104213"/>
			<point x="183.52" y="932.4533333333" type="curve"/>
			<point x="183.52" y="-406.1733333333" type="line"/>
			<point x="36.76" y="-428.6533333333" type="line"/>
			<point x="36.76" y="-445" type="line"/>
			<point x="452.1866666667" y="-445" type="line"/>
			<point x="452.1866666667" y="-428.6533333333" type="line"/>
			<point x="300.4666666667" y="-406.1733333333" type="line"/>
			<point x="300.4666666667" y="105.4933333333" type="line"/>
			<point x="210.3333333333" y="105.4933333333" type="line"/>
			<point x="295.4266666667" y="18.16"/>
			<point x="419.6666666667" y="-20"/>
			<point x="552.96" y="-20" type="curve" smooth="yes"/>
			<point x="842.6266666667" y="-20"/>
			<point x="1076.4" y="195"/>
			<point x="1076.4" y="563.88" type="curve" smooth="yes"/>
			<point x="1076.4" y="859.1466666667"/>
			<point x="919.1466666667" y="1044"/>
			<point x="658.4" y="1044" type="curve" smooth="yes"/>
			<point x="559.68" y="1044"/>
			<point x="447.5733333333" y="998.6533333333"/>
			<point x="231.72" y="826.2" type="curve"/>
			<point x="244.84" y="817.48" type="line"/>
			<point x="405.9066666667" y="922.5066666667"/>
			<point x="493.3866666667" y="950.24"/>
			<point x="600.7466666667" y="950.24" type="curve" smooth="yes"/>
			<point x="819.2666666667" y="950.24"/>
			<point x="952.4666666667" y="791.8133333333"/>
		</contour>
	</outline>
	<anchor name="top" x="590.4933333333" y="1024"/>
	<anchor name="bottom" x="242.3066666667" y="-445"/>
</glyph>
<glyph name="q" format="2">
	<unicode hex="0071"/>
	<advance width="1119.2666666667"/>
	<outline>
		<contour>
			<point x="201.44" y="508.7866666667" type="curve" smooth="yes"/>
			<point x="201.44" y="819.3333333333"/>
			<point x="354.8" y="1010.4133333333"/>
			<point x="605.9466666667" y="1010.4133333333" type="curve" smooth="yes"/>
			<point x="757.6" y="1010.4133333333"/>
			<point x="853.44" y="941.48"/>
			<point x="853.44" y="834.92" type="curve" smooth="yes"/>
			<point x="853.44" y="-406.1733333333" type="line"/>
			<point x="689.1866666667" y="-428.6533333333" type="line"/>
			<point x="689.1866666667" y="-445" type="line"/>
			<point x="1117.1466666667" y="-445" type="line"/>
			<point x="1117.1466666667" y="-428.6533333333" type="line"/>
			<point x="970.3866666667" y="-406.1733333333" type="line"/>
			<point x="970.3866666667" y="862.48" type="line"/>
			<point x="1006.6266666667" y="1052.92" type="line"/>
			<point x="995.0133333333" y="1055.9066666667" type="line"/>
			<point x="856.92" y="944.0133333333" type="line"/>
			<point x="943.5733333333" y="979.92" type="line"/>
			<point x="860.36" y="1023.3866666667"/>
			<point x="743.64" y="1044"/>
			<point x="634.7866666667" y="1044" type="curve" smooth="yes"/>
			<point x="320.68" y="1044"/>
			<point x="77.5066666667" y="829"/>
			<point x="77.5066666667" y="467.64" type="curve" smooth="yes"/>
			<point x="77.5066666667" y="154.2"/>
			<point x="247.8933333333" y="-20"/>
			<point x="514.9066666667" y="-20" type="curve" smooth="yes"/>
			<point x="613.6266666667" y="-20"/>
			<point x="724.48" y="14.0666666667"/>
			<point x="922.1866666667" y="210.3333333333" type="curve"/>
			<point x="909.0666666667" y="219.0533333333" type="line"/>
			<point x="793.12" y="107.1333333333"/>
			<point x="678.6933333333" y="73.1333333333"/>
			<point x="565.0666666667" y="73.1333333333" type="curve" smooth="yes"/>
			<point x="319.6" y="73.1333333333"/>
			<point x="201.44" y="246.6"/>
		</contour>
	</outline>
	<anchor name="top" x="575.6" y="1024"/>
	<anchor name="bottom" x="912.2266666667" y="-445"/>
</glyph>
<glyph name="r" format="2">
	<unicode hex="0072"/>
	<advance width="721.2933333333"/>
	<outline>
		<contour>
			<point x="637.7466666667" y="1042" type="curve" smooth="yes"/>
			<point x="572.6266666667" y="1042"/>
			<point x="511.8666666667" y="1018.36"/>
			<point x="292.6933333333" y="815.88" type="curve"/>
			<point x="292.6933333333" y="790.68" type="line"/>
			<point x="397.08" y="879.7866666667"/>
			<point x="442.2" y="905.2666666667"/>
			<point x="511.48" y="905.2666666667" type="curve" smooth="yes"/>
			<point x="565.96" y="905.2666666667"/>
			<point x="586.28" y="889.5333333333"/>
			<point x="625.64" y="889.5333333333" type="curve" smooth="yes"/>
			<point x="673.4666666667" y="889.5333333333"/>
			<point x="708.0533333333" y="922.12"/>
			<point x="708.0533333333" y="972.44" type="curve" smooth="yes"/>
			<point x="708.0533333333" y="1015.1466666667"/>
			<point x="681.96" y="1042"/>
		</contour>
		<contour>
			<point x="309.08" y="838.0666666667" type="line"/>
			<point x="309.08" y="1055" type="line"/>
			<point x="302.5733333333" y="1055" type="line"/>
			<point x="35.9733333333" y="1003.48" type="line"/>
			<point x="35.9733333333" y="987.36" type="line"/>
			<point x="109.9733333333" y="960.3586036728"/>
			<point x="166.1333333333" y="941.9403104213"/>
			<point x="192.1333333333" y="932.4533333333" type="curve"/>
			<point x="192.1333333333" y="38.8266666667" type="line"/>
			<point x="45.3733333333" y="16.3466666667" type="line"/>
			<point x="45.3733333333" y="0" type="line"/>
			<point x="473.3333333333" y="0" type="line"/>
			<point x="473.3333333333" y="16.3466666667" type="line"/>
			<point x="309.08" y="38.8266666667" type="line"/>
		</contour>
	</outline>
	<anchor name="top" x="377.7733333333" y="1024"/>
	<anchor name="bottom" x="250.92" y="0"/>
</glyph>
<glyph name="s" format="2">
  <advance width="805"/>
  <unicode hex="0073"/>
  <anchor x="398.06666666666666" y="1024.0" name="top"/>
  <anchor x="407.61333333333334" y="0.0" name="bottom"/>
  <outline>
    <contour>
      <point x="440.81333333333333" y="1044.0" type="curve" smooth="yes"/>
      <point x="261.58666666666664" y="1044.0"/>
      <point x="112.62666666666667" y="943.4933333333333"/>
      <point x="112.62666666666667" y="777.4" type="curve" smooth="yes"/>
      <point x="112.62666666666667" y="649.4133333333333"/>
      <point x="168.74666666666667" y="562.4399999999999"/>
      <point x="374.02666666666664" y="488.81333333333333" type="curve" smooth="yes"/>
      <point x="579.3066666666667" y="415.18666666666667"/>
      <point x="633.0533333333334" y="351.6933333333333"/>
      <point x="633.0533333333334" y="237.53333333333336" type="curve" smooth="yes"/>
      <point x="633.0533333333334" y="103.53333333333333"/>
      <point x="531.9466666666666" y="14.719999999999999"/>
      <point x="391.12" y="14.719999999999999" type="curve" smooth="yes"/>
      <point x="308.06666666666666" y="14.719999999999999"/>
      <point x="237.41333333333333" y="41.24"/>
      <point x="192.93333333333334" y="80.49333333333334" type="curve"/>
      <point x="224.13333333333333" y="38.77333333333333" type="line"/>
      <point x="88.84" y="324.29333333333335" type="line"/>
      <point x="67.62666666666667" y="324.29333333333335" type="line"/>
      <point x="127.13333333333333" y="33.10666666666667" type="line"/>
      <point x="196.74666666666667" y="-3.1333333333333333"/>
      <point x="274.74666666666667" y="-20.0"/>
      <point x="367.97333333333336" y="-20.0" type="curve" smooth="yes"/>
      <point x="572.9733333333334" y="-20.0"/>
      <point x="723.5333333333333" y="111.62666666666667"/>
      <point x="723.5333333333333" y="284.08" type="curve" smooth="yes"/>
      <point x="723.5333333333333" y="422.08"/>
      <point x="665.4000000000001" y="513.1733333333333"/>
      <point x="451.38666666666666" y="589.7866666666666" type="curve" smooth="yes"/>
      <point x="237.0" y="666.4"/>
      <point x="200.85333333333332" y="728.16"/>
      <point x="200.85333333333332" y="822.0666666666667" type="curve" smooth="yes"/>
      <point x="200.85333333333332" y="935.6"/>
      <point x="279.1333333333333" y="1011.9066666666666"/>
      <point x="425.2133333333333" y="1011.9066666666666" type="curve" smooth="yes"/>
      <point x="494.04" y="1011.9066666666666"/>
      <point x="546.92" y="987.0400000000001"/>
      <point x="603.2533333333333" y="930.0933333333332" type="curve"/>
      <point x="564.7333333333333" y="977.48" type="line"/>
      <point x="674.3066666666666" y="724.5333333333333" type="line"/>
      <point x="694.6533333333333" y="724.5333333333333" type="line"/>
      <point x="663.0266666666668" y="980.36" type="line"/>
      <point x="589.4133333333333" y="1023.3733333333333"/>
      <point x="523.04" y="1044.0"/>
    </contour>
  </outline>
</glyph>
<glyph name="t" format="2">
	<unicode hex="0074"/>
	<advance width="665.9733333333"/>
	<outline>
		<contour>
			<point x="288.3333333333" y="235.68" type="curve" smooth="yes"/>
			<point x="288.3333333333" y="987.3733333333" type="line"/>
			<point x="288.3333333333" y="1143.2666666667" type="line"/>
			<point x="282.4666666667" y="1143.2666666667" type="line"/>
			<point x="143.3733333333" y="1067.8266666667"/>
			<point x="130.3619047619" y="1053.8666666667"/>
			<point x="38.7466666667" y="1009.3066666667" type="curve"/>
			<point x="38.7466666667" y="997.1866666667" type="line"/>
			<point x="171.3866666667" y="931.72" type="line"/>
			<point x="171.3866666667" y="214.8133333333" type="line" smooth="yes"/>
			<point x="171.3866666667" y="58.2666666667"/>
			<point x="266.2266666667" y="-15.36"/>
			<point x="373.96" y="-15.36" type="curve" smooth="yes"/>
			<point x="457.32" y="-15.36"/>
			<point x="502.9066666667" y="1.8533333333"/>
			<point x="675.7466666667" y="88.04" type="curve"/>
			<point x="675.7466666667" y="104.76" type="line"/>
			<point x="584.7333333333" y="80.64"/>
			<point x="529.7466666667" y="71.64"/>
			<point x="462.3466666667" y="71.64" type="curve" smooth="yes"/>
			<point x="347.1866666667" y="71.64"/>
			<point x="288.3333333333" y="128.5333333333"/>
		</contour>
		<contour>
			<point x="252.0266666667" y="948.5866666667" type="line"/>
			<point x="635.5066666667" y="948.5866666667" type="line"/>
			<point x="647.7466666667" y="1024" type="line"/>
			<point x="252.0266666667" y="1024" type="line"/>
		</contour>
	</outline>
	<anchor name="bottom" x="386.9333333333" y="0"/>
	<anchor name="right" x="283.6666666667" y="1514.7066666667"/>
</glyph>
<glyph name="u" format="2">
  <advance width="1119"/>
  <unicode hex="0075"/>
  <anchor x="535.8533333333332" y="1024.0" name="top"/>
  <anchor x="938.0533333333333" y="0.0" name="right"/>
  <anchor x="548.9866666666667" y="0.0" name="bottom"/>
  <anchor x="919.48" y="1023.2533333333333" name="horn"/>
  <outline>
    <contour>
      <point x="298.22666666666663" y="325.02666666666664" type="curve" smooth="yes"/>
      <point x="298.22666666666663" y="963.68" type="line"/>
      <point x="306.9733333333333" y="1039.52" type="line"/>
      <point x="-14.26666666666667" y="1020.2666666666667" type="line"/>
      <point x="-14.26666666666667" y="995.68" type="line"/>
      <point x="181.28" y="959.92" type="line"/>
      <point x="181.28" y="299.85333333333335" type="line" smooth="yes"/>
      <point x="181.28" y="70.97333333333334"/>
      <point x="258.97276595744677" y="-20.0"/>
      <point x="457.90666666666664" y="-20.0" type="curve" smooth="yes"/>
      <point x="572.8933333333333" y="-20.0"/>
      <point x="659.4133333333333" y="8.866666666666665"/>
      <point x="853.7466666666667" y="142.30666666666667" type="curve"/>
      <point x="847.7733333333334" y="161.17333333333332" type="line"/>
      <point x="767.6" y="109.01333333333332"/>
      <point x="644.16" y="68.50666666666666"/>
      <point x="529.1333333333333" y="68.50666666666666" type="curve" smooth="yes"/>
      <point x="362.46666666666664" y="68.50666666666666"/>
      <point x="298.22666666666663" y="133.37333333333333"/>
    </contour>
    <contour>
      <point x="820.8266666666666" y="-29.133333333333333" type="line"/>
      <point x="828.3333333333333" y="-29.133333333333333" type="line"/>
      <point x="1119.3333333333335" y="20.013333333333332" type="line"/>
      <point x="1119.3333333333335" y="35.120000000000005" type="line"/>
      <point x="1077.3333333333335" y="44.53585679729076"/>
      <point x="961.7733333333334" y="68.0461770682148"/>
      <point x="937.7733333333334" y="73.42666666666666" type="curve"/>
      <point x="937.7733333333334" y="963.68" type="line"/>
      <point x="948.4000000000001" y="1039.52" type="line"/>
      <point x="625.9066666666666" y="1020.2666666666667" type="line"/>
      <point x="625.9066666666666" y="995.68" type="line"/>
      <point x="820.8266666666667" y="959.92" type="line"/>
      <point x="820.8266666666667" y="140.18666666666667" type="line"/>
    </contour>
  </outline>
</glyph>
<glyph name="v" format="2">
	<unicode hex="0076"/>
	<advance width="1125.7333333333"/>
	<outline>
		<contour>
			<point x="982.44" y="983.9333333333" type="line"/>
			<point x="1116.48" y="1005.4133333333" type="line"/>
			<point x="1116.48" y="1024" type="line"/>
			<point x="789.52" y="1024" type="line"/>
			<point x="789.52" y="1005.4133333333" type="line"/>
			<point x="931.2666666667" y="982.9333333333" type="line"/>
			<point x="592.92" y="80.24" type="line"/>
			<point x="629.4" y="113.4533333333" type="line"/>
			<point x="246.44" y="981.32" type="line"/>
			<point x="393.32" y="1005.4133333333" type="line"/>
			<point x="393.32" y="1024" type="line"/>
			<point x="-17.2533333333" y="1024" type="line"/>
			<point x="-17.2533333333" y="1005.4133333333" type="line"/>
			<point x="118.8933333333" y="979.9466666667" type="line"/>
			<point x="570.8933333333" y="-26" type="line"/>
			<point x="583.7333333333" y="-26" type="line"/>
		</contour>
	</outline>
	<anchor name="top" x="575.8533333333" y="1024"/>
	<anchor name="bottom" x="569.6133333333" y="0"/>
</glyph>
<glyph name="w" format="2">
	<unicode hex="0077"/>
	<advance width="1589.4"/>
	<outline>
		<contour>
			<point x="1394.7066666667" y="982.9333333333" type="line"/>
			<point x="1162.2133333333" y="80.24" type="line"/>
			<point x="1199.9333333333" y="157.0533333333" type="line"/>
			<point x="828.3466666667" y="1047.7333333333" type="line"/>
			<point x="813.64" y="1047.7333333333" type="line"/>
			<point x="469.1733333333" y="80.24" type="line"/>
			<point x="508.9066666667" y="144.56" type="line"/>
			<point x="253.0666666667" y="981.32" type="line"/>
			<point x="399.9466666667" y="1005.4133333333" type="line"/>
			<point x="399.9466666667" y="1024" type="line"/>
			<point x="-7.76" y="1024" type="line"/>
			<point x="-7.76" y="1005.4133333333" type="line"/>
			<point x="128.3866666667" y="979.9466666667" type="line"/>
			<point x="444.5333333333" y="-26" type="line"/>
			<point x="457.3733333333" y="-26" type="line"/>
			<point x="800" y="869.1866666667" type="line"/>
			<point x="764.1866666667" y="881.72" type="line"/>
			<point x="1148.4133333333" y="-26" type="line"/>
			<point x="1161.2533333333" y="-26" type="line"/>
			<point x="1447.7466666667" y="983.9333333333" type="line"/>
			<point x="1585.52" y="1005.4133333333" type="line"/>
			<point x="1585.52" y="1024" type="line"/>
			<point x="1250.72" y="1024" type="line"/>
			<point x="1250.72" y="1005.4133333333" type="line"/>
		</contour>
	</outline>
	<anchor name="top" x="816.64" y="1024"/>
	<anchor name="bottom" x="805.36" y="0"/>
</glyph>
<glyph name="x" format="2">
	<unicode hex="0078"/>
	<advance width="1085.7866666667"/>
	<outline>
		<contour>
			<point x="949.4133333333" y="42.56" type="line"/>
			<point x="583.1466666667" y="570.6933333333" type="line"/>
			<point x="577.7733333333" y="578.44" type="line"/>
			<point x="297.8" y="982.0666666667" type="line"/>
			<point x="443.1866666667" y="1005.4133333333" type="line"/>
			<point x="443.1866666667" y="1024" type="line"/>
			<point x="20" y="1024" type="line"/>
			<point x="20" y="1005.4133333333" type="line"/>
			<point x="161.3733333333" y="979.2" type="line"/>
			<point x="501.2666666667" y="489.0666666667" type="line"/>
			<point x="507.3866666667" y="480.2" type="line"/>
			<point x="811.4933333333" y="41.56" type="line"/>
			<point x="663.8666666667" y="18.5866666667" type="line"/>
			<point x="663.8666666667" y="0" type="line"/>
			<point x="1090.4133333333" y="0" type="line"/>
			<point x="1090.4133333333" y="18.5866666667" type="line"/>
		</contour>
		<contour>
			<point x="540.0666666667" y="506.64" type="line"/>
			<point x="559.7066666667" y="519.8" type="line"/>
			<point x="921.0266666667" y="984.3066666667" type="line"/>
			<point x="1053.4266666667" y="1005.4133333333" type="line"/>
			<point x="1053.4266666667" y="1024" type="line"/>
			<point x="729.96" y="1024" type="line"/>
			<point x="729.96" y="1005.4133333333" type="line"/>
			<point x="867.9733333333" y="983.68" type="line"/>
			<point x="540.84" y="547.24" type="line"/>
			<point x="522.2" y="534.7066666667" type="line"/>
			<point x="139" y="39.6933333333" type="line"/>
			<point x="2.8666666667" y="18.5866666667" type="line"/>
			<point x="2.8666666667" y="0" type="line"/>
			<point x="327.4533333333" y="0" type="line"/>
			<point x="327.4533333333" y="18.5866666667" type="line"/>
			<point x="193.1733333333" y="40.32" type="line"/>
		</contour>
	</outline>
	<anchor name="top" x="556.4533333333" y="1024"/>
	<anchor name="bottom" x="546.4533333333" y="0"/>
</glyph>
<glyph name="y" format="2">
	<unicode hex="0079"/>
	<advance width="1117.52"/>
	<outline>
		<contour>
			<point x="654.04" y="120.0533333333" type="line"/>
			<point x="253.0666666667" y="981.32" type="line"/>
			<point x="399.9466666667" y="1005.4133333333" type="line"/>
			<point x="399.9466666667" y="1024" type="line"/>
			<point x="-10.2533333333" y="1024" type="line"/>
			<point x="-10.2533333333" y="1005.4133333333" type="line"/>
			<point x="125.8933333333" y="979.9466666667" type="line"/>
			<point x="596.7866666667" y="-19.1066666667" type="line"/>
		</contour>
		<contour>
			<point x="263.3066666667" y="-465" type="curve" smooth="yes"/>
			<point x="389.9066666667" y="-465"/>
			<point x="471.8666666667" y="-397.8933333333"/>
			<point x="546.7066666667" y="-193.8533333333" type="curve" smooth="yes"/>
			<point x="976.7466666667" y="983.9333333333" type="line"/>
			<point x="1114.52" y="1005.4133333333" type="line"/>
			<point x="1114.52" y="1024" type="line"/>
			<point x="780.0933333333" y="1024" type="line"/>
			<point x="780.0933333333" y="1005.4133333333" type="line"/>
			<point x="924.08" y="982.9333333333" type="line"/>
			<point x="621.2" y="92.6666666667" type="line"/>
			<point x="597.3733333333" y="35.6666666667" type="line"/>
			<point x="520.3866666667" y="-162.4666666667" type="line" smooth="yes"/>
			<point x="463.1466666667" y="-309.3466666667"/>
			<point x="399.24" y="-353.1333333333"/>
			<point x="320.2666666667" y="-353.1333333333" type="curve" smooth="yes"/>
			<point x="256.3066666667" y="-353.1333333333"/>
			<point x="224.6" y="-319.5466666667"/>
			<point x="200.9866666667" y="-319.5466666667" type="curve" smooth="yes"/>
			<point x="176.3733333333" y="-319.5466666667"/>
			<point x="151.6533333333" y="-342.16"/>
			<point x="151.6533333333" y="-380.36" type="curve" smooth="yes"/>
			<point x="151.6533333333" y="-437.92"/>
			<point x="199.6133333333" y="-465"/>
		</contour>
	</outline>
	<anchor name="top" x="579.6" y="1024"/>
	<anchor name="bottom" x="732.9866666667" y="-154.6666666667"/>
</glyph>
<glyph name="z" format="2">
	<unicode hex="007A"/>
	<advance width="913.5466666667"/>
	<outline>
		<contour>
			<point x="64.12" y="0" type="line"/>
			<point x="797.9466666667" y="0" type="line"/>
			<point x="880.4133333333" y="352.1733333333" type="line"/>
			<point x="852.68" y="352.1733333333" type="line"/>
			<point x="694.9733333333" y="22.3733333333" type="line"/>
			<point x="736.9066666667" y="44.4266666667" type="line"/>
			<point x="145.32" y="33.9733333333" type="line"/>
			<point x="185.68" y="8.24" type="line"/>
			<point x="836.04" y="1011.64" type="line"/>
			<point x="836.04" y="1024" type="line"/>
			<point x="186.9466666667" y="1024" type="line"/>
			<point x="123.2133333333" y="1082.72" type="line"/>
			<point x="111.2266666667" y="1082.72" type="line"/>
			<point x="58.7466666667" y="716.8666666667" type="line"/>
			<point x="83.2266666667" y="716.8666666667" type="line"/>
			<point x="201.3333333333" y="1004.0266666667" type="line"/>
			<point x="140.7066666667" y="981.44" type="line"/>
			<point x="746.72" y="988.5333333333" type="line"/>
			<point x="714.2266666667" y="1018.1333333333" type="line"/>
			<point x="64.12" y="13.36" type="line"/>
		</contour>
	</outline>
	<anchor name="top" x="478.2" y="1024"/>
	<anchor name="bottom" x="465.72" y="0"/>
</glyph>
<glyph name="braceleft" format="2">
	<unicode hex="007B"/>
	<advance width="563.32"/>
	<outline>
		<contour>
			<point x="41.24" y="609.4" type="line"/>
			<point x="131.6533333333" y="605.6533333333" type="line" smooth="yes"/>
			<point x="228.64" y="600.7866666667"/>
			<point x="264.7733333333" y="533.2533333333"/>
			<point x="264.7733333333" y="449.12" type="curve" smooth="yes"/>
			<point x="264.7733333333" y="285.8533333333"/>
			<point x="197.2933333333" y="175.1466666667"/>
			<point x="197.2933333333" y="54.4" type="curve" smooth="yes"/>
			<point x="197.2933333333" y="-85.5866666667"/>
			<point x="271.5066666667" y="-209.3333333333"/>
			<point x="442.0933333333" y="-229.3333333333" type="curve" smooth="yes"/>
			<point x="515.32" y="-237.3333333333" type="line"/>
			<point x="520.0666666667" y="-213.0933333333" type="line"/>
			<point x="458.8133333333" y="-204.72" type="line" smooth="yes"/>
			<point x="344.1866666667" y="-189.3466666667"/>
			<point x="296.8" y="-110.8533333333"/>
			<point x="296.8" y="7.28" type="curve" smooth="yes"/>
			<point x="296.8" y="122.28"/>
			<point x="344.0533333333" y="247.0266666667"/>
			<point x="344.0533333333" y="394.4" type="curve" smooth="yes"/>
			<point x="344.0533333333" y="510.8933333333"/>
			<point x="286.8266666667" y="615.5333333333"/>
			<point x="149.96" y="633.1466666667" type="curve"/>
			<point x="149.96" y="613.8933333333" type="line"/>
			<point x="286.8266666667" y="631.1333333333"/>
			<point x="344.0533333333" y="736.1466666667"/>
			<point x="344.0533333333" y="852.64" type="curve" smooth="yes"/>
			<point x="344.0533333333" y="1000.0133333333"/>
			<point x="296.8" y="1124.76"/>
			<point x="296.8" y="1239.76" type="curve" smooth="yes"/>
			<point x="296.8" y="1357.52"/>
			<point x="344.1866666667" y="1436.0133333333"/>
			<point x="458.8133333333" y="1451.76" type="curve" smooth="yes"/>
			<point x="520.0666666667" y="1460.1333333333" type="line"/>
			<point x="515.32" y="1484" type="line"/>
			<point x="442.0933333333" y="1476" type="line" smooth="yes"/>
			<point x="271.5066666667" y="1456.7466666667"/>
			<point x="197.2933333333" y="1332.2533333333"/>
			<point x="197.2933333333" y="1192.2666666667" type="curve" smooth="yes"/>
			<point x="197.2933333333" y="1071.8933333333"/>
			<point x="264.7733333333" y="961.1866666667"/>
			<point x="264.7733333333" y="797.5466666667" type="curve" smooth="yes"/>
			<point x="264.7733333333" y="713.4133333333"/>
			<point x="228.64" y="646.2533333333"/>
			<point x="131.6533333333" y="641.3866666667" type="curve" smooth="yes"/>
			<point x="41.24" y="637.64" type="line"/>
		</contour>
	</outline>
</glyph>
<glyph name="bar" format="2">
  <advance width="452.74666666666667"/>
  <unicode hex="007C"/>
  <outline>
    <contour>
      <point x="194.13333333333333" y="-465.0" type="line"/>
      <point x="258.61333333333334" y="-465.0" type="line"/>
      <point x="258.61333333333334" y="1535.0" type="line"/>
      <point x="194.13333333333333" y="1535.0" type="line"/>
    </contour>
  </outline>
</glyph>
<glyph name="braceright" format="2">
	<unicode hex="007D"/>
	<advance width="562.9466666667"/>
	<outline>
		<contour>
			<point x="522.08" y="638.0133333333" type="line"/>
			<point x="431.6666666667" y="641.76" type="line" smooth="yes"/>
			<point x="334.68" y="646.6266666667"/>
			<point x="298.5466666667" y="714.16"/>
			<point x="298.5466666667" y="798.2933333333" type="curve" smooth="yes"/>
			<point x="298.5466666667" y="961.56"/>
			<point x="366.0266666667" y="1072.2666666667"/>
			<point x="366.0266666667" y="1193.0133333333" type="curve" smooth="yes"/>
			<point x="366.0266666667" y="1333"/>
			<point x="291.8133333333" y="1456.7466666667"/>
			<point x="121.2266666667" y="1476.7466666667" type="curve" smooth="yes"/>
			<point x="48" y="1484.7466666667" type="line"/>
			<point x="43.2533333333" y="1460.5066666667" type="line"/>
			<point x="104.5066666667" y="1452.1333333333" type="line" smooth="yes"/>
			<point x="219.1333333333" y="1436.76"/>
			<point x="266.52" y="1358.2666666667"/>
			<point x="266.52" y="1240.1333333333" type="curve" smooth="yes"/>
			<point x="266.52" y="1125.1333333333"/>
			<point x="219.2666666667" y="1000.3866666667"/>
			<point x="219.2666666667" y="853.0133333333" type="curve" smooth="yes"/>
			<point x="219.2666666667" y="736.52"/>
			<point x="276.4933333333" y="631.88"/>
			<point x="413.36" y="614.2666666667" type="curve"/>
			<point x="413.36" y="633.52" type="line"/>
			<point x="276.4933333333" y="616.28"/>
			<point x="219.2666666667" y="511.2666666667"/>
			<point x="219.2666666667" y="394.7733333333" type="curve" smooth="yes"/>
			<point x="219.2666666667" y="247.4"/>
			<point x="266.52" y="122.6533333333"/>
			<point x="266.52" y="7.6533333333" type="curve" smooth="yes"/>
			<point x="266.52" y="-110.1066666667"/>
			<point x="219.1333333333" y="-188.6"/>
			<point x="104.5066666667" y="-204.3466666667" type="curve" smooth="yes"/>
			<point x="43.2533333333" y="-212.72" type="line"/>
			<point x="48" y="-236.5866666667" type="line"/>
			<point x="121.2266666667" y="-228.5866666667" type="line" smooth="yes"/>
			<point x="291.8133333333" y="-209.3333333333"/>
			<point x="366.0266666667" y="-84.84"/>
			<point x="366.0266666667" y="55.1466666667" type="curve" smooth="yes"/>
			<point x="366.0266666667" y="175.52"/>
			<point x="298.5466666667" y="286.2266666667"/>
			<point x="298.5466666667" y="449.8666666667" type="curve" smooth="yes"/>
			<point x="298.5466666667" y="534"/>
			<point x="334.68" y="601.16"/>
			<point x="431.6666666667" y="606.0266666667" type="curve" smooth="yes"/>
			<point x="522.08" y="609.7733333333" type="line"/>
		</contour>
	</outline>
</glyph>
<glyph name="asciitilde" format="2">
	<unicode hex="007E"/>
	<advance width="1150"/>
	<outline>
		<contour>
			<point x="162" y="396" type="curve"/>
			<point x="214.96" y="396" type="line"/>
			<point x="231.0933333333" y="520.7733333333"/>
			<point x="273.6" y="580.5333333333"/>
			<point x="384.8666666667" y="580.5333333333" type="curve" smooth="yes"/>
			<point x="538.0133333333" y="580.5333333333"/>
			<point x="584" y="388"/>
			<point x="761" y="388" type="curve" smooth="yes"/>
			<point x="871.4933333333" y="388"/>
			<point x="977.4933333333" y="440"/>
			<point x="988" y="628" type="curve"/>
			<point x="935.04" y="628" type="line"/>
			<point x="918.9066666667" y="503.2266666667"/>
			<point x="876.4" y="443.4666666667"/>
			<point x="765.1333333333" y="443.4666666667" type="curve" smooth="yes"/>
			<point x="611.9866666667" y="443.4666666667"/>
			<point x="566" y="636"/>
			<point x="389" y="636" type="curve" smooth="yes"/>
			<point x="278.5066666667" y="636"/>
			<point x="172.5066666667" y="584"/>
		</contour>
	</outline>
</glyph>
<glyph name="exclamdown" format="2">
	<unicode hex="00A1"/>
	<advance width="439.6533333333"/>
	<outline>
		<contour>
			<point x="136.6" y="-361.9866666667" type="line" smooth="yes"/>
			<point x="136.6" y="-402.9066666667"/>
			<point x="178.0266666667" y="-423.4933333333"/>
			<point x="218.8266666667" y="-423.4933333333" type="curve" smooth="yes"/>
			<point x="260.2533333333" y="-423.4933333333"/>
			<point x="302.0533333333" y="-402.9066666667"/>
			<point x="302.0533333333" y="-361.9866666667" type="curve" smooth="yes"/>
			<point x="302.0533333333" y="-333.48" type="line" smooth="yes"/>
			<point x="302.0533333333" y="-291.28"/>
			<point x="252.6266666667" y="198.36"/>
			<point x="234.32" y="602.9866666667" type="curve"/>
			<point x="206.96" y="602.9866666667" type="line"/>
			<point x="188.6533333333" y="198.36"/>
			<point x="136.6" y="-293.5333333333"/>
			<point x="136.6" y="-333.48" type="curve" smooth="yes"/>
		</contour>
		<contour>
			<point x="218.8266666667" y="830.1733333333" type="curve" smooth="yes"/>
			<point x="279.52" y="830.1733333333"/>
			<point x="324.7333333333" y="876.76"/>
			<point x="324.7333333333" y="935.3333333333" type="curve" smooth="yes"/>
			<point x="324.7333333333" y="993.9066666667"/>
			<point x="279.52" y="1039.8666666667"/>
			<point x="218.8266666667" y="1039.8666666667" type="curve" smooth="yes"/>
			<point x="158.1333333333" y="1039.8666666667"/>
			<point x="112.92" y="993.9066666667"/>
			<point x="112.92" y="935.3333333333" type="curve" smooth="yes"/>
			<point x="112.92" y="876.76"/>
			<point x="158.1333333333" y="830.1733333333"/>
		</contour>
	</outline>
</glyph>
<glyph name="currency" format="2">
  <advance width="941"/>
  <unicode hex="00A4"/>
  <outline>
    <contour>
      <point x="163.60000000000002" y="855.9866666666667" type="line"/>
      <point x="126.62666666666667" y="819.0133333333333" type="line"/>
      <point x="257.2666666666667" y="688.3733333333333" type="line"/>
      <point x="294.24" y="725.3466666666666" type="line"/>
    </contour>
    <contour>
      <point x="126.62666666666667" y="204.98666666666668" type="line"/>
      <point x="163.60000000000002" y="168.01333333333335" type="line"/>
      <point x="296.12" y="300.5333333333333" type="line"/>
      <point x="259.14666666666665" y="337.50666666666666" type="line"/>
    </contour>
    <contour>
      <point x="470.61333333333334" y="802.9866666666667" type="curve" smooth="yes"/>
      <point x="300.74666666666667" y="802.9866666666667"/>
      <point x="179.25333333333333" y="681.8666666666667"/>
      <point x="179.25333333333333" y="512.0" type="curve" smooth="yes"/>
      <point x="179.25333333333333" y="342.1333333333333"/>
      <point x="300.74666666666667" y="221.01333333333332"/>
      <point x="470.61333333333334" y="221.01333333333332" type="curve" smooth="yes"/>
      <point x="640.48" y="221.01333333333332"/>
      <point x="761.9733333333334" y="342.1333333333333"/>
      <point x="761.9733333333334" y="512.0" type="curve" smooth="yes"/>
      <point x="761.9733333333334" y="681.8666666666667"/>
      <point x="640.48" y="802.9866666666667"/>
    </contour>
    <contour>
      <point x="470.61333333333334" y="272.48" type="curve" smooth="yes"/>
      <point x="333.8533333333333" y="272.48"/>
      <point x="234.09333333333333" y="368.6133333333333"/>
      <point x="234.09333333333333" y="512.0" type="curve" smooth="yes"/>
      <point x="234.09333333333333" y="655.3866666666667"/>
      <point x="333.8533333333333" y="751.5200000000001"/>
      <point x="470.61333333333334" y="751.5200000000001" type="curve" smooth="yes"/>
      <point x="607.3733333333333" y="751.5200000000001"/>
      <point x="707.1333333333333" y="655.3866666666667"/>
      <point x="707.1333333333333" y="512.0" type="curve" smooth="yes"/>
      <point x="707.1333333333333" y="368.6133333333333"/>
      <point x="607.3733333333333" y="272.48"/>
    </contour>
    <contour>
      <point x="814.6" y="819.0133333333333" type="line"/>
      <point x="777.6266666666667" y="855.9866666666667" type="line"/>
      <point x="646.9866666666667" y="725.3466666666667" type="line"/>
      <point x="683.9599999999999" y="688.3733333333333" type="line"/>
    </contour>
    <contour>
      <point x="814.6" y="204.98666666666668" type="line"/>
      <point x="682.0799999999999" y="337.50666666666666" type="line"/>
      <point x="645.1066666666667" y="300.53333333333336" type="line"/>
      <point x="777.6266666666667" y="168.01333333333335" type="line"/>
    </contour>
  </outline>
</glyph>
<glyph name="brokenbar" format="2">
	<unicode hex="00A6"/>
	<advance width="452.7466666667"/>
	<outline>
		<contour>
			<point x="258.6133333333" y="725" type="line"/>
			<point x="258.6133333333" y="1535" type="line"/>
			<point x="194.1333333333" y="1535" type="line"/>
			<point x="194.1333333333" y="725" type="line"/>
		</contour>
		<contour>
			<point x="194.1333333333" y="-465" type="line"/>
			<point x="258.6133333333" y="-465" type="line"/>
			<point x="258.6133333333" y="345" type="line"/>
			<point x="194.1333333333" y="345" type="line"/>
		</contour>
	</outline>
</glyph>
<glyph name="section" format="2">
	<unicode hex="00A7"/>
	<advance width="1061.7733333333"/>
	<outline>
		<contour>
			<point x="448.4" y="-218" type="curve" smooth="yes"/>
			<point x="698.7866666667" y="-218"/>
			<point x="862.16" y="-80.0266666667"/>
			<point x="862.16" y="106.6933333333" type="curve" smooth="yes"/>
			<point x="862.16" y="511.4533333333"/>
			<point x="178.7333333333" y="362.6533333333"/>
			<point x="178.7333333333" y="699.48" type="curve" smooth="yes"/>
			<point x="178.7333333333" y="804.64"/>
			<point x="245.7031577014" y="895.2754557223"/>
			<point x="374.2133333333" y="930.44" type="curve"/>
			<point x="353.0933333333" y="944.3066666667" type="line"/>
			<point x="170.1066666667" y="889.3066666667"/>
			<point x="87.5066666667" y="784.6933333333"/>
			<point x="87.5066666667" y="650.72" type="curve" smooth="yes"/>
			<point x="87.5066666667" y="241.6266666667"/>
			<point x="769.08" y="381.64"/>
			<point x="769.08" y="52.68" type="curve" smooth="yes"/>
			<point x="769.08" y="-95.64"/>
			<point x="650.2412876428" y="-187.6666666667"/>
			<point x="472.5733333333" y="-187.6666666667" type="curve" smooth="yes"/>
			<point x="280.56" y="-187.6666666667"/>
			<point x="235.6" y="-25.7466666667"/>
			<point x="201.7466666667" y="-25.7466666667" type="curve" smooth="yes"/>
			<point x="159.3066666667" y="-25.7466666667"/>
			<point x="135.5866666667" y="-54.2133333333"/>
			<point x="135.5866666667" y="-91.16" type="curve" smooth="yes"/>
			<point x="135.5866666667" y="-160.9733333333"/>
			<point x="236.0666666667" y="-218"/>
		</contour>
		<contour>
			<point x="884.8" y="587.3066666667" type="curve" smooth="yes"/>
			<point x="884.8" y="478.52"/>
			<point x="805.8219980791" y="378.284053026"/>
			<point x="670.68" y="354.3466666667" type="curve"/>
			<point x="691.1733333333" y="336.8533333333" type="line"/>
			<point x="869.28" y="373.5866666667"/>
			<point x="973.4" y="502.72"/>
			<point x="973.4" y="640.9466666667" type="curve" smooth="yes"/>
			<point x="973.4" y="1049.5333333333"/>
			<point x="299.08" y="903.6533333333"/>
			<point x="299.08" y="1214.4666666667" type="curve" smooth="yes"/>
			<point x="299.08" y="1332.64"/>
			<point x="389.3266666667" y="1420.6666666667"/>
			<point x="555.2933333333" y="1420.6666666667" type="curve" smooth="yes"/>
			<point x="755.5733333333" y="1420.6666666667"/>
			<point x="796.4" y="1244.84"/>
			<point x="831.0133333333" y="1244.84" type="curve" smooth="yes"/>
			<point x="870.2133333333" y="1244.84"/>
			<point x="894.3066666667" y="1272.1866666667"/>
			<point x="894.3066666667" y="1308.0133333333" type="curve" smooth="yes"/>
			<point x="894.3066666667" y="1369.08"/>
			<point x="800.6933333333" y="1450"/>
			<point x="586.7333333333" y="1450" type="curve" smooth="yes"/>
			<point x="347.48" y="1450"/>
			<point x="204" y="1331.2933333333"/>
			<point x="204" y="1156.5733333333" type="curve" smooth="yes"/>
			<point x="204" y="777.96"/>
			<point x="884.8" y="923.76"/>
		</contour>
	</outline>
</glyph>
<glyph name="copyright" format="2">
	<unicode hex="00A9"/>
	<advance width="1717.8666666667"/>
	<outline>
		<contour>
			<point x="857.7466666667" y="1450" type="curve" smooth="yes"/>
			<point x="425" y="1450"/>
			<point x="115.2533333333" y="1145.2441801802"/>
			<point x="115.2533333333" y="714" type="curve" smooth="yes"/>
			<point x="115.2533333333" y="283.7561698284"/>
			<point x="425" y="-20"/>
			<point x="857.7466666667" y="-20" type="curve" smooth="yes"/>
			<point x="1291.8666666667" y="-20"/>
			<point x="1602.6133333333" y="283.7561698284"/>
			<point x="1602.6133333333" y="714" type="curve" smooth="yes"/>
			<point x="1602.6133333333" y="1145.2441801802"/>
			<point x="1291.8666666667" y="1450"/>
		</contour>
		<contour>
			<point x="857.7466666667" y="1408.52" type="curve" smooth="yes"/>
			<point x="1255.2533333333" y="1408.52"/>
			<point x="1549.3866666667" y="1121.6292522914"/>
			<point x="1549.3866666667" y="714" type="curve" smooth="yes"/>
			<point x="1549.3866666667" y="306.7431884058"/>
			<point x="1255.2533333333" y="20.48"/>
			<point x="857.7466666667" y="20.48" type="curve" smooth="yes"/>
			<point x="460.6133333333" y="20.48"/>
			<point x="168.48" y="306.7431884058"/>
			<point x="168.48" y="714" type="curve" smooth="yes"/>
			<point x="168.48" y="1121.6292522914"/>
			<point x="460.6133333333" y="1408.52"/>
		</contour>
		<contour>
			<point x="944.9466666667" y="299.6" type="curve"/>
			<point x="736.6266666667" y="299.6"/>
			<point x="574.8266666667" y="456.5866666667"/>
			<point x="574.8266666667" y="754.36" type="curve" smooth="yes"/>
			<point x="574.8266666667" y="1006.6133333333"/>
			<point x="706.88" y="1131.1466666667"/>
			<point x="888.8266666667" y="1131.1466666667" type="curve" smooth="yes"/>
			<point x="974.1066666667" y="1131.1466666667"/>
			<point x="1049.2533333333" y="1105.52"/>
			<point x="1127.5333333333" y="1051.1333333333" type="curve"/>
			<point x="1071.16" y="1110.76" type="line"/>
			<point x="1195.1066666667" y="861.0133333333" type="line"/>
			<point x="1212.8533333333" y="864.3866666667" type="line"/>
			<point x="1152.84" y="1187.9866666667" type="line"/>
			<point x="1143.84" y="1187.9866666667" type="line"/>
			<point x="1093.28" y="1123.4933333333" type="line"/>
			<point x="1146.1333333333" y="1125.7333333333" type="line"/>
			<point x="1074.1333333333" y="1154.4933333333"/>
			<point x="1003.36" y="1168.12"/>
			<point x="927.48" y="1168.12" type="curve" smooth="yes"/>
			<point x="646.2666666667" y="1168.12"/>
			<point x="450.1466666667" y="986.12"/>
			<point x="450.1466666667" y="720.12" type="curve" smooth="yes"/>
			<point x="450.1466666667" y="429.5066666667"/>
			<point x="654.4" y="269.88"/>
			<point x="928.9866666667" y="269.88" type="curve" smooth="yes"/>
			<point x="1019.9733333333" y="269.88"/>
			<point x="1107.4933333333" y="287.3866666667"/>
			<point x="1174.6" y="313.64" type="curve"/>
			<point x="1227.84" y="519.6" type="line"/>
			<point x="1209.72" y="519.6" type="line"/>
			<point x="1086.52" y="311.24" type="line"/>
			<point x="1143.2666666667" y="351.7333333333" type="line"/>
			<point x="1086" y="317.8533333333"/>
			<point x="1014.0933333333" y="299.6"/>
		</contour>
	</outline>
</glyph>
<glyph name="ordfeminine" format="2">
	<unicode hex="00AA"/>
	<advance width="860.64"/>
	<outline>
		<contour>
			<point x="135.6266666667" y="574.3866666667" type="line"/>
			<point x="733.76" y="574.3866666667" type="line"/>
			<point x="733.76" y="624.6133333333" type="line"/>
			<point x="135.6266666667" y="624.6133333333" type="line"/>
		</contour>
		<contour>
			<point x="553.5333333333" y="1190.7733333333" type="curve"/>
			<point x="554.28" y="1215.88" type="line"/>
			<point x="189.64" y="1109.4933333333"/>
			<point x="147.8933333333" y="1056.7466666667"/>
			<point x="147.8933333333" y="955.7466666667" type="curve" smooth="yes"/>
			<point x="147.8933333333" y="849.8666666667"/>
			<point x="216.52" y="790.3733333333"/>
			<point x="333.1333333333" y="790.3733333333" type="curve" smooth="yes"/>
			<point x="431.5066666667" y="790.3733333333"/>
			<point x="517.5333333333" y="844.3733333333"/>
			<point x="542.0266666667" y="967.8666666667" type="curve"/>
			<point x="531.28" y="969.36" type="line"/>
			<point x="524.52" y="824.7333333333"/>
			<point x="559.3866666667" y="790.6266666667"/>
			<point x="635.9733333333" y="790.6266666667" type="curve" smooth="yes"/>
			<point x="681.3066666667" y="790.6266666667"/>
			<point x="718.4133333333" y="809.3733333333"/>
			<point x="757.1333333333" y="841.48" type="curve"/>
			<point x="757.1333333333" y="861.2133333333" type="line"/>
			<point x="724.7466666667" y="843.4533333333"/>
			<point x="710" y="840.4533333333"/>
			<point x="682.8666666667" y="840.4533333333" type="curve" smooth="yes"/>
			<point x="654.24" y="840.4533333333"/>
			<point x="630.1066666667" y="855.7066666667"/>
			<point x="630.1066666667" y="910.48" type="curve" smooth="yes"/>
			<point x="630.1066666667" y="1260.7733333333" type="line" smooth="yes"/>
			<point x="630.1066666667" y="1375.5066666667"/>
			<point x="582.6428828829" y="1450"/>
			<point x="421.04" y="1450" type="curve" smooth="yes"/>
			<point x="314.12" y="1450"/>
			<point x="148.3866666667" y="1378.0266666667"/>
			<point x="148.3866666667" y="1317.6666666667" type="curve" smooth="yes"/>
			<point x="148.3866666667" y="1301.8"/>
			<point x="160.88" y="1288.68"/>
			<point x="187.8533333333" y="1288.68" type="curve" smooth="yes"/>
			<point x="207.96" y="1288.68"/>
			<point x="228.5733333333" y="1295.5466666667"/>
			<point x="238.6933333333" y="1308.04" type="curve" smooth="yes"/>
			<point x="249.1866666667" y="1320.9066666667"/>
			<point x="256.1866666667" y="1346.28"/>
			<point x="264.3066666667" y="1402.9866666667" type="curve"/>
			<point x="222.6666666667" y="1376.1333333333" type="line"/>
			<point x="281.5733333333" y="1399.0266666667"/>
			<point x="330.4666666667" y="1407.9066666667"/>
			<point x="384.8533333333" y="1407.9066666667" type="curve" smooth="yes"/>
			<point x="489.8933333333" y="1407.9066666667"/>
			<point x="530.9066666667" y="1350.64"/>
			<point x="530.9066666667" y="1256.1066666667" type="curve" smooth="yes"/>
			<point x="530.9066666667" y="993.7333333333" type="line" smooth="yes"/>
			<point x="530.9066666667" y="899.5733333333"/>
			<point x="456.48" y="842.7866666667"/>
			<point x="370.8" y="842.7866666667" type="curve" smooth="yes"/>
			<point x="295.76" y="842.7866666667"/>
			<point x="248.36" y="891.56"/>
			<point x="248.36" y="969.8266666667" type="curve" smooth="yes"/>
			<point x="248.36" y="1050.5866666667"/>
			<point x="274.7466666667" y="1102.2266666667"/>
		</contour>
	</outline>
</glyph>
<glyph name="guillemotleft" format="2">
	<unicode hex="00AB"/>
	<advance width="868.8933333333"/>
	<outline>
		<contour>
			<point x="164.76" y="580.08" type="line"/>
			<point x="164.76" y="463.92" type="line"/>
			<point x="460.5733333333" y="925.4666666667" type="line"/>
			<point x="445.08" y="937.84" type="line"/>
			<point x="60.2533333333" y="527.7466666667" type="line"/>
			<point x="60.2533333333" y="516.2533333333" type="line"/>
			<point x="445.08" y="106.16" type="line"/>
			<point x="460.5733333333" y="118.5333333333" type="line"/>
		</contour>
		<contour>
			<point x="489.32" y="580.08" type="line"/>
			<point x="489.32" y="463.92" type="line"/>
			<point x="784.76" y="925.4666666667" type="line"/>
			<point x="769.64" y="937.84" type="line"/>
			<point x="384.44" y="527.7466666667" type="line"/>
			<point x="384.44" y="516.2533333333" type="line"/>
			<point x="769.64" y="106.16" type="line"/>
			<point x="784.76" y="118.5333333333" type="line"/>
		</contour>
	</outline>
</glyph>
<glyph name="logicalnot" format="2">
  <advance width="1150"/>
  <unicode hex="00AC"/>
  <outline>
    <contour>
      <point x="164.25333333333333" y="735.1066666666667" type="line"/>
      <point x="164.25333333333333" y="682.5200000000001" type="line"/>
      <point x="986.2533333333333" y="682.5200000000001" type="line"/>
      <point x="986.2533333333333" y="735.1066666666667" type="line"/>
    </contour>
    <contour>
      <point x="986.2533333333333" y="704.0" type="line"/>
      <point x="933.6666666666667" y="704.0" type="line"/>
      <point x="933.6666666666667" y="268.0" type="line"/>
      <point x="986.2533333333333" y="268.0" type="line"/>
    </contour>
  </outline>
</glyph>
<glyph name="registered" format="2">
  <advance width="1088.76"/>
  <unicode hex="00AE"/>
  <outline>
    <contour>
      <point x="541.88" y="1450.0" type="curve" smooth="yes"/>
      <point x="291.88" y="1450.0"/>
      <point x="112.88" y="1273.0"/>
      <point x="112.88" y="1024.0" type="curve" smooth="yes"/>
      <point x="112.88" y="776.0"/>
      <point x="291.88" y="596.0"/>
      <point x="541.88" y="596.0" type="curve" smooth="yes"/>
      <point x="793.88" y="596.0"/>
      <point x="975.88" y="776.0"/>
      <point x="975.88" y="1024.0" type="curve" smooth="yes"/>
      <point x="975.88" y="1273.0"/>
      <point x="793.88" y="1450.0"/>
    </contour>
    <contour>
      <point x="541.88" y="1412.1466666666665" type="curve" smooth="yes"/>
      <point x="767.8933333333333" y="1412.1466666666665"/>
      <point x="931.0266666666666" y="1253.3866666666668"/>
      <point x="931.0266666666666" y="1024.0" type="curve" smooth="yes"/>
      <point x="931.0266666666666" y="796.6133333333333"/>
      <point x="767.8933333333333" y="634.8533333333334"/>
      <point x="541.88" y="634.8533333333334" type="curve" smooth="yes"/>
      <point x="317.8666666666667" y="634.8533333333334"/>
      <point x="157.73333333333332" y="796.6133333333333"/>
      <point x="157.73333333333332" y="1024.0" type="curve" smooth="yes"/>
      <point x="157.73333333333332" y="1253.3866666666668"/>
      <point x="317.8666666666667" y="1412.1466666666665"/>
    </contour>
    <contour>
      <point x="449.23999999999995" y="1050.12" type="line"/>
      <point x="449.24" y="1024.5066666666667" type="line"/>
      <point x="552.64" y="1024.5066666666667" type="line" smooth="yes"/>
      <point x="584.76" y="1024.5066666666667"/>
      <point x="599.3866666666667" y="1017.0133333333333"/>
      <point x="618.4" y="971.7466666666667" type="curve" smooth="yes"/>
      <point x="654.8" y="883.48" type="line" smooth="yes"/>
      <point x="681.3066666666666" y="818.3733333333333"/>
      <point x="688.2933333333333" y="812.1333333333333"/>
      <point x="778.12" y="817.0" type="curve"/>
      <point x="778.12" y="832.9866666666667" type="line"/>
      <point x="745.9866666666667" y="832.36"/>
      <point x="736.8666666666667" y="836.7333333333333"/>
      <point x="720.1066666666667" y="876.6133333333333" type="curve" smooth="yes"/>
      <point x="681.7066666666667" y="967.0133333333333" type="line" smooth="yes"/>
      <point x="660.32" y="1021.1333333333333"/>
      <point x="639.7066666666667" y="1038.6266666666668"/>
      <point x="584.72" y="1039.3733333333334" type="curve"/>
      <point x="584.72" y="1038.3733333333334" type="line"/>
      <point x="659.96" y="1044.2533333333333"/>
      <point x="701.7066666666667" y="1086.3733333333332"/>
      <point x="701.7066666666667" y="1141.7466666666667" type="curve" smooth="yes"/>
      <point x="701.7066666666667" y="1199.3733333333332"/>
      <point x="663.08" y="1244.0"/>
      <point x="556.96" y="1244.0" type="curve" smooth="yes"/>
      <point x="449.24" y="1244.0" type="line"/>
      <point x="449.24" y="1218.3866666666665" type="line"/>
      <point x="506.70666666666665" y="1218.3866666666665" type="line" smooth="yes"/>
      <point x="603.5066666666667" y="1218.3866666666665"/>
      <point x="637.8933333333333" y="1191.5066666666667"/>
      <point x="637.8933333333333" y="1138.8799999999999" type="curve" smooth="yes"/>
      <point x="637.8933333333333" y="1078.7466666666667"/>
      <point x="598.6266666666667" y="1050.12"/>
      <point x="539.4933333333333" y="1050.12" type="curve" smooth="yes"/>
    </contour>
    <contour>
      <point x="416.78666666666663" y="1218.76" type="line"/>
      <point x="416.78666666666663" y="843.6133333333333" type="line"/>
      <point x="351.4" y="829.24" type="line"/>
      <point x="351.4" y="818.0" type="line"/>
      <point x="544.48" y="818.0" type="line"/>
      <point x="544.48" y="829.24" type="line"/>
      <point x="479.72" y="843.6133333333333" type="line"/>
      <point x="479.72" y="1244.0" type="line"/>
      <point x="351.4" y="1244.0" type="line"/>
      <point x="351.4" y="1232.76" type="line"/>
    </contour>
  </outline>
</glyph>
<glyph name="degree" format="2">
	<unicode hex="00B0"/>
	<advance width="748.3733333333"/>
	<outline>
		<contour>
			<point x="374" y="1441.4933333333" type="curve" smooth="yes"/>
			<point x="203.2533333333" y="1441.4933333333"/>
			<point x="80.5066666667" y="1321.12"/>
			<point x="80.5066666667" y="1150" type="curve" smooth="yes"/>
			<point x="80.5066666667" y="978.88"/>
			<point x="203.2533333333" y="858.5066666667"/>
			<point x="374" y="858.5066666667" type="curve" smooth="yes"/>
			<point x="545.12" y="858.5066666667"/>
			<point x="667.8666666667" y="978.88"/>
			<point x="667.8666666667" y="1150" type="curve" smooth="yes"/>
			<point x="667.8666666667" y="1321.12"/>
			<point x="545.12" y="1441.4933333333"/>
		</contour>
		<contour>
			<point x="374" y="904.9733333333" type="curve" smooth="yes"/>
			<point x="233.7333333333" y="904.9733333333"/>
			<point x="132.9733333333" y="1002.7333333333"/>
			<point x="132.9733333333" y="1150" type="curve" smooth="yes"/>
			<point x="132.9733333333" y="1297.2666666667"/>
			<point x="233.7333333333" y="1395.0266666667"/>
			<point x="374" y="1395.0266666667" type="curve" smooth="yes"/>
			<point x="514.64" y="1395.0266666667"/>
			<point x="615.0266666667" y="1297.2666666667"/>
			<point x="615.0266666667" y="1150" type="curve" smooth="yes"/>
			<point x="615.0266666667" y="1002.7333333333"/>
			<point x="514.64" y="904.9733333333"/>
		</contour>
	</outline>
</glyph>
<glyph name="plusminus" format="2">
	<unicode hex="00B1"/>
	<advance width="1150"/>
	<outline>
		<contour>
			<point x="548.8933333333" y="1024" type="line"/>
			<point x="548.8933333333" y="202" type="line"/>
			<point x="601.1066666667" y="202" type="line"/>
			<point x="601.1066666667" y="1024" type="line"/>
		</contour>
		<contour>
			<point x="164" y="639.1066666667" type="line"/>
			<point x="164" y="586.8933333333" type="line"/>
			<point x="986" y="586.8933333333" type="line"/>
			<point x="986" y="639.1066666667" type="line"/>
		</contour>
		<contour>
			<point x="164" y="52.2133333333" type="line"/>
			<point x="164" y="0" type="line"/>
			<point x="986" y="0" type="line"/>
			<point x="986" y="52.2133333333" type="line"/>
		</contour>
	</outline>
</glyph>
<glyph name="uni00B2" format="2">
	<unicode hex="00B2"/>
	<advance width="656"/>
	<outline>
		<contour>
			<point x="465.6266666667" y="700.0666666667" type="line"/>
			<point x="543.24" y="752" type="line"/>
			<point x="151.4933333333" y="752" type="line"/>
			<point x="136.7333333333" y="715.8666666667" type="line"/>
			<point x="333.4666666667" y="929.0266666667" type="line" smooth="yes"/>
			<point x="503.16" y="1110.1333333333"/>
			<point x="534.1333333333" y="1172.52"/>
			<point x="534.1333333333" y="1250.1066666667" type="curve" smooth="yes"/>
			<point x="534.1333333333" y="1359"/>
			<point x="455.2666666667" y="1441.4933333333"/>
			<point x="319.04" y="1441.4933333333" type="curve" smooth="yes"/>
			<point x="183.3466666667" y="1441.4933333333"/>
			<point x="83.3733333333" y="1353.28"/>
			<point x="46.1333333333" y="1188.1866666667" type="curve"/>
			<point x="68.8666666667" y="1183.8133333333" type="line"/>
			<point x="105.8666666667" y="1314.5866666667"/>
			<point x="180.3733333333" y="1358.84"/>
			<point x="269.3866666667" y="1358.84" type="curve" smooth="yes"/>
			<point x="364.4" y="1358.84"/>
			<point x="424.16" y="1305.5866666667"/>
			<point x="424.16" y="1213.8266666667" type="curve" smooth="yes"/>
			<point x="424.16" y="1142.5866666667"/>
			<point x="389.5466666667" y="1060.3466666667"/>
			<point x="267.6933333333" y="915.9733333333" type="curve" smooth="yes"/>
			<point x="68" y="672.12" type="line"/>
			<point x="68" y="662" type="line"/>
			<point x="494.3066666667" y="662" type="line"/>
			<point x="537.28" y="636.3866666667" type="line"/>
			<point x="544.52" y="636.3866666667" type="line"/>
			<point x="608.2533333333" y="875.52" type="line"/>
			<point x="597.1333333333" y="875.52" type="line"/>
		</contour>
	</outline>
</glyph>
<glyph name="uni00B3" format="2">
	<unicode hex="00B3"/>
	<advance width="603"/>
	<outline>
		<contour>
			<point x="199.8266666667" y="650.5066666667" type="curve" smooth="yes"/>
			<point x="402.28" y="650.5066666667"/>
			<point x="539.12" y="769.2666666667"/>
			<point x="539.12" y="923.6266666667" type="curve" smooth="yes"/>
			<point x="539.12" y="1050.64"/>
			<point x="448.48" y="1125.88"/>
			<point x="304.28" y="1105" type="curve"/>
			<point x="305.16" y="1092.4933333333" type="line"/>
			<point x="422" y="1139.0133333333"/>
			<point x="479.2533333333" y="1201.7466666667"/>
			<point x="479.2533333333" y="1283.6266666667" type="curve" smooth="yes"/>
			<point x="479.2533333333" y="1375"/>
			<point x="423.76" y="1441.4933333333"/>
			<point x="301.5333333333" y="1441.4933333333" type="curve" smooth="yes"/>
			<point x="180.4666666667" y="1441.4933333333"/>
			<point x="96.48" y="1365.64"/>
			<point x="66.4933333333" y="1236.16" type="curve"/>
			<point x="88.9733333333" y="1230.92" type="line"/>
			<point x="116.9957931105" y="1327.3720396606"/>
			<point x="180.8666666667" y="1369.32"/>
			<point x="263.9866666667" y="1369.32" type="curve" smooth="yes"/>
			<point x="346.1333333333" y="1369.32"/>
			<point x="384.88" y="1324.9333333333"/>
			<point x="384.88" y="1256.4266666667" type="curve" smooth="yes"/>
			<point x="384.88" y="1178.5333333333"/>
			<point x="331.7466666667" y="1117.52"/>
			<point x="178.72" y="1059.12" type="curve"/>
			<point x="186.4666666667" y="1033.52" type="line"/>
			<point x="226.2266666667" y="1046.0266666667" type="line" smooth="yes"/>
			<point x="365.7333333333" y="1089.2933333333"/>
			<point x="438.4" y="1016.1333333333"/>
			<point x="438.4" y="903.1333333333" type="curve" smooth="yes"/>
			<point x="438.4" y="781.1672"/>
			<point x="360.7466666667" y="684.9866666667"/>
			<point x="248.08" y="684.9866666667" type="curve" smooth="yes"/>
			<point x="166.32" y="684.9866666667"/>
			<point x="119.2266666667" y="769.8133333333"/>
			<point x="97.8533333333" y="769.8133333333" type="curve" smooth="yes"/>
			<point x="73.7466666667" y="769.8133333333"/>
			<point x="54.1333333333" y="750.08"/>
			<point x="54.1333333333" y="722.0933333333" type="curve" smooth="yes"/>
			<point x="54.1333333333" y="685.24"/>
			<point x="89" y="650.5066666667"/>
		</contour>
	</outline>
</glyph>
<glyph name="uni00B5" format="2">
	<unicode hex="00B5"/>
	<advance width="1206.3866666667"/>
	<outline>
		<contour>
			<point x="204.64" y="1024" type="line"/>
			<point x="204.64" y="-454.12" type="line"/>
			<point x="214.64" y="-454.12" type="line"/>
			<point x="337.1066666667" y="-443.1333333333" type="line"/>
			<point x="234.9866666667" y="171.1866666667" type="line"/>
			<point x="227.6133333333" y="171.1866666667" type="line"/>
			<point x="247.4" y="30.3466666667"/>
			<point x="350.8933333333" y="-20"/>
			<point x="481.2666666667" y="-20" type="curve" smooth="yes"/>
			<point x="596.2533333333" y="-20"/>
			<point x="682.7733333333" y="8.8666666667"/>
			<point x="877.1066666667" y="142.3066666667" type="curve"/>
			<point x="871.1333333333" y="161.1733333333" type="line"/>
			<point x="790.96" y="109.0133333333"/>
			<point x="667.52" y="68.5066666667"/>
			<point x="552.4933333333" y="68.5066666667" type="curve" smooth="yes"/>
			<point x="385.8266666667" y="68.5066666667"/>
			<point x="321.5866666667" y="133.3733333333"/>
			<point x="321.5866666667" y="325.0266666667" type="curve" smooth="yes"/>
			<point x="321.5866666667" y="1024" type="line"/>
		</contour>
		<contour>
			<point x="961.1333333333" y="169.7066666667" type="curve" smooth="yes"/>
			<point x="961.1333333333" y="1024" type="line"/>
			<point x="844.1866666667" y="1024" type="line"/>
			<point x="844.1866666667" y="177.9333333333" type="line" smooth="yes"/>
			<point x="844.1866666667" y="38.1866666667"/>
			<point x="889.3333333333" y="-18.7466666667"/>
			<point x="992.04" y="-18.7466666667" type="curve" smooth="yes"/>
			<point x="1060.76" y="-18.7466666667"/>
			<point x="1115.9733333333" y="8.6533333333"/>
			<point x="1184.8933333333" y="80.5333333333" type="curve"/>
			<point x="1184.8933333333" y="99.3866666667" type="line"/>
			<point x="1132.5066666667" y="67.64"/>
			<point x="1101.6666666667" y="59.28"/>
			<point x="1056.6666666667" y="59.28" type="curve" smooth="yes"/>
			<point x="1004.5333333333" y="59.28"/>
			<point x="961.1333333333" y="84.9066666667"/>
		</contour>
	</outline>
</glyph>
<glyph name="paragraph" format="2">
	<unicode hex="00B6"/>
	<advance width="1182.6933333333"/>
	<outline>
		<contour>
			<point x="691.9733333333" y="1430" type="line"/>
			<point x="449.6" y="1430" type="line" smooth="yes"/>
			<point x="164.24" y="1430"/>
			<point x="56.6266666667" y="1276.52"/>
			<point x="56.6266666667" y="1084.6533333333" type="curve" smooth="yes"/>
			<point x="56.6266666667" y="890.6666666667"/>
			<point x="164.36" y="740.92"/>
			<point x="448.6" y="740.92" type="curve" smooth="yes"/>
			<point x="691.9733333333" y="740.92" type="line"/>
		</contour>
		<contour>
			<point x="704.84" y="-218" type="line"/>
			<point x="704.84" y="1382.0266666667" type="line"/>
			<point x="887.84" y="1382.0266666667" type="line"/>
			<point x="887.84" y="1430" type="line"/>
			<point x="648.24" y="1430" type="line"/>
			<point x="648.24" y="-218" type="line"/>
		</contour>
		<contour>
			<point x="928.5733333333" y="-218" type="line"/>
			<point x="928.5733333333" y="1384.0266666667" type="line"/>
			<point x="1112.32" y="1414.2666666667" type="line"/>
			<point x="1112.32" y="1430" type="line"/>
			<point x="871.9733333333" y="1430" type="line"/>
			<point x="871.9733333333" y="-218" type="line"/>
		</contour>
	</outline>
</glyph>
<glyph name="uni00B9" format="2">
	<unicode hex="00B9"/>
	<advance width="517.16"/>
	<outline>
		<contour>
			<point x="249.6666666667" y="705.8533333333" type="line"/>
			<point x="92.0133333333" y="677.36" type="line"/>
			<point x="92.0133333333" y="662" type="line"/>
			<point x="491.4266666667" y="662" type="line"/>
			<point x="491.4266666667" y="677.36" type="line"/>
			<point x="347.7733333333" y="705.8533333333" type="line"/>
			<point x="347.7733333333" y="1440.8666666667" type="line"/>
			<point x="329.4133333333" y="1440.8666666667" type="line"/>
			<point x="31.6266666667" y="1285.4" type="line"/>
			<point x="37.3733333333" y="1269.92" type="line"/>
			<point x="293.3066666667" y="1340.0533333333" type="line"/>
			<point x="249.6666666667" y="1353.7733333333" type="line"/>
		</contour>
	</outline>
</glyph>
<glyph name="ordmasculine" format="2">
	<unicode hex="00BA"/>
	<advance width="908.16"/>
	<outline>
		<contour>
			<point x="155.0133333333" y="574.3866666667" type="line"/>
			<point x="753.1466666667" y="574.3866666667" type="line"/>
			<point x="753.1466666667" y="624.6133333333" type="line"/>
			<point x="155.0133333333" y="624.6133333333" type="line"/>
		</contour>
		<contour>
			<point x="454.4533333333" y="819.6" type="curve" smooth="yes"/>
			<point x="314.52" y="819.6"/>
			<point x="228.4533333333" y="938.6781518152"/>
			<point x="228.4533333333" y="1119.2266666667" type="curve" smooth="yes"/>
			<point x="228.4533333333" y="1302.2692682927"/>
			<point x="314.2666666667" y="1420.4"/>
			<point x="453.7066666667" y="1420.4" type="curve" smooth="yes"/>
			<point x="592.64" y="1420.4"/>
			<point x="679.08" y="1301.3218481848"/>
			<point x="679.08" y="1120.7733333333" type="curve" smooth="yes"/>
			<point x="679.08" y="937.362601626"/>
			<point x="592.8933333333" y="819.6"/>
		</contour>
		<contour>
			<point x="450.5866666667" y="790" type="curve" smooth="yes"/>
			<point x="638.8" y="790"/>
			<point x="783.6533333333" y="918.9118584071"/>
			<point x="783.6533333333" y="1125.6266666667" type="curve" smooth="yes"/>
			<point x="783.6533333333" y="1325.3455319149"/>
			<point x="637.0266666667" y="1450"/>
			<point x="456.5733333333" y="1450" type="curve" smooth="yes"/>
			<point x="268.36" y="1450"/>
			<point x="123.88" y="1320.7192133727"/>
			<point x="123.88" y="1114.3733333333" type="curve" smooth="yes"/>
			<point x="123.88" y="914.6544680851"/>
			<point x="271.2533333333" y="790"/>
		</contour>
	</outline>
</glyph>
<glyph name="guillemotright" format="2">
	<unicode hex="00BB"/>
	<advance width="930.5466666667"/>
	<outline>
		<contour>
			<point x="395.4533333333" y="464.2933333333" type="line"/>
			<point x="395.4533333333" y="580.08" type="line"/>
			<point x="100.0133333333" y="118.9066666667" type="line"/>
			<point x="115.1333333333" y="106.16" type="line"/>
			<point x="500.3333333333" y="516.2533333333" type="line"/>
			<point x="500.3333333333" y="528.12" type="line"/>
			<point x="115.1333333333" y="938.2133333333" type="line"/>
			<point x="100.0133333333" y="925.4666666667" type="line"/>
		</contour>
		<contour>
			<point x="736.6533333333" y="464.2933333333" type="line"/>
			<point x="736.6533333333" y="580.08" type="line"/>
			<point x="441.2133333333" y="118.9066666667" type="line"/>
			<point x="456.3333333333" y="106.16" type="line"/>
			<point x="841.5333333333" y="516.2533333333" type="line"/>
			<point x="841.5333333333" y="528.12" type="line"/>
			<point x="456.3333333333" y="938.2133333333" type="line"/>
			<point x="441.2133333333" y="925.4666666667" type="line"/>
		</contour>
	</outline>
</glyph>
<glyph name="questiondown" format="2">
	<unicode hex="00BF"/>
	<advance width="901.3866666667"/>
	<outline>
		<contour>
			<point x="589.2933333333" y="-426.3733333333" type="curve" smooth="yes"/>
			<point x="772.3866666667" y="-426.3733333333"/>
			<point x="850.76" y="-370.3866666667"/>
			<point x="850.76" y="-312.92" type="curve" smooth="yes"/>
			<point x="850.76" y="-273.3333333333"/>
			<point x="817.8" y="-245.7466666667"/>
			<point x="783.5733333333" y="-245.7466666667" type="curve" smooth="yes"/>
			<point x="768.72" y="-245.7466666667"/>
			<point x="686.5333333333" y="-355.5333333333"/>
			<point x="503.0533333333" y="-355.5333333333" type="curve" smooth="yes"/>
			<point x="292.8533333333" y="-355.5333333333"/>
			<point x="156.16" y="-252"/>
			<point x="156.16" y="-43.6666666667" type="curve" smooth="yes"/>
			<point x="156.16" y="133"/>
			<point x="262.0666666667" y="249.0266666667"/>
			<point x="588.0266666667" y="230.76" type="curve"/>
			<point x="534.4533333333" y="602.6133333333" type="line"/>
			<point x="509.9733333333" y="602.6133333333" type="line"/>
			<point x="509.9733333333" y="253.4666666667" type="line"/>
			<point x="538.4666666667" y="336.8666666667" type="line"/>
			<point x="187.6133333333" y="349.6133333333"/>
			<point x="75.2533333333" y="214.2"/>
			<point x="75.2533333333" y="11.12" type="curve" smooth="yes"/>
			<point x="75.2533333333" y="-258.7866666667"/>
			<point x="342.0533333333" y="-426.3733333333"/>
		</contour>
		<contour>
			<point x="516.96" y="829.8" type="curve" smooth="yes"/>
			<point x="577.6533333333" y="829.8"/>
			<point x="622.8666666667" y="876.3866666667"/>
			<point x="622.8666666667" y="934.96" type="curve" smooth="yes"/>
			<point x="622.8666666667" y="993.5333333333"/>
			<point x="577.6533333333" y="1039.4933333333"/>
			<point x="516.96" y="1039.4933333333" type="curve" smooth="yes"/>
			<point x="456.2666666667" y="1039.4933333333"/>
			<point x="411.0533333333" y="993.5333333333"/>
			<point x="411.0533333333" y="934.96" type="curve" smooth="yes"/>
			<point x="411.0533333333" y="876.3866666667"/>
			<point x="456.2666666667" y="829.8"/>
		</contour>
	</outline>
</glyph>
<glyph name="AE" format="2">
	<unicode hex="00C6"/>
	<advance width="2033.8533333333"/>
	<outline>
		<contour>
			<point x="497.5333333333" y="576.9333333333" type="line"/>
			<point x="1050.7333333333" y="576.9333333333" type="line"/>
			<point x="1050.7333333333" y="618.1333333333" type="line"/>
			<point x="497.5333333333" y="618.1333333333" type="line"/>
		</contour>
		<contour>
			<point x="978.0266666667" y="1430" type="line"/>
			<point x="141.7733333333" y="45.6" type="line"/>
			<point x="-38.4933333333" y="14.9866666667" type="line"/>
			<point x="-38.4933333333" y="0" type="line"/>
			<point x="372.7333333333" y="0" type="line"/>
			<point x="372.7333333333" y="14.9866666667" type="line"/>
			<point x="190.8533333333" y="45.2266666667" type="line"/>
			<point x="1002.36" y="1391.5066666667" type="line"/>
			<point x="1002.36" y="1430" type="line"/>
		</contour>
		<contour>
			<point x="791.4266666667" y="1414.64" type="line"/>
			<point x="974.68" y="1384.4" type="line"/>
			<point x="982.52" y="1430" type="line"/>
			<point x="791.4266666667" y="1430" type="line"/>
		</contour>
		<contour>
			<point x="1645.8" y="1035.8666666667" type="line"/>
			<point x="1631.32" y="1035.8666666667" type="line"/>
			<point x="1537.8666666667" y="777.8533333333" type="line"/>
			<point x="1057.6133333333" y="759.88" type="line"/>
			<point x="1057.6133333333" y="735.6266666667" type="line"/>
			<point x="1537.8666666667" y="720.4" type="line"/>
			<point x="1631.32" y="460.0133333333" type="line"/>
			<point x="1645.8" y="460.0133333333" type="line"/>
			<point x="1611.1733333333" y="747.2533333333" type="line"/>
		</contour>
		<contour>
			<point x="1923.2133333333" y="1061.6933333333" type="line"/>
			<point x="1847.44" y="1477.1066666667" type="line"/>
			<point x="1841.9466666667" y="1477.1066666667" type="line"/>
			<point x="1755.9466666667" y="1430" type="line"/>
			<point x="1020.28" y="1430" type="line"/>
			<point x="1020.28" y="1388.8" type="line"/>
			<point x="1830.7866666667" y="1388.8" type="line"/>
			<point x="1741.08" y="1407.16" type="line"/>
			<point x="1905.1066666667" y="1055.5733333333" type="line"/>
		</contour>
		<contour>
			<point x="1772.8666666667" y="23.72" type="line"/>
			<point x="1857.3066666667" y="41.2" type="line"/>
			<point x="1020.28" y="41.2" type="line"/>
			<point x="1020.28" y="0" type="line"/>
			<point x="1783.5866666667" y="0" type="line"/>
			<point x="1874.6133333333" y="-50.8666666667" type="line"/>
			<point x="1881.36" y="-50.8666666667" type="line"/>
			<point x="1986.1066666667" y="379.96" type="line"/>
			<point x="1969.2533333333" y="385.08" type="line"/>
		</contour>
		<contour>
			<point x="814.12" y="0" type="line"/>
			<point x="1123.92" y="0" type="line"/>
			<point x="1123.92" y="1430" type="line"/>
			<point x="996.2533333333" y="1430" type="line"/>
			<point x="996.2533333333" y="51.5733333333" type="line"/>
			<point x="814.12" y="18.3466666667" type="line"/>
		</contour>
	</outline>
	<anchor name="UCtop" x="1060.4" y="1430"/>
	<anchor name="bottom" x="1060.4" y="0"/>
</glyph>
<glyph name="Ccedilla" format="2">
	<unicode hex="00C7"/>
	<advance width="1410.7333333333"/>
	<outline>
		<contour>
			<point x="871.7333333333" y="9.1066666667" type="curve" smooth="yes"/>
			<point x="524.4933333333" y="9.1066666667"/>
			<point x="231.92" y="254.1733333333"/>
			<point x="231.92" y="743.6133333333" type="curve" smooth="yes"/>
			<point x="231.92" y="1204.1466666667"/>
			<point x="479.7066666667" y="1412.7733333333"/>
			<point x="808.4" y="1412.7733333333" type="curve" smooth="yes"/>
			<point x="942.0666666667" y="1412.7733333333"/>
			<point x="1068.24" y="1375.1466666667"/>
			<point x="1206.5333333333" y="1283.7466666667" type="curve"/>
			<point x="1137.08" y="1349.56" type="line"/>
			<point x="1300.7466666667" y="1008.92" type="line"/>
			<point x="1321.36" y="1012.5466666667" type="line"/>
			<point x="1232.6133333333" y="1480.8666666667" type="line"/>
			<point x="1224.2533333333" y="1480.8666666667" type="line"/>
			<point x="1152.2266666667" y="1384.84" type="line"/>
			<point x="1208.9866666667" y="1387.44" type="line"/>
			<point x="1092.6" y="1429.7333333333"/>
			<point x="978.56" y="1450"/>
			<point x="858.16" y="1450" type="curve" smooth="yes"/>
			<point x="399.8666666667" y="1450"/>
			<point x="96.1333333333" y="1161.1333333333"/>
			<point x="96.1333333333" y="720.2266666667" type="curve" smooth="yes"/>
			<point x="96.1333333333" y="237.7733333333"/>
			<point x="436.9866666667" y="-20"/>
			<point x="874.7333333333" y="-20" type="curve" smooth="yes"/>
			<point x="1016.8666666667" y="-20"/>
			<point x="1152.44" y="3.5333333333"/>
			<point x="1270.7466666667" y="47.9066666667" type="curve"/>
			<point x="1341.8533333333" y="362.8" type="line"/>
			<point x="1321.8666666667" y="362.8" type="line"/>
			<point x="1166.92" y="66.4" type="line"/>
			<point x="1210.3066666667" y="116.7866666667" type="line"/>
			<point x="1107.8133333333" y="43.3466666667"/>
			<point x="985.8933333333" y="9.1066666667"/>
		</contour>
		<contour>
			<point x="703.3866666667" y="-465" type="curve" smooth="yes"/>
			<point x="829.36" y="-465"/>
			<point x="933.5733333333" y="-392.4"/>
			<point x="933.5733333333" y="-285.04" type="curve" smooth="yes"/>
			<point x="933.5733333333" y="-225.4266666667"/>
			<point x="895.9466666667" y="-166.68"/>
			<point x="733.9866666667" y="-117.4266666667" type="curve"/>
			<point x="725.28" y="-157.3466666667" type="line"/>
			<point x="829.48" y="0" type="line"/>
			<point x="796.2533333333" y="0" type="line"/>
			<point x="668.8" y="-184.4666666667" type="line"/>
			<point x="668.8" y="-188.84" type="line"/>
			<point x="824.2666666667" y="-230.6"/>
			<point x="862.7733333333" y="-279.1066666667"/>
			<point x="862.7733333333" y="-333.12" type="curve" smooth="yes"/>
			<point x="862.7733333333" y="-388.88"/>
			<point x="811.88" y="-429.8933333333"/>
			<point x="758.2533333333" y="-429.8933333333" type="curve" smooth="yes"/>
			<point x="684.8666666667" y="-429.8933333333"/>
			<point x="647.4" y="-363.2933333333"/>
			<point x="632.0266666667" y="-363.2933333333" type="curve" smooth="yes"/>
			<point x="606.7866666667" y="-363.2933333333"/>
			<point x="593.6666666667" y="-384.16"/>
			<point x="593.6666666667" y="-405.4" type="curve" smooth="yes"/>
			<point x="593.6666666667" y="-439.3866666667"/>
			<point x="621.9066666667" y="-465"/>
		</contour>
	</outline>
</glyph>
<glyph name="multiply" format="2">
  <advance width="1150.0"/>
  <unicode hex="00D7"/>
  <outline>
    <contour>
      <point x="231.01333333333335" y="204.98666666666668" type="line"/>
      <point x="267.9866666666667" y="168.01333333333335" type="line"/>
      <point x="918.9866666666667" y="819.0133333333333" type="line"/>
      <point x="882.0133333333333" y="855.9866666666667" type="line"/>
    </contour>
    <contour>
      <point x="231.01333333333335" y="819.0133333333333" type="line"/>
      <point x="882.0133333333333" y="168.01333333333335" type="line"/>
      <point x="918.9866666666667" y="204.98666666666668" type="line"/>
      <point x="267.9866666666667" y="855.9866666666667" type="line"/>
    </contour>
  </outline>
</glyph>
<glyph name="Oslash" format="2">
  <advance width="1609"/>
  <unicode hex="00D8"/>
  <anchor x="805.3466666666667" y="1430.0" name="UCtop"/>
  <anchor x="805.3466666666667" y="0.0" name="bottom"/>
  <outline>
    <contour>
      <point x="348.16" y="252.17333333333335" type="line"/>
      <point x="314.47999999999996" y="220.22666666666666" type="line"/>
      <point x="113.13333333333334" y="0.0" type="line"/>
      <point x="192.09333333333333" y="0.0" type="line"/>
      <point x="353.8266666666667" y="176.61333333333334" type="line"/>
      <point x="388.14666666666665" y="209.57333333333332" type="line"/>
      <point x="1262.5333333333333" y="1177.8266666666666" type="line"/>
      <point x="1295.84" y="1209.7733333333333" type="line"/>
      <point x="1497.56" y="1430.0" type="line"/>
      <point x="1418.9733333333334" y="1430.0" type="line"/>
      <point x="1257.2399999999998" y="1253.3866666666665" type="line"/>
      <point x="1222.92" y="1220.4266666666667" type="line"/>
    </contour>
    <contour>
      <point x="797.8266666666667" y="1450.0" type="curve" smooth="yes"/>
      <point x="401.61333333333334" y="1450.0"/>
      <point x="113.50666666666667" y="1141.4933333333333"/>
      <point x="113.50666666666667" y="714.0" type="curve" smooth="yes"/>
      <point x="113.50666666666667" y="287.38666666666666"/>
      <point x="411.38666666666666" y="-20.0"/>
      <point x="813.9866666666667" y="-20.0" type="curve" smooth="yes"/>
      <point x="1209.4533333333334" y="-20.0"/>
      <point x="1497.56" y="288.50666666666666"/>
      <point x="1497.56" y="716.7466666666667" type="curve" smooth="yes"/>
      <point x="1497.56" y="1142.6133333333332"/>
      <point x="1199.68" y="1450.0"/>
    </contour>
    <contour>
      <point x="813.72" y="16.720000000000002" type="curve" smooth="yes"/>
      <point x="482.62666666666667" y="16.720000000000002"/>
      <point x="246.42666666666668" y="284.9866666666667"/>
      <point x="246.42666666666668" y="734.4666666666667" type="curve" smooth="yes"/>
      <point x="246.42666666666668" y="1137.0933333333332"/>
      <point x="451.47999999999996" y="1413.6533333333334"/>
      <point x="797.3466666666667" y="1413.6533333333334" type="curve" smooth="yes"/>
      <point x="1127.6933333333334" y="1413.6533333333334"/>
      <point x="1364.2666666666667" y="1145.0133333333333"/>
      <point x="1364.2666666666667" y="695.5333333333333" type="curve" smooth="yes"/>
      <point x="1364.2666666666667" y="293.28000000000003"/>
      <point x="1159.2133333333334" y="16.720000000000002"/>
    </contour>
  </outline>
</glyph>
<glyph name="Thorn" format="2">
	<unicode hex="00DE"/>
	<advance width="1229.5733333333"/>
	<outline>
		<contour>
			<point x="1021.28" y="731" type="curve" smooth="yes"/>
			<point x="1021.28" y="512.3733333333"/>
			<point x="884.5733333333" y="385.84"/>
			<point x="577.2933333333" y="385.84" type="curve" smooth="yes"/>
			<point x="291.5466666667" y="385.84" type="line"/>
			<point x="291.5466666667" y="344.64" type="line"/>
			<point x="640.96" y="344.64" type="line" smooth="yes"/>
			<point x="1007.9733333333" y="344.64"/>
			<point x="1151.0666666667" y="518.6133333333"/>
			<point x="1151.0666666667" y="735.8533333333" type="curve" smooth="yes"/>
			<point x="1151.0666666667" y="950.48"/>
			<point x="1009.96" y="1117.7333333333"/>
			<point x="640.3333333333" y="1117.7333333333" type="curve" smooth="yes"/>
			<point x="298.44" y="1117.7333333333" type="line"/>
			<point x="291.5466666667" y="1076.5333333333" type="line"/>
			<point x="528.76" y="1076.5333333333" type="line" smooth="yes"/>
			<point x="895.7733333333" y="1076.5333333333"/>
			<point x="1021.28" y="948.1333333333"/>
		</contour>
		<contour>
			<point x="554.2933333333" y="18.3466666667" type="line"/>
			<point x="372.7866666667" y="51.5733333333" type="line"/>
			<point x="372.7866666667" y="1378.8" type="line"/>
			<point x="554.2933333333" y="1411.6533333333" type="line"/>
			<point x="554.2933333333" y="1430" type="line"/>
			<point x="62.9866666667" y="1430" type="line"/>
			<point x="62.9866666667" y="1411.6533333333" type="line"/>
			<point x="245.12" y="1378.8" type="line"/>
			<point x="245.12" y="51.5733333333" type="line"/>
			<point x="62.9866666667" y="18.3466666667" type="line"/>
			<point x="62.9866666667" y="0" type="line"/>
			<point x="554.2933333333" y="0" type="line"/>
		</contour>
	</outline>
</glyph>
<glyph name="germandbls" format="2">
	<unicode hex="00DF"/>
	<advance width="1224.64"/>
	<outline>
		<contour>
			<point x="218.56" y="1013.04" type="curve" smooth="yes"/>
			<point x="218.56" y="38.8266666667" type="line"/>
			<point x="71.8" y="16.3466666667" type="line"/>
			<point x="71.8" y="0" type="line"/>
			<point x="491.9733333333" y="0" type="line"/>
			<point x="491.9733333333" y="16.3466666667" type="line"/>
			<point x="337.7466666667" y="38.8266666667" type="line"/>
			<point x="337.7466666667" y="1088.1466666667" type="line" smooth="yes"/>
			<point x="337.7466666667" y="1306.8666666667"/>
			<point x="452.1466666667" y="1445.1466666667"/>
			<point x="663.2" y="1445.1466666667" type="curve" smooth="yes"/>
			<point x="846.84" y="1445.1466666667"/>
			<point x="929.6" y="1338.6666666667"/>
			<point x="929.6" y="1245.5466666667" type="curve" smooth="yes"/>
			<point x="929.6" y="997.04"/>
			<point x="618.3733333333" y="960.6533333333"/>
			<point x="618.3733333333" y="748.2133333333" type="curve" smooth="yes"/>
			<point x="618.3733333333" y="449.7066666667"/>
			<point x="1093.1333333333" y="542.76"/>
			<point x="1093.1333333333" y="250.0266666667" type="curve" smooth="yes"/>
			<point x="1093.1333333333" y="120.5066666667"/>
			<point x="1007.8666666667" y="14.0933333333"/>
			<point x="868.96" y="14.0933333333" type="curve" smooth="yes"/>
			<point x="780.6266666667" y="14.0933333333"/>
			<point x="709.32" y="44.3866666667"/>
			<point x="674.2" y="82.3066666667" type="curve"/>
			<point x="717.7333333333" y="19.8666666667" type="line"/>
			<point x="579.8933333333" y="311.6" type="line"/>
			<point x="560.92" y="311.6" type="line"/>
			<point x="620.0533333333" y="26.0133333333" type="line"/>
			<point x="687.0533333333" y="-6.12"/>
			<point x="762.0666666667" y="-20"/>
			<point x="851.1866666667" y="-20" type="curve" smooth="yes"/>
			<point x="1048.6666666667" y="-20"/>
			<point x="1183.0133333333" y="114.7333333333"/>
			<point x="1183.0133333333" y="293.32" type="curve" smooth="yes"/>
			<point x="1183.0133333333" y="652.04"/>
			<point x="711.12" y="577.64"/>
			<point x="711.12" y="801.0533333333" type="curve" smooth="yes"/>
			<point x="711.12" y="1010.3733333333"/>
			<point x="1027.24" y="1025.3866666667"/>
			<point x="1027.24" y="1256.8933333333" type="curve" smooth="yes"/>
			<point x="1027.24" y="1372.0133333333"/>
			<point x="919.7333333333" y="1484"/>
			<point x="685.9333333333" y="1484" type="curve" smooth="yes"/>
			<point x="438.76" y="1484"/>
			<point x="218.56" y="1320.0266666667"/>
		</contour>
		<contour>
			<point x="244.68" y="1028.3733333333" type="line"/>
			<point x="19.0933333333" y="988.2933333333" type="line"/>
			<point x="19.0933333333" y="967.5733333333" type="line"/>
			<point x="233.3066666667" y="940.8533333333" type="line"/>
		</contour>
	</outline>
</glyph>
<glyph name="ae" format="2">
  <advance width="1568"/>
  <unicode hex="00E6"/>
  <anchor x="732.88" y="1024.0" name="top"/>
  <anchor x="732.88" y="0.0" name="bottom"/>
  <outline>
    <contour>
      <point x="443.14666666666665" y="987.1733333333333" type="curve" smooth="yes"/>
      <point x="605.84" y="987.1733333333333"/>
      <point x="674.0933333333334" y="898.2533333333333"/>
      <point x="674.0933333333334" y="744.3333333333334" type="curve" smooth="yes"/>
      <point x="674.0933333333334" y="329.2" type="line" smooth="yes"/>
      <point x="674.0933333333334" y="151.81333333333333"/>
      <point x="555.9866666666667" y="60.25333333333333"/>
      <point x="413.4133333333333" y="60.25333333333333" type="curve" smooth="yes"/>
      <point x="292.34666666666664" y="60.25333333333333"/>
      <point x="210.70666666666665" y="136.42666666666668"/>
      <point x="210.70666666666665" y="261.4533333333333" type="curve" smooth="yes"/>
      <point x="210.70666666666665" y="398.06666666666666"/>
      <point x="264.79999999999995" y="488.4533333333333"/>
      <point x="724.7733333333333" y="632.1466666666666" type="curve"/>
      <point x="720.6666666666666" y="662.8666666666667" type="line"/>
      <point x="159.85333333333332" y="487.37333333333333"/>
      <point x="88.01333333333334" y="409.8666666666667"/>
      <point x="88.01333333333334" y="242.38666666666666" type="curve" smooth="yes"/>
      <point x="88.01333333333334" y="71.88"/>
      <point x="201.35999999999999" y="-20.0"/>
      <point x="381.14666666666665" y="-20.0" type="curve" smooth="yes"/>
      <point x="548.8666666666667" y="-20.0"/>
      <point x="684.7066666666666" y="90.98666666666666"/>
      <point x="692.8266666666667" y="322.68" type="curve"/>
      <point x="684.5866666666666" y="322.68" type="line"/>
      <point x="719.7333333333333" y="94.63999999999999"/>
      <point x="890.3199999999999" y="-20.0"/>
      <point x="1124.96" y="-20.0" type="curve" smooth="yes"/>
      <point x="1279.0666666666668" y="-20.0"/>
      <point x="1384.6533333333334" y="42.986666666666665"/>
      <point x="1520.5600000000002" y="231.33333333333331" type="curve"/>
      <point x="1507.6933333333334" y="241.07999999999998" type="line"/>
      <point x="1400.5866666666666" y="118.74666666666667"/>
      <point x="1303.7466666666667" y="77.25333333333333"/>
      <point x="1176.2" y="77.25333333333333" type="curve" smooth="yes"/>
      <point x="930.0533333333333" y="77.25333333333333"/>
      <point x="791.04" y="239.9466666666667"/>
      <point x="791.04" y="576.2" type="curve" smooth="yes"/>
      <point x="791.04" y="834.5866666666666"/>
      <point x="901.8266666666667" y="1005.0266666666666"/>
      <point x="1113.3333333333333" y="1005.0266666666666" type="curve" smooth="yes"/>
      <point x="1262.1599999999999" y="1005.0266666666666"/>
      <point x="1345.8400000000001" y="881.3733333333333"/>
      <point x="1367.4666666666667" y="645.3733333333333" type="curve"/>
      <point x="1414.76" y="670.84" type="line"/>
      <point x="773.1466666666666" y="670.84" type="line"/>
      <point x="774.4" y="634.1466666666666" type="line"/>
      <point x="1490.2933333333333" y="634.1466666666666" type="line"/>
      <point x="1477.9884075120192" y="878.7925487669147"/>
      <point x="1353.96" y="1044.0"/>
      <point x="1130.8" y="1044.0" type="curve" smooth="yes"/>
      <point x="949.2283636363636" y="1044.0"/>
      <point x="810.3490858525101" y="943.2168394302238"/>
      <point x="735.36" y="795.0133333333333" type="curve"/>
      <point x="794.7733333333333" y="795.0133333333333" type="line"/>
      <point x="783.5380542862298" y="945.5075913300864"/>
      <point x="706.0872529858848" y="1042.12"/>
      <point x="492.5733333333333" y="1042.12" type="curve" smooth="yes"/>
      <point x="339.26666666666665" y="1042.12"/>
      <point x="89.74666666666666" y="930.1466666666666"/>
      <point x="89.74666666666666" y="831.3066666666666" type="curve" smooth="yes"/>
      <point x="89.74666666666666" y="800.5866666666666"/>
      <point x="111.97333333333333" y="785.0933333333332"/>
      <point x="149.94666666666666" y="785.0933333333332" type="curve" smooth="yes"/>
      <point x="178.17333333333332" y="785.0933333333332"/>
      <point x="209.4" y="795.5866666666666"/>
      <point x="223.89333333333332" y="812.8266666666666" type="curve" smooth="yes"/>
      <point x="241.7466666666667" y="834.1733333333333"/>
      <point x="256.11999999999995" y="901.6133333333333"/>
      <point x="265.0" y="973.1066666666667" type="curve"/>
      <point x="204.48000000000002" y="935.6133333333333" type="line"/>
      <point x="282.84" y="970.28"/>
      <point x="362.1066666666666" y="987.1733333333333"/>
    </contour>
  </outline>
</glyph>
<glyph name="ccedilla" format="2">
	<unicode hex="00E7"/>
	<advance width="937.36"/>
	<outline>
		<contour>
			<point x="588.9733333333" y="1044" type="curve" smooth="yes"/>
			<point x="277.9466666667" y="1044"/>
			<point x="78.1333333333" y="811.7466666667"/>
			<point x="78.1333333333" y="483.9733333333" type="curve" smooth="yes"/>
			<point x="78.1333333333" y="154.8666666667"/>
			<point x="257.6" y="-20"/>
			<point x="517.3733333333" y="-20" type="curve" smooth="yes"/>
			<point x="665.48" y="-20"/>
			<point x="762.68" y="41.1066666667"/>
			<point x="902.9866666667" y="231.3333333333" type="curve"/>
			<point x="891.12" y="241.08" type="line"/>
			<point x="781.6266666667" y="117.4933333333"/>
			<point x="685.0266666667" y="76"/>
			<point x="565.8666666667" y="76" type="curve" smooth="yes"/>
			<point x="327.4666666667" y="76"/>
			<point x="194.1866666667" y="241.2"/>
			<point x="194.1866666667" y="553.64" type="curve" smooth="yes"/>
			<point x="194.1866666667" y="844.1866666667"/>
			<point x="318.12" y="1001.0266666667"/>
			<point x="521.1466666667" y="1001.0266666667" type="curve" smooth="yes"/>
			<point x="667.5733333333" y="1001.0266666667"/>
			<point x="764.5466666667" y="834.9733333333"/>
			<point x="791.5466666667" y="834.9733333333" type="curve" smooth="yes"/>
			<point x="833.24" y="834.9733333333"/>
			<point x="862.2133333333" y="866.08"/>
			<point x="862.2133333333" y="907.7733333333" type="curve" smooth="yes"/>
			<point x="862.2133333333" y="977.6266666667"/>
			<point x="772.8266666667" y="1044"/>
		</contour>
		<contour>
			<point x="435.64" y="-465" type="curve" smooth="yes"/>
			<point x="561.6133333333" y="-465"/>
			<point x="665.8266666667" y="-392.4"/>
			<point x="665.8266666667" y="-285.04" type="curve" smooth="yes"/>
			<point x="665.8266666667" y="-225.4266666667"/>
			<point x="628.2" y="-166.68"/>
			<point x="466.24" y="-117.4266666667" type="curve"/>
			<point x="457.5333333333" y="-157.3466666667" type="line"/>
			<point x="567.3333333333" y="7.84" type="line"/>
			<point x="534.1066666667" y="7.84" type="line"/>
			<point x="401.0533333333" y="-184.4666666667" type="line"/>
			<point x="401.0533333333" y="-188.84" type="line"/>
			<point x="556.52" y="-230.6"/>
			<point x="595.0266666667" y="-279.1066666667"/>
			<point x="595.0266666667" y="-333.12" type="curve" smooth="yes"/>
			<point x="595.0266666667" y="-388.88"/>
			<point x="544.1333333333" y="-429.8933333333"/>
			<point x="490.5066666667" y="-429.8933333333" type="curve" smooth="yes"/>
			<point x="417.12" y="-429.8933333333"/>
			<point x="379.6533333333" y="-363.2933333333"/>
			<point x="364.28" y="-363.2933333333" type="curve" smooth="yes"/>
			<point x="339.04" y="-363.2933333333"/>
			<point x="325.92" y="-384.16"/>
			<point x="325.92" y="-405.4" type="curve" smooth="yes"/>
			<point x="325.92" y="-439.3866666667"/>
			<point x="354.16" y="-465"/>
		</contour>
	</outline>
</glyph>
<glyph name="eth" format="2">
	<unicode hex="00F0"/>
	<advance width="1147.4266666667"/>
	<outline>
		<contour>
			<point x="561.0933333333" y="-20" type="curve" smooth="yes"/>
			<point x="839.1866666667" y="-20"/>
			<point x="1052.6666666667" y="182.24"/>
			<point x="1052.6666666667" y="577.48" type="curve" smooth="yes"/>
			<point x="1052.6666666667" y="967.48"/>
			<point x="898.3066666667" y="1355.84"/>
			<point x="252.2666666667" y="1479.24" type="curve"/>
			<point x="237.8933333333" y="1456.76" type="line"/>
			<point x="740.3733333333" y="1327.7733333333"/>
			<point x="870.7866666667" y="1098.88"/>
			<point x="917.4533333333" y="734.16" type="curve"/>
			<point x="936.1333333333" y="731.4266666667" type="line"/>
			<point x="870.84" y="929.88"/>
			<point x="710.1431466667" y="1012"/>
			<point x="563.6" y="1012" type="curve" smooth="yes"/>
			<point x="289.6133333333" y="1012"/>
			<point x="76.5066666667" y="810.1333333333"/>
			<point x="76.5066666667" y="486.6266666667" type="curve" smooth="yes"/>
			<point x="76.5066666667" y="173.8666666667"/>
			<point x="296.76" y="-20"/>
		</contour>
		<contour>
			<point x="564.96" y="11.4666666667" type="curve" smooth="yes"/>
			<point x="348.0133333333" y="11.4666666667"/>
			<point x="204.9333333333" y="202.8666666667"/>
			<point x="204.9333333333" y="492.2266666667" type="curve" smooth="yes"/>
			<point x="204.9333333333" y="787.8533333333"/>
			<point x="347.76" y="980.9066666667"/>
			<point x="564.2133333333" y="980.9066666667" type="curve" smooth="yes"/>
			<point x="781.5333333333" y="980.9066666667"/>
			<point x="924.6133333333" y="788.76"/>
			<point x="924.6133333333" y="498.6533333333" type="curve" smooth="yes"/>
			<point x="924.6133333333" y="203.7733333333"/>
			<point x="781.7866666667" y="11.4666666667"/>
		</contour>
		<contour>
			<point x="449.0266666667" y="1104.76" type="line"/>
			<point x="860.0933333333" y="1453.8666666667" type="line"/>
			<point x="830.6" y="1488.1066666667" type="line"/>
			<point x="419.16" y="1139.3733333333" type="line"/>
		</contour>
	</outline>
</glyph>
<glyph name="divide" format="2">
	<unicode hex="00F7"/>
	<advance width="1150"/>
	<outline>
		<contour>
			<point x="575" y="245.72" type="curve" smooth="yes"/>
			<point x="522.8933333333" y="245.72"/>
			<point x="483.28" y="204.36"/>
			<point x="483.28" y="154" type="curve" smooth="yes"/>
			<point x="483.28" y="103.64"/>
			<point x="522.8933333333" y="63.28"/>
			<point x="575" y="63.28" type="curve" smooth="yes"/>
			<point x="627.1066666667" y="63.28"/>
			<point x="666.72" y="103.64"/>
			<point x="666.72" y="154" type="curve" smooth="yes"/>
			<point x="666.72" y="204.36"/>
			<point x="627.1066666667" y="245.72"/>
		</contour>
		<contour>
			<point x="575" y="961.3466666667" type="curve" smooth="yes"/>
			<point x="522.8933333333" y="961.3466666667"/>
			<point x="483.28" y="920.36"/>
			<point x="483.28" y="870" type="curve" smooth="yes"/>
			<point x="483.28" y="819.64"/>
			<point x="522.8933333333" y="779.28"/>
			<point x="575" y="779.28" type="curve" smooth="yes"/>
			<point x="627.1066666667" y="779.28"/>
			<point x="666.72" y="819.64"/>
			<point x="666.72" y="870" type="curve" smooth="yes"/>
			<point x="666.72" y="920.36"/>
			<point x="627.1066666667" y="961.3466666667"/>
		</contour>
		<contour>
			<point x="164" y="538.1066666667" type="line"/>
			<point x="164" y="485.8933333333" type="line"/>
			<point x="986" y="485.8933333333" type="line"/>
			<point x="986" y="538.1066666667" type="line"/>
		</contour>
	</outline>
</glyph>
